<ttFont>
<head>
    <!-- Most of this table will be recalculated by the compiler -->
    <tableVersion value="1.0"/>
    <fontRevision value="0.001"/>
    <checkSumAdjustment value="0x7162793c"/>
    <magicNumber value="0x5f0f3cf5"/>
    <flags value="00000000 00000011"/>
    <unitsPerEm value="2048"/>
    <created value="Fri May 30 10:44:36 2025"/>
    <modified value="Fri May 30 10:44:37 2025"/>
    <xMin value="0"/>
    <yMin value="-512"/>
    <xMax value="1550"/>
    <yMax value="1536"/>
    <macStyle value="00000000 00000000"/>
    <lowestRecPPEM value="6"/>
    <fontDirectionHint value="2"/>
    <indexToLocFormat value="0"/>
    <glyphDataFormat value="0"/>
  </head>
    <TTGlyph name=".notdef" xMin="0" yMin="0" xMax="1536" yMax="1536">
      <component glyphName="comp0" x="0" y="0" flags="0x204"/>
      <component glyphName="comp0" x="0" y="256" flags="0x4"/>
      <component glyphName="comp0" x="0" y="512" flags="0x4"/>
      <component glyphName="comp0" x="0" y="768" flags="0x4"/>
      <component glyphName="comp0" x="0" y="1024" flags="0x4"/>
      <component glyphName="comp0" x="0" y="1280" flags="0x4"/>
      <component glyphName="comp0" x="256" y="0" flags="0x4"/>
      <component glyphName="comp0" x="512" y="0" flags="0x4"/>
      <component glyphName="comp0" x="768" y="0" flags="0x4"/>
      <component glyphName="comp0" x="1024" y="0" flags="0x4"/>
      <component glyphName="comp0" x="1280" y="0" flags="0x4"/>
      <component glyphName="comp0" x="1280" y="256" flags="0x4"/>
      <component glyphName="comp0" x="1280" y="512" flags="0x4"/>
      <component glyphName="comp0" x="1280" y="768" flags="0x4"/>
      <component glyphName="comp0" x="1280" y="1024" flags="0x4"/>
      <component glyphName="comp0" x="1280" y="1280" flags="0x4"/>
      <component glyphName="comp0" x="1024" y="1280" flags="0x4"/>
      <component glyphName="comp0" x="768" y="1280" flags="0x4"/>
      <component glyphName="comp0" x="512" y="1280" flags="0x4"/>
      <component glyphName="comp0" x="256" y="1280" flags="0x4"/>
      <component glyphName="comp0" x="256" y="256" flags="0x4"/>
      <component glyphName="comp0" x="512" y="512" flags="0x4"/>
      <component glyphName="comp0" x="768" y="768" flags="0x4"/>
      <component glyphName="comp0" x="1024" y="1024" flags="0x4"/>
      <component glyphName="comp0" x="256" y="1024" flags="0x4"/>
      <component glyphName="comp0" x="512" y="768" flags="0x4"/>
      <component glyphName="comp0" x="768" y="512" flags="0x4"/>
      <component glyphName="comp0" x="1024" y="256" flags="0x4"/>
    </TTGlyph>
    <TTGlyph name="A" xMin="256" yMin="0" xMax="1280" yMax="1536">
      <component glyphName="comp0" x="256" y="0" flags="0x4"/>
      <component glyphName="comp0" x="256" y="256" flags="0x4"/>
      <component glyphName="comp0" x="256" y="768" flags="0x4"/>
      <component glyphName="comp0" x="256" y="1024" flags="0x4"/>
      <component glyphName="comp0" x="256" y="1280" flags="0x4"/>
      <component glyphName="comp0" x="1024" y="0" flags="0x4"/>
      <component glyphName="comp0" x="1024" y="1280" flags="0x4"/>
      <component glyphName="comp0" x="768" y="1280" flags="0x4"/>
      <component glyphName="comp0" x="512" y="1280" flags="0x4"/>
      <component glyphName="comp0" x="1024" y="768" flags="0x4"/>
      <component glyphName="comp0" x="1024" y="1024" flags="0x4"/>
      <component glyphName="comp0" x="512" y="768" flags="0x4"/>
      <component glyphName="comp0" x="768" y="768" flags="0x4"/>
      <component glyphName="comp0" x="1024" y="256" flags="0x4"/>
      <component glyphName="comp0" x="256" y="512" flags="0x4"/>
      <component glyphName="comp0" x="1024" y="512" flags="0x4"/>
    </TTGlyph>
    <TTGlyph name="A.0" xMin="383" yMin="127" xMax="1153" yMax="1409">
      <component glyphName="compR" x="256" y="0" flags="0x4"/>
      <component glyphName="compR" x="256" y="256" flags="0x4"/>
      <component glyphName="compR" x="256" y="512" flags="0x4"/>
      <component glyphName="compR" x="256" y="768" flags="0x4"/>
      <component glyphName="compR" x="256" y="1024" flags="0x4"/>
      <component glyphName="compR" x="256" y="1280" flags="0x4"/>
      <component glyphName="compR" x="1024" y="0" flags="0x4"/>
      <component glyphName="compR" x="1024" y="1280" flags="0x4"/>
      <component glyphName="compR" x="768" y="1280" flags="0x4"/>
      <component glyphName="compR" x="512" y="1280" flags="0x4"/>
      <component glyphName="compR" x="1024" y="768" flags="0x4"/>
      <component glyphName="compR" x="1024" y="1024" flags="0x4"/>
      <component glyphName="compR" x="512" y="768" flags="0x4"/>
      <component glyphName="compR" x="768" y="768" flags="0x4"/>
      <component glyphName="compR" x="1024" y="512" flags="0x4"/>
      <component glyphName="compR" x="1024" y="256" flags="0x4"/>
    </TTGlyph>
    <TTGlyph name="A.1" xMin="383" yMin="127" xMax="1153" yMax="1409">
      <component glyphName="compO" x="256" y="0" flags="0x4"/>
      <component glyphName="compO" x="256" y="256" flags="0x4"/>
      <component glyphName="compO" x="256" y="512" flags="0x4"/>
      <component glyphName="compO" x="256" y="768" flags="0x4"/>
      <component glyphName="compO" x="256" y="1024" flags="0x4"/>
      <component glyphName="compO" x="256" y="1280" flags="0x4"/>
      <component glyphName="compO" x="1024" y="0" flags="0x4"/>
      <component glyphName="compO" x="1024" y="1280" flags="0x4"/>
      <component glyphName="compO" x="768" y="1280" flags="0x4"/>
      <component glyphName="compO" x="512" y="1280" flags="0x4"/>
      <component glyphName="compO" x="1024" y="768" flags="0x4"/>
      <component glyphName="compO" x="1024" y="1024" flags="0x4"/>
      <component glyphName="compO" x="512" y="768" flags="0x4"/>
      <component glyphName="compO" x="768" y="768" flags="0x4"/>
      <component glyphName="compO" x="1024" y="512" flags="0x4"/>
      <component glyphName="compO" x="1024" y="256" flags="0x4"/>
    </TTGlyph>
    <TTGlyph name="A.2" xMin="383" yMin="127" xMax="1153" yMax="1409">
      <component glyphName="compY" x="256" y="0" flags="0x4"/>
      <component glyphName="compY" x="256" y="256" flags="0x4"/>
      <component glyphName="compY" x="256" y="512" flags="0x4"/>
      <component glyphName="compY" x="256" y="768" flags="0x4"/>
      <component glyphName="compY" x="256" y="1024" flags="0x4"/>
      <component glyphName="compY" x="256" y="1280" flags="0x4"/>
      <component glyphName="compY" x="1024" y="0" flags="0x4"/>
      <component glyphName="compY" x="1024" y="1280" flags="0x4"/>
      <component glyphName="compY" x="768" y="1280" flags="0x4"/>
      <component glyphName="compY" x="512" y="1280" flags="0x4"/>
      <component glyphName="compY" x="1024" y="768" flags="0x4"/>
      <component glyphName="compY" x="1024" y="1024" flags="0x4"/>
      <component glyphName="compY" x="512" y="768" flags="0x4"/>
      <component glyphName="compY" x="768" y="768" flags="0x4"/>
      <component glyphName="compY" x="1024" y="512" flags="0x4"/>
      <component glyphName="compY" x="1024" y="256" flags="0x4"/>
    </TTGlyph>
    <TTGlyph name="A.3" xMin="383" yMin="127" xMax="1153" yMax="1409">
      <component glyphName="compG" x="256" y="0" flags="0x4"/>
      <component glyphName="compG" x="256" y="256" flags="0x4"/>
      <component glyphName="compG" x="256" y="512" flags="0x4"/>
      <component glyphName="compG" x="256" y="768" flags="0x4"/>
      <component glyphName="compG" x="256" y="1024" flags="0x4"/>
      <component glyphName="compG" x="256" y="1280" flags="0x4"/>
      <component glyphName="compG" x="1024" y="0" flags="0x4"/>
      <component glyphName="compG" x="1024" y="1280" flags="0x4"/>
      <component glyphName="compG" x="768" y="1280" flags="0x4"/>
      <component glyphName="compG" x="512" y="1280" flags="0x4"/>
      <component glyphName="compG" x="1024" y="768" flags="0x4"/>
      <component glyphName="compG" x="1024" y="1024" flags="0x4"/>
      <component glyphName="compG" x="512" y="768" flags="0x4"/>
      <component glyphName="compG" x="768" y="768" flags="0x4"/>
      <component glyphName="compG" x="1024" y="512" flags="0x4"/>
      <component glyphName="compG" x="1024" y="256" flags="0x4"/>
    </TTGlyph>
    <TTGlyph name="A.4" xMin="383" yMin="127" xMax="1153" yMax="1409">
      <component glyphName="compB" x="256" y="0" flags="0x4"/>
      <component glyphName="compB" x="256" y="256" flags="0x4"/>
      <component glyphName="compB" x="256" y="512" flags="0x4"/>
      <component glyphName="compB" x="256" y="768" flags="0x4"/>
      <component glyphName="compB" x="256" y="1024" flags="0x4"/>
      <component glyphName="compB" x="256" y="1280" flags="0x4"/>
      <component glyphName="compB" x="1024" y="0" flags="0x4"/>
      <component glyphName="compB" x="1024" y="1280" flags="0x4"/>
      <component glyphName="compB" x="768" y="1280" flags="0x4"/>
      <component glyphName="compB" x="512" y="1280" flags="0x4"/>
      <component glyphName="compB" x="1024" y="768" flags="0x4"/>
      <component glyphName="compB" x="1024" y="1024" flags="0x4"/>
      <component glyphName="compB" x="512" y="768" flags="0x4"/>
      <component glyphName="compB" x="768" y="768" flags="0x4"/>
      <component glyphName="compB" x="1024" y="512" flags="0x4"/>
      <component glyphName="compB" x="1024" y="256" flags="0x4"/>
    </TTGlyph>
    <TTGlyph name="A.5" xMin="383" yMin="127" xMax="1153" yMax="1409">
      <component glyphName="compI" x="256" y="0" flags="0x4"/>
      <component glyphName="compI" x="256" y="256" flags="0x4"/>
      <component glyphName="compI" x="256" y="512" flags="0x4"/>
      <component glyphName="compI" x="256" y="768" flags="0x4"/>
      <component glyphName="compI" x="256" y="1024" flags="0x4"/>
      <component glyphName="compI" x="256" y="1280" flags="0x4"/>
      <component glyphName="compI" x="1024" y="0" flags="0x4"/>
      <component glyphName="compI" x="1024" y="1280" flags="0x4"/>
      <component glyphName="compI" x="768" y="1280" flags="0x4"/>
      <component glyphName="compI" x="512" y="1280" flags="0x4"/>
      <component glyphName="compI" x="1024" y="768" flags="0x4"/>
      <component glyphName="compI" x="1024" y="1024" flags="0x4"/>
      <component glyphName="compI" x="512" y="768" flags="0x4"/>
      <component glyphName="compI" x="768" y="768" flags="0x4"/>
      <component glyphName="compI" x="1024" y="512" flags="0x4"/>
      <component glyphName="compI" x="1024" y="256" flags="0x4"/>
    </TTGlyph>
    <TTGlyph name="A.6" xMin="383" yMin="127" xMax="1153" yMax="1409">
      <component glyphName="compV" x="256" y="0" flags="0x4"/>
      <component glyphName="compV" x="256" y="256" flags="0x4"/>
      <component glyphName="compV" x="256" y="512" flags="0x4"/>
      <component glyphName="compV" x="256" y="768" flags="0x4"/>
      <component glyphName="compV" x="256" y="1024" flags="0x4"/>
      <component glyphName="compV" x="256" y="1280" flags="0x4"/>
      <component glyphName="compV" x="1024" y="0" flags="0x4"/>
      <component glyphName="compV" x="1024" y="1280" flags="0x4"/>
      <component glyphName="compV" x="768" y="1280" flags="0x4"/>
      <component glyphName="compV" x="512" y="1280" flags="0x4"/>
      <component glyphName="compV" x="1024" y="768" flags="0x4"/>
      <component glyphName="compV" x="1024" y="1024" flags="0x4"/>
      <component glyphName="compV" x="512" y="768" flags="0x4"/>
      <component glyphName="compV" x="768" y="768" flags="0x4"/>
      <component glyphName="compV" x="1024" y="512" flags="0x4"/>
      <component glyphName="compV" x="1024" y="256" flags="0x4"/>
    </TTGlyph>
    <TTGlyph name="B" xMin="256" yMin="0" xMax="1280" yMax="1536">
      <component glyphName="comp0" x="256" y="0" flags="0x4"/>
      <component glyphName="comp0" x="256" y="256" flags="0x4"/>
      <component glyphName="comp0" x="256" y="768" flags="0x4"/>
      <component glyphName="comp0" x="256" y="1024" flags="0x4"/>
      <component glyphName="comp0" x="256" y="1280" flags="0x4"/>
      <component glyphName="comp0" x="512" y="0" flags="0x4"/>
      <component glyphName="comp0" x="768" y="0" flags="0x4"/>
      <component glyphName="comp0" x="768" y="1280" flags="0x4"/>
      <component glyphName="comp0" x="512" y="1280" flags="0x4"/>
      <component glyphName="comp0" x="512" y="768" flags="0x4"/>
      <component glyphName="comp0" x="1024" y="1024" flags="0x4"/>
      <component glyphName="comp0" x="768" y="768" flags="0x4"/>
      <component glyphName="comp0" x="1024" y="256" flags="0x4"/>
      <component glyphName="comp0" x="256" y="512" flags="0x4"/>
      <component glyphName="comp0" x="1024" y="512" flags="0x4"/>
    </TTGlyph>
    <TTGlyph name="B.0" xMin="383" yMin="127" xMax="1153" yMax="1409">
      <component glyphName="compR" x="256" y="0" flags="0x4"/>
      <component glyphName="compR" x="256" y="256" flags="0x4"/>
      <component glyphName="compR" x="256" y="512" flags="0x4"/>
      <component glyphName="compR" x="256" y="768" flags="0x4"/>
      <component glyphName="compR" x="256" y="1024" flags="0x4"/>
      <component glyphName="compR" x="256" y="1280" flags="0x4"/>
      <component glyphName="compR" x="512" y="0" flags="0x4"/>
      <component glyphName="compR" x="768" y="0" flags="0x4"/>
      <component glyphName="compR" x="768" y="1280" flags="0x4"/>
      <component glyphName="compR" x="512" y="1280" flags="0x4"/>
      <component glyphName="compR" x="515" y="765" flags="0x4"/>
      <component glyphName="compR" x="1024" y="1024" flags="0x4"/>
      <component glyphName="compR" x="768" y="768" flags="0x4"/>
      <component glyphName="compR" x="1024" y="512" flags="0x4"/>
      <component glyphName="compR" x="1024" y="256" flags="0x4"/>
    </TTGlyph>
    <TTGlyph name="B.1" xMin="383" yMin="127" xMax="1153" yMax="1409">
      <component glyphName="compO" x="256" y="0" flags="0x4"/>
      <component glyphName="compO" x="256" y="256" flags="0x4"/>
      <component glyphName="compO" x="256" y="512" flags="0x4"/>
      <component glyphName="compO" x="256" y="768" flags="0x4"/>
      <component glyphName="compO" x="256" y="1024" flags="0x4"/>
      <component glyphName="compO" x="256" y="1280" flags="0x4"/>
      <component glyphName="compO" x="512" y="0" flags="0x4"/>
      <component glyphName="compO" x="768" y="0" flags="0x4"/>
      <component glyphName="compO" x="768" y="1280" flags="0x4"/>
      <component glyphName="compO" x="512" y="1280" flags="0x4"/>
      <component glyphName="compO" x="515" y="765" flags="0x4"/>
      <component glyphName="compO" x="1024" y="1024" flags="0x4"/>
      <component glyphName="compO" x="768" y="768" flags="0x4"/>
      <component glyphName="compO" x="1024" y="512" flags="0x4"/>
      <component glyphName="compO" x="1024" y="256" flags="0x4"/>
    </TTGlyph>
    <TTGlyph name="B.2" xMin="383" yMin="127" xMax="1153" yMax="1409">
      <component glyphName="compY" x="256" y="0" flags="0x4"/>
      <component glyphName="compY" x="256" y="256" flags="0x4"/>
      <component glyphName="compY" x="256" y="512" flags="0x4"/>
      <component glyphName="compY" x="256" y="768" flags="0x4"/>
      <component glyphName="compY" x="256" y="1024" flags="0x4"/>
      <component glyphName="compY" x="256" y="1280" flags="0x4"/>
      <component glyphName="compY" x="512" y="0" flags="0x4"/>
      <component glyphName="compY" x="768" y="0" flags="0x4"/>
      <component glyphName="compY" x="768" y="1280" flags="0x4"/>
      <component glyphName="compY" x="512" y="1280" flags="0x4"/>
      <component glyphName="compY" x="515" y="765" flags="0x4"/>
      <component glyphName="compY" x="1024" y="1024" flags="0x4"/>
      <component glyphName="compY" x="768" y="768" flags="0x4"/>
      <component glyphName="compY" x="1024" y="512" flags="0x4"/>
      <component glyphName="compY" x="1024" y="256" flags="0x4"/>
    </TTGlyph>
    <TTGlyph name="B.3" xMin="383" yMin="127" xMax="1153" yMax="1409">
      <component glyphName="compG" x="256" y="0" flags="0x4"/>
      <component glyphName="compG" x="256" y="256" flags="0x4"/>
      <component glyphName="compG" x="256" y="512" flags="0x4"/>
      <component glyphName="compG" x="256" y="768" flags="0x4"/>
      <component glyphName="compG" x="256" y="1024" flags="0x4"/>
      <component glyphName="compG" x="256" y="1280" flags="0x4"/>
      <component glyphName="compG" x="512" y="0" flags="0x4"/>
      <component glyphName="compG" x="768" y="0" flags="0x4"/>
      <component glyphName="compG" x="768" y="1280" flags="0x4"/>
      <component glyphName="compG" x="512" y="1280" flags="0x4"/>
      <component glyphName="compG" x="515" y="765" flags="0x4"/>
      <component glyphName="compG" x="1024" y="1024" flags="0x4"/>
      <component glyphName="compG" x="768" y="768" flags="0x4"/>
      <component glyphName="compG" x="1024" y="512" flags="0x4"/>
      <component glyphName="compG" x="1024" y="256" flags="0x4"/>
    </TTGlyph>
    <TTGlyph name="B.4" xMin="383" yMin="127" xMax="1153" yMax="1409">
      <component glyphName="compB" x="256" y="0" flags="0x4"/>
      <component glyphName="compB" x="256" y="256" flags="0x4"/>
      <component glyphName="compB" x="256" y="512" flags="0x4"/>
      <component glyphName="compB" x="256" y="768" flags="0x4"/>
      <component glyphName="compB" x="256" y="1024" flags="0x4"/>
      <component glyphName="compB" x="256" y="1280" flags="0x4"/>
      <component glyphName="compB" x="512" y="0" flags="0x4"/>
      <component glyphName="compB" x="768" y="0" flags="0x4"/>
      <component glyphName="compB" x="768" y="1280" flags="0x4"/>
      <component glyphName="compB" x="512" y="1280" flags="0x4"/>
      <component glyphName="compB" x="515" y="765" flags="0x4"/>
      <component glyphName="compB" x="1024" y="1024" flags="0x4"/>
      <component glyphName="compB" x="768" y="768" flags="0x4"/>
      <component glyphName="compB" x="1024" y="512" flags="0x4"/>
      <component glyphName="compB" x="1024" y="256" flags="0x4"/>
    </TTGlyph>
    <TTGlyph name="B.5" xMin="383" yMin="127" xMax="1153" yMax="1409">
      <component glyphName="compI" x="256" y="0" flags="0x4"/>
      <component glyphName="compI" x="256" y="256" flags="0x4"/>
      <component glyphName="compI" x="256" y="512" flags="0x4"/>
      <component glyphName="compI" x="256" y="768" flags="0x4"/>
      <component glyphName="compI" x="256" y="1024" flags="0x4"/>
      <component glyphName="compI" x="256" y="1280" flags="0x4"/>
      <component glyphName="compI" x="512" y="0" flags="0x4"/>
      <component glyphName="compI" x="768" y="0" flags="0x4"/>
      <component glyphName="compI" x="768" y="1280" flags="0x4"/>
      <component glyphName="compI" x="512" y="1280" flags="0x4"/>
      <component glyphName="compI" x="515" y="765" flags="0x4"/>
      <component glyphName="compI" x="1024" y="1024" flags="0x4"/>
      <component glyphName="compI" x="768" y="768" flags="0x4"/>
      <component glyphName="compI" x="1024" y="512" flags="0x4"/>
      <component glyphName="compI" x="1024" y="256" flags="0x4"/>
    </TTGlyph>
    <TTGlyph name="B.6" xMin="383" yMin="127" xMax="1153" yMax="1409">
      <component glyphName="compV" x="256" y="0" flags="0x4"/>
      <component glyphName="compV" x="256" y="256" flags="0x4"/>
      <component glyphName="compV" x="256" y="512" flags="0x4"/>
      <component glyphName="compV" x="256" y="768" flags="0x4"/>
      <component glyphName="compV" x="256" y="1024" flags="0x4"/>
      <component glyphName="compV" x="256" y="1280" flags="0x4"/>
      <component glyphName="compV" x="512" y="0" flags="0x4"/>
      <component glyphName="compV" x="768" y="0" flags="0x4"/>
      <component glyphName="compV" x="768" y="1280" flags="0x4"/>
      <component glyphName="compV" x="512" y="1280" flags="0x4"/>
      <component glyphName="compV" x="515" y="765" flags="0x4"/>
      <component glyphName="compV" x="1024" y="1024" flags="0x4"/>
      <component glyphName="compV" x="768" y="768" flags="0x4"/>
      <component glyphName="compV" x="1024" y="512" flags="0x4"/>
      <component glyphName="compV" x="1024" y="256" flags="0x4"/>
    </TTGlyph>
    <TTGlyph name="C" xMin="256" yMin="0" xMax="1280" yMax="1536">
      <component glyphName="comp0" x="256" y="0" flags="0x4"/>
      <component glyphName="comp0" x="256" y="512" flags="0x4"/>
      <component glyphName="comp0" x="256" y="768" flags="0x4"/>
      <component glyphName="comp0" x="256" y="1024" flags="0x4"/>
      <component glyphName="comp0" x="256" y="1280" flags="0x4"/>
      <component glyphName="comp0" x="512" y="0" flags="0x4"/>
      <component glyphName="comp0" x="768" y="0" flags="0x4"/>
      <component glyphName="comp0" x="768" y="1280" flags="0x4"/>
      <component glyphName="comp0" x="512" y="1280" flags="0x4"/>
      <component glyphName="comp0" x="1024" y="0" flags="0x4"/>
      <component glyphName="comp0" x="1024" y="1280" flags="0x4"/>
      <component glyphName="comp0" x="259" y="256" flags="0x4"/>
    </TTGlyph>
    <TTGlyph name="C.0" xMin="383" yMin="127" xMax="1153" yMax="1409">
      <component glyphName="compR" x="256" y="0" flags="0x4"/>
      <component glyphName="compR" x="256" y="256" flags="0x4"/>
      <component glyphName="compR" x="256" y="512" flags="0x4"/>
      <component glyphName="compR" x="256" y="768" flags="0x4"/>
      <component glyphName="compR" x="256" y="1024" flags="0x4"/>
      <component glyphName="compR" x="256" y="1280" flags="0x4"/>
      <component glyphName="compR" x="512" y="0" flags="0x4"/>
      <component glyphName="compR" x="768" y="0" flags="0x4"/>
      <component glyphName="compR" x="768" y="1280" flags="0x4"/>
      <component glyphName="compR" x="512" y="1280" flags="0x4"/>
      <component glyphName="compR" x="1024" y="0" flags="0x4"/>
      <component glyphName="compR" x="1024" y="1280" flags="0x4"/>
    </TTGlyph>
    <TTGlyph name="C.1" xMin="383" yMin="127" xMax="1153" yMax="1409">
      <component glyphName="compO" x="256" y="0" flags="0x4"/>
      <component glyphName="compO" x="256" y="256" flags="0x4"/>
      <component glyphName="compO" x="256" y="512" flags="0x4"/>
      <component glyphName="compO" x="256" y="768" flags="0x4"/>
      <component glyphName="compO" x="256" y="1024" flags="0x4"/>
      <component glyphName="compO" x="256" y="1280" flags="0x4"/>
      <component glyphName="compO" x="512" y="0" flags="0x4"/>
      <component glyphName="compO" x="768" y="0" flags="0x4"/>
      <component glyphName="compO" x="768" y="1280" flags="0x4"/>
      <component glyphName="compO" x="512" y="1280" flags="0x4"/>
      <component glyphName="compO" x="1024" y="0" flags="0x4"/>
      <component glyphName="compO" x="1024" y="1280" flags="0x4"/>
    </TTGlyph>
    <TTGlyph name="C.2" xMin="383" yMin="127" xMax="1153" yMax="1409">
      <component glyphName="compY" x="256" y="0" flags="0x4"/>
      <component glyphName="compY" x="256" y="256" flags="0x4"/>
      <component glyphName="compY" x="256" y="512" flags="0x4"/>
      <component glyphName="compY" x="256" y="768" flags="0x4"/>
      <component glyphName="compY" x="256" y="1024" flags="0x4"/>
      <component glyphName="compY" x="256" y="1280" flags="0x4"/>
      <component glyphName="compY" x="512" y="0" flags="0x4"/>
      <component glyphName="compY" x="768" y="0" flags="0x4"/>
      <component glyphName="compY" x="768" y="1280" flags="0x4"/>
      <component glyphName="compY" x="512" y="1280" flags="0x4"/>
      <component glyphName="compY" x="1024" y="0" flags="0x4"/>
      <component glyphName="compY" x="1024" y="1280" flags="0x4"/>
    </TTGlyph>
    <TTGlyph name="C.3" xMin="383" yMin="127" xMax="1153" yMax="1409">
      <component glyphName="compG" x="256" y="0" flags="0x4"/>
      <component glyphName="compG" x="256" y="256" flags="0x4"/>
      <component glyphName="compG" x="256" y="512" flags="0x4"/>
      <component glyphName="compG" x="256" y="768" flags="0x4"/>
      <component glyphName="compG" x="256" y="1024" flags="0x4"/>
      <component glyphName="compG" x="256" y="1280" flags="0x4"/>
      <component glyphName="compG" x="512" y="0" flags="0x4"/>
      <component glyphName="compG" x="768" y="0" flags="0x4"/>
      <component glyphName="compG" x="768" y="1280" flags="0x4"/>
      <component glyphName="compG" x="512" y="1280" flags="0x4"/>
      <component glyphName="compG" x="1024" y="0" flags="0x4"/>
      <component glyphName="compG" x="1024" y="1280" flags="0x4"/>
    </TTGlyph>
    <TTGlyph name="C.4" xMin="383" yMin="127" xMax="1153" yMax="1409">
      <component glyphName="compB" x="256" y="0" flags="0x4"/>
      <component glyphName="compB" x="256" y="256" flags="0x4"/>
      <component glyphName="compB" x="256" y="512" flags="0x4"/>
      <component glyphName="compB" x="256" y="768" flags="0x4"/>
      <component glyphName="compB" x="256" y="1024" flags="0x4"/>
      <component glyphName="compB" x="256" y="1280" flags="0x4"/>
      <component glyphName="compB" x="512" y="0" flags="0x4"/>
      <component glyphName="compB" x="768" y="0" flags="0x4"/>
      <component glyphName="compB" x="768" y="1280" flags="0x4"/>
      <component glyphName="compB" x="512" y="1280" flags="0x4"/>
      <component glyphName="compB" x="1024" y="0" flags="0x4"/>
      <component glyphName="compB" x="1024" y="1280" flags="0x4"/>
    </TTGlyph>
    <TTGlyph name="C.5" xMin="383" yMin="127" xMax="1153" yMax="1409">
      <component glyphName="compI" x="256" y="0" flags="0x4"/>
      <component glyphName="compI" x="256" y="256" flags="0x4"/>
      <component glyphName="compI" x="256" y="512" flags="0x4"/>
      <component glyphName="compI" x="256" y="768" flags="0x4"/>
      <component glyphName="compI" x="256" y="1024" flags="0x4"/>
      <component glyphName="compI" x="256" y="1280" flags="0x4"/>
      <component glyphName="compI" x="512" y="0" flags="0x4"/>
      <component glyphName="compI" x="768" y="0" flags="0x4"/>
      <component glyphName="compI" x="768" y="1280" flags="0x4"/>
      <component glyphName="compI" x="512" y="1280" flags="0x4"/>
      <component glyphName="compI" x="1024" y="0" flags="0x4"/>
      <component glyphName="compI" x="1024" y="1280" flags="0x4"/>
    </TTGlyph>
    <TTGlyph name="C.6" xMin="383" yMin="127" xMax="1153" yMax="1409">
      <component glyphName="compV" x="256" y="0" flags="0x4"/>
      <component glyphName="compV" x="256" y="256" flags="0x4"/>
      <component glyphName="compV" x="256" y="512" flags="0x4"/>
      <component glyphName="compV" x="256" y="768" flags="0x4"/>
      <component glyphName="compV" x="256" y="1024" flags="0x4"/>
      <component glyphName="compV" x="256" y="1280" flags="0x4"/>
      <component glyphName="compV" x="512" y="0" flags="0x4"/>
      <component glyphName="compV" x="768" y="0" flags="0x4"/>
      <component glyphName="compV" x="768" y="1280" flags="0x4"/>
      <component glyphName="compV" x="512" y="1280" flags="0x4"/>
      <component glyphName="compV" x="1024" y="0" flags="0x4"/>
      <component glyphName="compV" x="1024" y="1280" flags="0x4"/>
    </TTGlyph>
    <TTGlyph name="D" xMin="256" yMin="0" xMax="1280" yMax="1536">
      <component glyphName="comp0" x="256" y="0" flags="0x4"/>
      <component glyphName="comp0" x="256" y="256" flags="0x4"/>
      <component glyphName="comp0" x="256" y="768" flags="0x4"/>
      <component glyphName="comp0" x="256" y="1024" flags="0x4"/>
      <component glyphName="comp0" x="256" y="1280" flags="0x4"/>
      <component glyphName="comp0" x="512" y="0" flags="0x4"/>
      <component glyphName="comp0" x="768" y="0" flags="0x4"/>
      <component glyphName="comp0" x="768" y="1280" flags="0x4"/>
      <component glyphName="comp0" x="512" y="1280" flags="0x4"/>
      <component glyphName="comp0" x="1024" y="768" flags="0x4"/>
      <component glyphName="comp0" x="1024" y="1024" flags="0x4"/>
      <component glyphName="comp0" x="1024" y="256" flags="0x4"/>
      <component glyphName="comp0" x="256" y="512" flags="0x4"/>
      <component glyphName="comp0" x="1024" y="512" flags="0x4"/>
    </TTGlyph>
    <TTGlyph name="D.0" xMin="383" yMin="127" xMax="1153" yMax="1409">
      <component glyphName="compR" x="256" y="0" flags="0x4"/>
      <component glyphName="compR" x="256" y="256" flags="0x4"/>
      <component glyphName="compR" x="256" y="512" flags="0x4"/>
      <component glyphName="compR" x="256" y="768" flags="0x4"/>
      <component glyphName="compR" x="256" y="1024" flags="0x4"/>
      <component glyphName="compR" x="256" y="1280" flags="0x4"/>
      <component glyphName="compR" x="512" y="0" flags="0x4"/>
      <component glyphName="compR" x="768" y="0" flags="0x4"/>
      <component glyphName="compR" x="768" y="1280" flags="0x4"/>
      <component glyphName="compR" x="512" y="1280" flags="0x4"/>
      <component glyphName="compR" x="1024" y="768" flags="0x4"/>
      <component glyphName="compR" x="1024" y="1024" flags="0x4"/>
      <component glyphName="compR" x="1024" y="512" flags="0x4"/>
      <component glyphName="compR" x="1024" y="256" flags="0x4"/>
    </TTGlyph>
    <TTGlyph name="D.1" xMin="383" yMin="127" xMax="1153" yMax="1409">
      <component glyphName="compO" x="256" y="0" flags="0x4"/>
      <component glyphName="compO" x="256" y="256" flags="0x4"/>
      <component glyphName="compO" x="256" y="512" flags="0x4"/>
      <component glyphName="compO" x="256" y="768" flags="0x4"/>
      <component glyphName="compO" x="256" y="1024" flags="0x4"/>
      <component glyphName="compO" x="256" y="1280" flags="0x4"/>
      <component glyphName="compO" x="512" y="0" flags="0x4"/>
      <component glyphName="compO" x="768" y="0" flags="0x4"/>
      <component glyphName="compO" x="768" y="1280" flags="0x4"/>
      <component glyphName="compO" x="512" y="1280" flags="0x4"/>
      <component glyphName="compO" x="1024" y="768" flags="0x4"/>
      <component glyphName="compO" x="1024" y="1024" flags="0x4"/>
      <component glyphName="compO" x="1024" y="512" flags="0x4"/>
      <component glyphName="compO" x="1024" y="256" flags="0x4"/>
    </TTGlyph>
    <TTGlyph name="D.2" xMin="383" yMin="127" xMax="1153" yMax="1409">
      <component glyphName="compY" x="256" y="0" flags="0x4"/>
      <component glyphName="compY" x="256" y="256" flags="0x4"/>
      <component glyphName="compY" x="256" y="512" flags="0x4"/>
      <component glyphName="compY" x="256" y="768" flags="0x4"/>
      <component glyphName="compY" x="256" y="1024" flags="0x4"/>
      <component glyphName="compY" x="256" y="1280" flags="0x4"/>
      <component glyphName="compY" x="512" y="0" flags="0x4"/>
      <component glyphName="compY" x="768" y="0" flags="0x4"/>
      <component glyphName="compY" x="768" y="1280" flags="0x4"/>
      <component glyphName="compY" x="512" y="1280" flags="0x4"/>
      <component glyphName="compY" x="1024" y="768" flags="0x4"/>
      <component glyphName="compY" x="1024" y="1024" flags="0x4"/>
      <component glyphName="compY" x="1024" y="512" flags="0x4"/>
      <component glyphName="compY" x="1024" y="256" flags="0x4"/>
    </TTGlyph>
    <TTGlyph name="D.3" xMin="383" yMin="127" xMax="1153" yMax="1409">
      <component glyphName="compG" x="256" y="0" flags="0x4"/>
      <component glyphName="compG" x="256" y="256" flags="0x4"/>
      <component glyphName="compG" x="256" y="512" flags="0x4"/>
      <component glyphName="compG" x="256" y="768" flags="0x4"/>
      <component glyphName="compG" x="256" y="1024" flags="0x4"/>
      <component glyphName="compG" x="256" y="1280" flags="0x4"/>
      <component glyphName="compG" x="512" y="0" flags="0x4"/>
      <component glyphName="compG" x="768" y="0" flags="0x4"/>
      <component glyphName="compG" x="768" y="1280" flags="0x4"/>
      <component glyphName="compG" x="512" y="1280" flags="0x4"/>
      <component glyphName="compG" x="1024" y="768" flags="0x4"/>
      <component glyphName="compG" x="1024" y="1024" flags="0x4"/>
      <component glyphName="compG" x="1024" y="512" flags="0x4"/>
      <component glyphName="compG" x="1024" y="256" flags="0x4"/>
    </TTGlyph>
    <TTGlyph name="D.4" xMin="383" yMin="127" xMax="1153" yMax="1409">
      <component glyphName="compB" x="256" y="0" flags="0x4"/>
      <component glyphName="compB" x="256" y="256" flags="0x4"/>
      <component glyphName="compB" x="256" y="512" flags="0x4"/>
      <component glyphName="compB" x="256" y="768" flags="0x4"/>
      <component glyphName="compB" x="256" y="1024" flags="0x4"/>
      <component glyphName="compB" x="256" y="1280" flags="0x4"/>
      <component glyphName="compB" x="512" y="0" flags="0x4"/>
      <component glyphName="compB" x="768" y="0" flags="0x4"/>
      <component glyphName="compB" x="768" y="1280" flags="0x4"/>
      <component glyphName="compB" x="512" y="1280" flags="0x4"/>
      <component glyphName="compB" x="1024" y="768" flags="0x4"/>
      <component glyphName="compB" x="1024" y="1024" flags="0x4"/>
      <component glyphName="compB" x="1024" y="512" flags="0x4"/>
      <component glyphName="compB" x="1024" y="256" flags="0x4"/>
    </TTGlyph>
    <TTGlyph name="D.5" xMin="383" yMin="127" xMax="1153" yMax="1409">
      <component glyphName="compI" x="256" y="0" flags="0x4"/>
      <component glyphName="compI" x="256" y="256" flags="0x4"/>
      <component glyphName="compI" x="256" y="512" flags="0x4"/>
      <component glyphName="compI" x="256" y="768" flags="0x4"/>
      <component glyphName="compI" x="256" y="1024" flags="0x4"/>
      <component glyphName="compI" x="256" y="1280" flags="0x4"/>
      <component glyphName="compI" x="512" y="0" flags="0x4"/>
      <component glyphName="compI" x="768" y="0" flags="0x4"/>
      <component glyphName="compI" x="768" y="1280" flags="0x4"/>
      <component glyphName="compI" x="512" y="1280" flags="0x4"/>
      <component glyphName="compI" x="1024" y="768" flags="0x4"/>
      <component glyphName="compI" x="1024" y="1024" flags="0x4"/>
      <component glyphName="compI" x="1024" y="512" flags="0x4"/>
      <component glyphName="compI" x="1024" y="256" flags="0x4"/>
    </TTGlyph>
    <TTGlyph name="D.6" xMin="383" yMin="127" xMax="1153" yMax="1409">
      <component glyphName="compV" x="256" y="0" flags="0x4"/>
      <component glyphName="compV" x="256" y="256" flags="0x4"/>
      <component glyphName="compV" x="256" y="512" flags="0x4"/>
      <component glyphName="compV" x="256" y="768" flags="0x4"/>
      <component glyphName="compV" x="256" y="1024" flags="0x4"/>
      <component glyphName="compV" x="256" y="1280" flags="0x4"/>
      <component glyphName="compV" x="512" y="0" flags="0x4"/>
      <component glyphName="compV" x="768" y="0" flags="0x4"/>
      <component glyphName="compV" x="768" y="1280" flags="0x4"/>
      <component glyphName="compV" x="512" y="1280" flags="0x4"/>
      <component glyphName="compV" x="1024" y="768" flags="0x4"/>
      <component glyphName="compV" x="1024" y="1024" flags="0x4"/>
      <component glyphName="compV" x="1024" y="512" flags="0x4"/>
      <component glyphName="compV" x="1024" y="256" flags="0x4"/>
    </TTGlyph>
    <TTGlyph name="E" xMin="256" yMin="0" xMax="1280" yMax="1536">
      <component glyphName="comp0" x="256" y="0" flags="0x4"/>
      <component glyphName="comp0" x="256" y="512" flags="0x4"/>
      <component glyphName="comp0" x="256" y="768" flags="0x4"/>
      <component glyphName="comp0" x="256" y="1024" flags="0x4"/>
      <component glyphName="comp0" x="256" y="1280" flags="0x4"/>
      <component glyphName="comp0" x="512" y="0" flags="0x4"/>
      <component glyphName="comp0" x="768" y="0" flags="0x4"/>
      <component glyphName="comp0" x="768" y="1280" flags="0x4"/>
      <component glyphName="comp0" x="512" y="1280" flags="0x4"/>
      <component glyphName="comp0" x="768" y="768" flags="0x4"/>
      <component glyphName="comp0" x="1024" y="1280" flags="0x4"/>
      <component glyphName="comp0" x="1024" y="0" flags="0x4"/>
      <component glyphName="comp0" x="512" y="768" flags="0x4"/>
      <component glyphName="comp0" x="256" y="256" flags="0x4"/>
    </TTGlyph>
    <TTGlyph name="E.0" xMin="383" yMin="127" xMax="1153" yMax="1409">
      <component glyphName="compR" x="256" y="0" flags="0x4"/>
      <component glyphName="compR" x="256" y="256" flags="0x4"/>
      <component glyphName="compR" x="256" y="512" flags="0x4"/>
      <component glyphName="compR" x="256" y="768" flags="0x4"/>
      <component glyphName="compR" x="256" y="1024" flags="0x4"/>
      <component glyphName="compR" x="256" y="1280" flags="0x4"/>
      <component glyphName="compR" x="512" y="0" flags="0x4"/>
      <component glyphName="compR" x="768" y="0" flags="0x4"/>
      <component glyphName="compR" x="768" y="1280" flags="0x4"/>
      <component glyphName="compR" x="512" y="1280" flags="0x4"/>
      <component glyphName="compR" x="768" y="768" flags="0x4"/>
      <component glyphName="compR" x="1024" y="1280" flags="0x4"/>
      <component glyphName="compR" x="1024" y="0" flags="0x4"/>
      <component glyphName="compR" x="512" y="768" flags="0x4"/>
    </TTGlyph>
    <TTGlyph name="E.1" xMin="383" yMin="127" xMax="1153" yMax="1409">
      <component glyphName="compO" x="256" y="0" flags="0x4"/>
      <component glyphName="compO" x="256" y="256" flags="0x4"/>
      <component glyphName="compO" x="256" y="512" flags="0x4"/>
      <component glyphName="compO" x="256" y="768" flags="0x4"/>
      <component glyphName="compO" x="256" y="1024" flags="0x4"/>
      <component glyphName="compO" x="256" y="1280" flags="0x4"/>
      <component glyphName="compO" x="512" y="0" flags="0x4"/>
      <component glyphName="compO" x="768" y="0" flags="0x4"/>
      <component glyphName="compO" x="768" y="1280" flags="0x4"/>
      <component glyphName="compO" x="512" y="1280" flags="0x4"/>
      <component glyphName="compO" x="768" y="768" flags="0x4"/>
      <component glyphName="compO" x="1024" y="1280" flags="0x4"/>
      <component glyphName="compO" x="1024" y="0" flags="0x4"/>
      <component glyphName="compO" x="512" y="768" flags="0x4"/>
    </TTGlyph>
    <TTGlyph name="E.2" xMin="383" yMin="127" xMax="1153" yMax="1409">
      <component glyphName="compY" x="256" y="0" flags="0x4"/>
      <component glyphName="compY" x="256" y="256" flags="0x4"/>
      <component glyphName="compY" x="256" y="512" flags="0x4"/>
      <component glyphName="compY" x="256" y="768" flags="0x4"/>
      <component glyphName="compY" x="256" y="1024" flags="0x4"/>
      <component glyphName="compY" x="256" y="1280" flags="0x4"/>
      <component glyphName="compY" x="512" y="0" flags="0x4"/>
      <component glyphName="compY" x="768" y="0" flags="0x4"/>
      <component glyphName="compY" x="768" y="1280" flags="0x4"/>
      <component glyphName="compY" x="512" y="1280" flags="0x4"/>
      <component glyphName="compY" x="768" y="768" flags="0x4"/>
      <component glyphName="compY" x="1024" y="1280" flags="0x4"/>
      <component glyphName="compY" x="1024" y="0" flags="0x4"/>
      <component glyphName="compY" x="512" y="768" flags="0x4"/>
    </TTGlyph>
    <TTGlyph name="E.3" xMin="383" yMin="127" xMax="1153" yMax="1409">
      <component glyphName="compG" x="256" y="0" flags="0x4"/>
      <component glyphName="compG" x="256" y="256" flags="0x4"/>
      <component glyphName="compG" x="256" y="512" flags="0x4"/>
      <component glyphName="compG" x="256" y="768" flags="0x4"/>
      <component glyphName="compG" x="256" y="1024" flags="0x4"/>
      <component glyphName="compG" x="256" y="1280" flags="0x4"/>
      <component glyphName="compG" x="512" y="0" flags="0x4"/>
      <component glyphName="compG" x="768" y="0" flags="0x4"/>
      <component glyphName="compG" x="768" y="1280" flags="0x4"/>
      <component glyphName="compG" x="512" y="1280" flags="0x4"/>
      <component glyphName="compG" x="768" y="768" flags="0x4"/>
      <component glyphName="compG" x="1024" y="1280" flags="0x4"/>
      <component glyphName="compG" x="1024" y="0" flags="0x4"/>
      <component glyphName="compG" x="512" y="768" flags="0x4"/>
    </TTGlyph>
    <TTGlyph name="E.4" xMin="383" yMin="127" xMax="1153" yMax="1409">
      <component glyphName="compB" x="256" y="0" flags="0x4"/>
      <component glyphName="compB" x="256" y="256" flags="0x4"/>
      <component glyphName="compB" x="256" y="512" flags="0x4"/>
      <component glyphName="compB" x="256" y="768" flags="0x4"/>
      <component glyphName="compB" x="256" y="1024" flags="0x4"/>
      <component glyphName="compB" x="256" y="1280" flags="0x4"/>
      <component glyphName="compB" x="512" y="0" flags="0x4"/>
      <component glyphName="compB" x="768" y="0" flags="0x4"/>
      <component glyphName="compB" x="768" y="1280" flags="0x4"/>
      <component glyphName="compB" x="512" y="1280" flags="0x4"/>
      <component glyphName="compB" x="768" y="768" flags="0x4"/>
      <component glyphName="compB" x="1024" y="1280" flags="0x4"/>
      <component glyphName="compB" x="1024" y="0" flags="0x4"/>
      <component glyphName="compB" x="512" y="768" flags="0x4"/>
    </TTGlyph>
    <TTGlyph name="E.5" xMin="383" yMin="127" xMax="1153" yMax="1409">
      <component glyphName="compI" x="256" y="0" flags="0x4"/>
      <component glyphName="compI" x="256" y="256" flags="0x4"/>
      <component glyphName="compI" x="256" y="512" flags="0x4"/>
      <component glyphName="compI" x="256" y="768" flags="0x4"/>
      <component glyphName="compI" x="256" y="1024" flags="0x4"/>
      <component glyphName="compI" x="256" y="1280" flags="0x4"/>
      <component glyphName="compI" x="512" y="0" flags="0x4"/>
      <component glyphName="compI" x="768" y="0" flags="0x4"/>
      <component glyphName="compI" x="768" y="1280" flags="0x4"/>
      <component glyphName="compI" x="512" y="1280" flags="0x4"/>
      <component glyphName="compI" x="768" y="768" flags="0x4"/>
      <component glyphName="compI" x="1024" y="1280" flags="0x4"/>
      <component glyphName="compI" x="1024" y="0" flags="0x4"/>
      <component glyphName="compI" x="512" y="768" flags="0x4"/>
    </TTGlyph>
    <TTGlyph name="E.6" xMin="383" yMin="127" xMax="1153" yMax="1409">
      <component glyphName="compV" x="256" y="0" flags="0x4"/>
      <component glyphName="compV" x="256" y="256" flags="0x4"/>
      <component glyphName="compV" x="256" y="512" flags="0x4"/>
      <component glyphName="compV" x="256" y="768" flags="0x4"/>
      <component glyphName="compV" x="256" y="1024" flags="0x4"/>
      <component glyphName="compV" x="256" y="1280" flags="0x4"/>
      <component glyphName="compV" x="512" y="0" flags="0x4"/>
      <component glyphName="compV" x="768" y="0" flags="0x4"/>
      <component glyphName="compV" x="768" y="1280" flags="0x4"/>
      <component glyphName="compV" x="512" y="1280" flags="0x4"/>
      <component glyphName="compV" x="768" y="768" flags="0x4"/>
      <component glyphName="compV" x="1024" y="1280" flags="0x4"/>
      <component glyphName="compV" x="1024" y="0" flags="0x4"/>
      <component glyphName="compV" x="512" y="768" flags="0x4"/>
    </TTGlyph>
    <TTGlyph name="F" xMin="256" yMin="0" xMax="1280" yMax="1536">
      <component glyphName="comp0" x="256" y="0" flags="0x4"/>
      <component glyphName="comp0" x="256" y="512" flags="0x4"/>
      <component glyphName="comp0" x="256" y="768" flags="0x4"/>
      <component glyphName="comp0" x="256" y="1024" flags="0x4"/>
      <component glyphName="comp0" x="256" y="1280" flags="0x4"/>
      <component glyphName="comp0" x="768" y="1280" flags="0x4"/>
      <component glyphName="comp0" x="512" y="1280" flags="0x4"/>
      <component glyphName="comp0" x="768" y="768" flags="0x4"/>
      <component glyphName="comp0" x="1024" y="1280" flags="0x4"/>
      <component glyphName="comp0" x="512" y="768" flags="0x4"/>
      <component glyphName="comp0" x="256" y="256" flags="0x4"/>
    </TTGlyph>
    <TTGlyph name="F.0" xMin="383" yMin="127" xMax="1153" yMax="1409">
      <component glyphName="compR" x="256" y="0" flags="0x4"/>
      <component glyphName="compR" x="256" y="256" flags="0x4"/>
      <component glyphName="compR" x="256" y="512" flags="0x4"/>
      <component glyphName="compR" x="256" y="768" flags="0x4"/>
      <component glyphName="compR" x="256" y="1024" flags="0x4"/>
      <component glyphName="compR" x="256" y="1280" flags="0x4"/>
      <component glyphName="compR" x="768" y="1280" flags="0x4"/>
      <component glyphName="compR" x="512" y="1280" flags="0x4"/>
      <component glyphName="compR" x="768" y="768" flags="0x4"/>
      <component glyphName="compR" x="1024" y="1280" flags="0x4"/>
      <component glyphName="compR" x="512" y="768" flags="0x4"/>
    </TTGlyph>
    <TTGlyph name="F.1" xMin="383" yMin="127" xMax="1153" yMax="1409">
      <component glyphName="compO" x="256" y="0" flags="0x4"/>
      <component glyphName="compO" x="256" y="256" flags="0x4"/>
      <component glyphName="compO" x="256" y="512" flags="0x4"/>
      <component glyphName="compO" x="256" y="768" flags="0x4"/>
      <component glyphName="compO" x="256" y="1024" flags="0x4"/>
      <component glyphName="compO" x="256" y="1280" flags="0x4"/>
      <component glyphName="compO" x="768" y="1280" flags="0x4"/>
      <component glyphName="compO" x="512" y="1280" flags="0x4"/>
      <component glyphName="compO" x="768" y="768" flags="0x4"/>
      <component glyphName="compO" x="1024" y="1280" flags="0x4"/>
      <component glyphName="compO" x="512" y="768" flags="0x4"/>
    </TTGlyph>
    <TTGlyph name="F.2" xMin="383" yMin="127" xMax="1153" yMax="1409">
      <component glyphName="compY" x="256" y="0" flags="0x4"/>
      <component glyphName="compY" x="256" y="256" flags="0x4"/>
      <component glyphName="compY" x="256" y="512" flags="0x4"/>
      <component glyphName="compY" x="256" y="768" flags="0x4"/>
      <component glyphName="compY" x="256" y="1024" flags="0x4"/>
      <component glyphName="compY" x="256" y="1280" flags="0x4"/>
      <component glyphName="compY" x="768" y="1280" flags="0x4"/>
      <component glyphName="compY" x="512" y="1280" flags="0x4"/>
      <component glyphName="compY" x="768" y="768" flags="0x4"/>
      <component glyphName="compY" x="1024" y="1280" flags="0x4"/>
      <component glyphName="compY" x="512" y="768" flags="0x4"/>
    </TTGlyph>
    <TTGlyph name="F.3" xMin="383" yMin="127" xMax="1153" yMax="1409">
      <component glyphName="compG" x="256" y="0" flags="0x4"/>
      <component glyphName="compG" x="256" y="256" flags="0x4"/>
      <component glyphName="compG" x="256" y="512" flags="0x4"/>
      <component glyphName="compG" x="256" y="768" flags="0x4"/>
      <component glyphName="compG" x="256" y="1024" flags="0x4"/>
      <component glyphName="compG" x="256" y="1280" flags="0x4"/>
      <component glyphName="compG" x="768" y="1280" flags="0x4"/>
      <component glyphName="compG" x="512" y="1280" flags="0x4"/>
      <component glyphName="compG" x="768" y="768" flags="0x4"/>
      <component glyphName="compG" x="1024" y="1280" flags="0x4"/>
      <component glyphName="compG" x="512" y="768" flags="0x4"/>
    </TTGlyph>
    <TTGlyph name="F.4" xMin="383" yMin="127" xMax="1153" yMax="1409">
      <component glyphName="compB" x="256" y="0" flags="0x4"/>
      <component glyphName="compB" x="256" y="256" flags="0x4"/>
      <component glyphName="compB" x="256" y="512" flags="0x4"/>
      <component glyphName="compB" x="256" y="768" flags="0x4"/>
      <component glyphName="compB" x="256" y="1024" flags="0x4"/>
      <component glyphName="compB" x="256" y="1280" flags="0x4"/>
      <component glyphName="compB" x="768" y="1280" flags="0x4"/>
      <component glyphName="compB" x="512" y="1280" flags="0x4"/>
      <component glyphName="compB" x="768" y="768" flags="0x4"/>
      <component glyphName="compB" x="1024" y="1280" flags="0x4"/>
      <component glyphName="compB" x="512" y="768" flags="0x4"/>
    </TTGlyph>
    <TTGlyph name="F.5" xMin="383" yMin="127" xMax="1153" yMax="1409">
      <component glyphName="compI" x="256" y="0" flags="0x4"/>
      <component glyphName="compI" x="256" y="256" flags="0x4"/>
      <component glyphName="compI" x="256" y="512" flags="0x4"/>
      <component glyphName="compI" x="256" y="768" flags="0x4"/>
      <component glyphName="compI" x="256" y="1024" flags="0x4"/>
      <component glyphName="compI" x="256" y="1280" flags="0x4"/>
      <component glyphName="compI" x="768" y="1280" flags="0x4"/>
      <component glyphName="compI" x="512" y="1280" flags="0x4"/>
      <component glyphName="compI" x="768" y="768" flags="0x4"/>
      <component glyphName="compI" x="1024" y="1280" flags="0x4"/>
      <component glyphName="compI" x="512" y="768" flags="0x4"/>
    </TTGlyph>
    <TTGlyph name="F.6" xMin="383" yMin="127" xMax="1153" yMax="1409">
      <component glyphName="compV" x="256" y="0" flags="0x4"/>
      <component glyphName="compV" x="256" y="256" flags="0x4"/>
      <component glyphName="compV" x="256" y="512" flags="0x4"/>
      <component glyphName="compV" x="256" y="768" flags="0x4"/>
      <component glyphName="compV" x="256" y="1024" flags="0x4"/>
      <component glyphName="compV" x="256" y="1280" flags="0x4"/>
      <component glyphName="compV" x="768" y="1280" flags="0x4"/>
      <component glyphName="compV" x="512" y="1280" flags="0x4"/>
      <component glyphName="compV" x="768" y="768" flags="0x4"/>
      <component glyphName="compV" x="1024" y="1280" flags="0x4"/>
      <component glyphName="compV" x="512" y="768" flags="0x4"/>
    </TTGlyph>
    <TTGlyph name="G" xMin="256" yMin="-4" xMax="1280" yMax="1536">
      <component glyphName="comp0" x="256" y="0" flags="0x4"/>
      <component glyphName="comp0" x="256" y="256" flags="0x4"/>
      <component glyphName="comp0" x="256" y="512" flags="0x4"/>
      <component glyphName="comp0" x="256" y="768" flags="0x4"/>
      <component glyphName="comp0" x="256" y="1024" flags="0x4"/>
      <component glyphName="comp0" x="256" y="1280" flags="0x4"/>
      <component glyphName="comp0" x="512" y="0" flags="0x4"/>
      <component glyphName="comp0" x="768" y="0" flags="0x4"/>
      <component glyphName="comp0" x="1024" y="-4" flags="0x4"/>
      <component glyphName="comp0" x="1024" y="1280" flags="0x4"/>
      <component glyphName="comp0" x="768" y="1280" flags="0x4"/>
      <component glyphName="comp0" x="512" y="1280" flags="0x4"/>
      <component glyphName="comp0" x="1024" y="512" flags="0x4"/>
      <component glyphName="comp0" x="1024" y="256" flags="0x4"/>
    </TTGlyph>
    <TTGlyph name="G.0" xMin="383" yMin="123" xMax="1153" yMax="1409">
      <component glyphName="compR" x="256" y="0" flags="0x4"/>
      <component glyphName="compR" x="256" y="256" flags="0x4"/>
      <component glyphName="compR" x="256" y="512" flags="0x4"/>
      <component glyphName="compR" x="256" y="768" flags="0x4"/>
      <component glyphName="compR" x="256" y="1024" flags="0x4"/>
      <component glyphName="compR" x="256" y="1280" flags="0x4"/>
      <component glyphName="compR" x="512" y="0" flags="0x4"/>
      <component glyphName="compR" x="768" y="0" flags="0x4"/>
      <component glyphName="compR" x="1024" y="-4" flags="0x4"/>
      <component glyphName="compR" x="1024" y="1280" flags="0x4"/>
      <component glyphName="compR" x="768" y="1280" flags="0x4"/>
      <component glyphName="compR" x="512" y="1280" flags="0x4"/>
      <component glyphName="compR" x="1024" y="512" flags="0x4"/>
      <component glyphName="compR" x="1024" y="256" flags="0x4"/>
    </TTGlyph>
    <TTGlyph name="G.1" xMin="383" yMin="123" xMax="1153" yMax="1409">
      <component glyphName="compO" x="256" y="0" flags="0x4"/>
      <component glyphName="compO" x="256" y="256" flags="0x4"/>
      <component glyphName="compO" x="256" y="512" flags="0x4"/>
      <component glyphName="compO" x="256" y="768" flags="0x4"/>
      <component glyphName="compO" x="256" y="1024" flags="0x4"/>
      <component glyphName="compO" x="256" y="1280" flags="0x4"/>
      <component glyphName="compO" x="512" y="0" flags="0x4"/>
      <component glyphName="compO" x="768" y="0" flags="0x4"/>
      <component glyphName="compO" x="1024" y="-4" flags="0x4"/>
      <component glyphName="compO" x="1024" y="1280" flags="0x4"/>
      <component glyphName="compO" x="768" y="1280" flags="0x4"/>
      <component glyphName="compO" x="512" y="1280" flags="0x4"/>
      <component glyphName="compO" x="1024" y="512" flags="0x4"/>
      <component glyphName="compO" x="1024" y="256" flags="0x4"/>
    </TTGlyph>
    <TTGlyph name="G.2" xMin="383" yMin="123" xMax="1153" yMax="1409">
      <component glyphName="compY" x="256" y="0" flags="0x4"/>
      <component glyphName="compY" x="256" y="256" flags="0x4"/>
      <component glyphName="compY" x="256" y="512" flags="0x4"/>
      <component glyphName="compY" x="256" y="768" flags="0x4"/>
      <component glyphName="compY" x="256" y="1024" flags="0x4"/>
      <component glyphName="compY" x="256" y="1280" flags="0x4"/>
      <component glyphName="compY" x="512" y="0" flags="0x4"/>
      <component glyphName="compY" x="768" y="0" flags="0x4"/>
      <component glyphName="compY" x="1024" y="-4" flags="0x4"/>
      <component glyphName="compY" x="1024" y="1280" flags="0x4"/>
      <component glyphName="compY" x="768" y="1280" flags="0x4"/>
      <component glyphName="compY" x="512" y="1280" flags="0x4"/>
      <component glyphName="compY" x="1024" y="512" flags="0x4"/>
      <component glyphName="compY" x="1024" y="256" flags="0x4"/>
    </TTGlyph>
    <TTGlyph name="G.3" xMin="383" yMin="123" xMax="1153" yMax="1409">
      <component glyphName="compG" x="256" y="0" flags="0x4"/>
      <component glyphName="compG" x="256" y="256" flags="0x4"/>
      <component glyphName="compG" x="256" y="512" flags="0x4"/>
      <component glyphName="compG" x="256" y="768" flags="0x4"/>
      <component glyphName="compG" x="256" y="1024" flags="0x4"/>
      <component glyphName="compG" x="256" y="1280" flags="0x4"/>
      <component glyphName="compG" x="512" y="0" flags="0x4"/>
      <component glyphName="compG" x="768" y="0" flags="0x4"/>
      <component glyphName="compG" x="1024" y="-4" flags="0x4"/>
      <component glyphName="compG" x="1024" y="1280" flags="0x4"/>
      <component glyphName="compG" x="768" y="1280" flags="0x4"/>
      <component glyphName="compG" x="512" y="1280" flags="0x4"/>
      <component glyphName="compG" x="1024" y="512" flags="0x4"/>
      <component glyphName="compG" x="1024" y="256" flags="0x4"/>
    </TTGlyph>
    <TTGlyph name="G.4" xMin="383" yMin="123" xMax="1153" yMax="1409">
      <component glyphName="compB" x="256" y="0" flags="0x4"/>
      <component glyphName="compB" x="256" y="256" flags="0x4"/>
      <component glyphName="compB" x="256" y="512" flags="0x4"/>
      <component glyphName="compB" x="256" y="768" flags="0x4"/>
      <component glyphName="compB" x="256" y="1024" flags="0x4"/>
      <component glyphName="compB" x="256" y="1280" flags="0x4"/>
      <component glyphName="compB" x="512" y="0" flags="0x4"/>
      <component glyphName="compB" x="768" y="0" flags="0x4"/>
      <component glyphName="compB" x="1024" y="-4" flags="0x4"/>
      <component glyphName="compB" x="1024" y="1280" flags="0x4"/>
      <component glyphName="compB" x="768" y="1280" flags="0x4"/>
      <component glyphName="compB" x="512" y="1280" flags="0x4"/>
      <component glyphName="compB" x="1024" y="512" flags="0x4"/>
      <component glyphName="compB" x="1024" y="256" flags="0x4"/>
    </TTGlyph>
    <TTGlyph name="G.5" xMin="383" yMin="123" xMax="1153" yMax="1409">
      <component glyphName="compI" x="256" y="0" flags="0x4"/>
      <component glyphName="compI" x="256" y="256" flags="0x4"/>
      <component glyphName="compI" x="256" y="512" flags="0x4"/>
      <component glyphName="compI" x="256" y="768" flags="0x4"/>
      <component glyphName="compI" x="256" y="1024" flags="0x4"/>
      <component glyphName="compI" x="256" y="1280" flags="0x4"/>
      <component glyphName="compI" x="512" y="0" flags="0x4"/>
      <component glyphName="compI" x="768" y="0" flags="0x4"/>
      <component glyphName="compI" x="1024" y="-4" flags="0x4"/>
      <component glyphName="compI" x="1024" y="1280" flags="0x4"/>
      <component glyphName="compI" x="768" y="1280" flags="0x4"/>
      <component glyphName="compI" x="512" y="1280" flags="0x4"/>
      <component glyphName="compI" x="1024" y="512" flags="0x4"/>
      <component glyphName="compI" x="1024" y="256" flags="0x4"/>
    </TTGlyph>
    <TTGlyph name="G.6" xMin="383" yMin="123" xMax="1153" yMax="1409">
      <component glyphName="compV" x="256" y="0" flags="0x4"/>
      <component glyphName="compV" x="256" y="256" flags="0x4"/>
      <component glyphName="compV" x="256" y="512" flags="0x4"/>
      <component glyphName="compV" x="256" y="768" flags="0x4"/>
      <component glyphName="compV" x="256" y="1024" flags="0x4"/>
      <component glyphName="compV" x="256" y="1280" flags="0x4"/>
      <component glyphName="compV" x="512" y="0" flags="0x4"/>
      <component glyphName="compV" x="768" y="0" flags="0x4"/>
      <component glyphName="compV" x="1024" y="-4" flags="0x4"/>
      <component glyphName="compV" x="1024" y="1280" flags="0x4"/>
      <component glyphName="compV" x="768" y="1280" flags="0x4"/>
      <component glyphName="compV" x="512" y="1280" flags="0x4"/>
      <component glyphName="compV" x="1024" y="512" flags="0x4"/>
      <component glyphName="compV" x="1024" y="256" flags="0x4"/>
    </TTGlyph>
    <TTGlyph name="H" xMin="256" yMin="0" xMax="1280" yMax="1536">
      <component glyphName="comp0" x="256" y="0" flags="0x4"/>
      <component glyphName="comp0" x="256" y="256" flags="0x4"/>
      <component glyphName="comp0" x="256" y="512" flags="0x4"/>
      <component glyphName="comp0" x="256" y="768" flags="0x4"/>
      <component glyphName="comp0" x="256" y="1024" flags="0x4"/>
      <component glyphName="comp0" x="256" y="1280" flags="0x4"/>
      <component glyphName="comp0" x="1024" y="0" flags="0x4"/>
      <component glyphName="comp0" x="1024" y="512" flags="0x4"/>
      <component glyphName="comp0" x="1024" y="1280" flags="0x4"/>
      <component glyphName="comp0" x="1024" y="768" flags="0x4"/>
      <component glyphName="comp0" x="1024" y="1024" flags="0x4"/>
      <component glyphName="comp0" x="512" y="768" flags="0x4"/>
      <component glyphName="comp0" x="768" y="768" flags="0x4"/>
      <component glyphName="comp0" x="1024" y="256" flags="0x4"/>
    </TTGlyph>
    <TTGlyph name="H.0" xMin="383" yMin="127" xMax="1153" yMax="1409">
      <component glyphName="compR" x="256" y="0" flags="0x4"/>
      <component glyphName="compR" x="256" y="256" flags="0x4"/>
      <component glyphName="compR" x="256" y="512" flags="0x4"/>
      <component glyphName="compR" x="256" y="768" flags="0x4"/>
      <component glyphName="compR" x="256" y="1024" flags="0x4"/>
      <component glyphName="compR" x="256" y="1280" flags="0x4"/>
      <component glyphName="compR" x="1024" y="0" flags="0x4"/>
      <component glyphName="compR" x="1024" y="512" flags="0x4"/>
      <component glyphName="compR" x="1024" y="1280" flags="0x4"/>
      <component glyphName="compR" x="1024" y="768" flags="0x4"/>
      <component glyphName="compR" x="1024" y="1024" flags="0x4"/>
      <component glyphName="compR" x="512" y="768" flags="0x4"/>
      <component glyphName="compR" x="768" y="768" flags="0x4"/>
      <component glyphName="compR" x="1024" y="256" flags="0x4"/>
    </TTGlyph>
    <TTGlyph name="H.1" xMin="383" yMin="127" xMax="1153" yMax="1409">
      <component glyphName="compO" x="256" y="0" flags="0x4"/>
      <component glyphName="compO" x="256" y="256" flags="0x4"/>
      <component glyphName="compO" x="256" y="512" flags="0x4"/>
      <component glyphName="compO" x="256" y="768" flags="0x4"/>
      <component glyphName="compO" x="256" y="1024" flags="0x4"/>
      <component glyphName="compO" x="256" y="1280" flags="0x4"/>
      <component glyphName="compO" x="1024" y="0" flags="0x4"/>
      <component glyphName="compO" x="1024" y="512" flags="0x4"/>
      <component glyphName="compO" x="1024" y="1280" flags="0x4"/>
      <component glyphName="compO" x="1024" y="768" flags="0x4"/>
      <component glyphName="compO" x="1024" y="1024" flags="0x4"/>
      <component glyphName="compO" x="512" y="768" flags="0x4"/>
      <component glyphName="compO" x="768" y="768" flags="0x4"/>
      <component glyphName="compO" x="1024" y="256" flags="0x4"/>
    </TTGlyph>
    <TTGlyph name="H.2" xMin="383" yMin="127" xMax="1153" yMax="1409">
      <component glyphName="compY" x="256" y="0" flags="0x4"/>
      <component glyphName="compY" x="256" y="256" flags="0x4"/>
      <component glyphName="compY" x="256" y="512" flags="0x4"/>
      <component glyphName="compY" x="256" y="768" flags="0x4"/>
      <component glyphName="compY" x="256" y="1024" flags="0x4"/>
      <component glyphName="compY" x="256" y="1280" flags="0x4"/>
      <component glyphName="compY" x="1024" y="0" flags="0x4"/>
      <component glyphName="compY" x="1024" y="512" flags="0x4"/>
      <component glyphName="compY" x="1024" y="1280" flags="0x4"/>
      <component glyphName="compY" x="1024" y="768" flags="0x4"/>
      <component glyphName="compY" x="1024" y="1024" flags="0x4"/>
      <component glyphName="compY" x="512" y="768" flags="0x4"/>
      <component glyphName="compY" x="768" y="768" flags="0x4"/>
      <component glyphName="compY" x="1024" y="256" flags="0x4"/>
    </TTGlyph>
    <TTGlyph name="H.3" xMin="383" yMin="127" xMax="1153" yMax="1409">
      <component glyphName="compG" x="256" y="0" flags="0x4"/>
      <component glyphName="compG" x="256" y="256" flags="0x4"/>
      <component glyphName="compG" x="256" y="512" flags="0x4"/>
      <component glyphName="compG" x="256" y="768" flags="0x4"/>
      <component glyphName="compG" x="256" y="1024" flags="0x4"/>
      <component glyphName="compG" x="256" y="1280" flags="0x4"/>
      <component glyphName="compG" x="1024" y="0" flags="0x4"/>
      <component glyphName="compG" x="1024" y="512" flags="0x4"/>
      <component glyphName="compG" x="1024" y="1280" flags="0x4"/>
      <component glyphName="compG" x="1024" y="768" flags="0x4"/>
      <component glyphName="compG" x="1024" y="1024" flags="0x4"/>
      <component glyphName="compG" x="512" y="768" flags="0x4"/>
      <component glyphName="compG" x="768" y="768" flags="0x4"/>
      <component glyphName="compG" x="1024" y="256" flags="0x4"/>
    </TTGlyph>
    <TTGlyph name="H.4" xMin="383" yMin="127" xMax="1153" yMax="1409">
      <component glyphName="compB" x="256" y="0" flags="0x4"/>
      <component glyphName="compB" x="256" y="256" flags="0x4"/>
      <component glyphName="compB" x="256" y="512" flags="0x4"/>
      <component glyphName="compB" x="256" y="768" flags="0x4"/>
      <component glyphName="compB" x="256" y="1024" flags="0x4"/>
      <component glyphName="compB" x="256" y="1280" flags="0x4"/>
      <component glyphName="compB" x="1024" y="0" flags="0x4"/>
      <component glyphName="compB" x="1024" y="512" flags="0x4"/>
      <component glyphName="compB" x="1024" y="1280" flags="0x4"/>
      <component glyphName="compB" x="1024" y="768" flags="0x4"/>
      <component glyphName="compB" x="1024" y="1024" flags="0x4"/>
      <component glyphName="compB" x="512" y="768" flags="0x4"/>
      <component glyphName="compB" x="768" y="768" flags="0x4"/>
      <component glyphName="compB" x="1024" y="256" flags="0x4"/>
    </TTGlyph>
    <TTGlyph name="H.5" xMin="383" yMin="127" xMax="1153" yMax="1409">
      <component glyphName="compI" x="256" y="0" flags="0x4"/>
      <component glyphName="compI" x="256" y="256" flags="0x4"/>
      <component glyphName="compI" x="256" y="512" flags="0x4"/>
      <component glyphName="compI" x="256" y="768" flags="0x4"/>
      <component glyphName="compI" x="256" y="1024" flags="0x4"/>
      <component glyphName="compI" x="256" y="1280" flags="0x4"/>
      <component glyphName="compI" x="1024" y="0" flags="0x4"/>
      <component glyphName="compI" x="1024" y="512" flags="0x4"/>
      <component glyphName="compI" x="1024" y="1280" flags="0x4"/>
      <component glyphName="compI" x="1024" y="768" flags="0x4"/>
      <component glyphName="compI" x="1024" y="1024" flags="0x4"/>
      <component glyphName="compI" x="512" y="768" flags="0x4"/>
      <component glyphName="compI" x="768" y="768" flags="0x4"/>
      <component glyphName="compI" x="1024" y="256" flags="0x4"/>
    </TTGlyph>
    <TTGlyph name="H.6" xMin="383" yMin="127" xMax="1153" yMax="1409">
      <component glyphName="compV" x="256" y="0" flags="0x4"/>
      <component glyphName="compV" x="256" y="256" flags="0x4"/>
      <component glyphName="compV" x="256" y="512" flags="0x4"/>
      <component glyphName="compV" x="256" y="768" flags="0x4"/>
      <component glyphName="compV" x="256" y="1024" flags="0x4"/>
      <component glyphName="compV" x="256" y="1280" flags="0x4"/>
      <component glyphName="compV" x="1024" y="0" flags="0x4"/>
      <component glyphName="compV" x="1024" y="512" flags="0x4"/>
      <component glyphName="compV" x="1024" y="1280" flags="0x4"/>
      <component glyphName="compV" x="1024" y="768" flags="0x4"/>
      <component glyphName="compV" x="1024" y="1024" flags="0x4"/>
      <component glyphName="compV" x="512" y="768" flags="0x4"/>
      <component glyphName="compV" x="768" y="768" flags="0x4"/>
      <component glyphName="compV" x="1024" y="256" flags="0x4"/>
    </TTGlyph>
    <TTGlyph name="I" xMin="256" yMin="0" xMax="1024" yMax="1536">
      <component glyphName="comp0" x="256" y="0" flags="0x4"/>
      <component glyphName="comp0" x="512" y="0" flags="0x4"/>
      <component glyphName="comp0" x="768" y="0" flags="0x4"/>
      <component glyphName="comp0" x="768" y="1280" flags="0x4"/>
      <component glyphName="comp0" x="512" y="1280" flags="0x4"/>
      <component glyphName="comp0" x="256" y="1280" flags="0x4"/>
      <component glyphName="comp0" x="512" y="256" flags="0x4"/>
      <component glyphName="comp0" x="512" y="512" flags="0x4"/>
      <component glyphName="comp0" x="512" y="1024" flags="0x4"/>
      <component glyphName="comp0" x="512" y="768" flags="0x4"/>
    </TTGlyph>
    <TTGlyph name="I.0" xMin="383" yMin="127" xMax="897" yMax="1409">
      <component glyphName="compR" x="256" y="0" flags="0x4"/>
      <component glyphName="compR" x="512" y="0" flags="0x4"/>
      <component glyphName="compR" x="768" y="0" flags="0x4"/>
      <component glyphName="compR" x="768" y="1280" flags="0x4"/>
      <component glyphName="compR" x="512" y="1280" flags="0x4"/>
      <component glyphName="compR" x="256" y="1280" flags="0x4"/>
      <component glyphName="compR" x="512" y="256" flags="0x4"/>
      <component glyphName="compR" x="512" y="512" flags="0x4"/>
      <component glyphName="compR" x="512" y="1024" flags="0x4"/>
      <component glyphName="compR" x="512" y="768" flags="0x4"/>
    </TTGlyph>
    <TTGlyph name="I.1" xMin="383" yMin="127" xMax="897" yMax="1409">
      <component glyphName="compO" x="256" y="0" flags="0x4"/>
      <component glyphName="compO" x="512" y="0" flags="0x4"/>
      <component glyphName="compO" x="768" y="0" flags="0x4"/>
      <component glyphName="compO" x="768" y="1280" flags="0x4"/>
      <component glyphName="compO" x="512" y="1280" flags="0x4"/>
      <component glyphName="compO" x="256" y="1280" flags="0x4"/>
      <component glyphName="compO" x="512" y="256" flags="0x4"/>
      <component glyphName="compO" x="512" y="512" flags="0x4"/>
      <component glyphName="compO" x="512" y="1024" flags="0x4"/>
      <component glyphName="compO" x="512" y="768" flags="0x4"/>
    </TTGlyph>
    <TTGlyph name="I.2" xMin="383" yMin="127" xMax="897" yMax="1409">
      <component glyphName="compY" x="256" y="0" flags="0x4"/>
      <component glyphName="compY" x="512" y="0" flags="0x4"/>
      <component glyphName="compY" x="768" y="0" flags="0x4"/>
      <component glyphName="compY" x="768" y="1280" flags="0x4"/>
      <component glyphName="compY" x="512" y="1280" flags="0x4"/>
      <component glyphName="compY" x="256" y="1280" flags="0x4"/>
      <component glyphName="compY" x="512" y="256" flags="0x4"/>
      <component glyphName="compY" x="512" y="512" flags="0x4"/>
      <component glyphName="compY" x="512" y="1024" flags="0x4"/>
      <component glyphName="compY" x="512" y="768" flags="0x4"/>
    </TTGlyph>
    <TTGlyph name="I.3" xMin="383" yMin="127" xMax="897" yMax="1409">
      <component glyphName="compG" x="256" y="0" flags="0x4"/>
      <component glyphName="compG" x="512" y="0" flags="0x4"/>
      <component glyphName="compG" x="768" y="0" flags="0x4"/>
      <component glyphName="compG" x="768" y="1280" flags="0x4"/>
      <component glyphName="compG" x="512" y="1280" flags="0x4"/>
      <component glyphName="compG" x="256" y="1280" flags="0x4"/>
      <component glyphName="compG" x="512" y="256" flags="0x4"/>
      <component glyphName="compG" x="512" y="512" flags="0x4"/>
      <component glyphName="compG" x="512" y="1024" flags="0x4"/>
      <component glyphName="compG" x="512" y="768" flags="0x4"/>
    </TTGlyph>
    <TTGlyph name="I.4" xMin="383" yMin="127" xMax="897" yMax="1409">
      <component glyphName="compB" x="256" y="0" flags="0x4"/>
      <component glyphName="compB" x="512" y="0" flags="0x4"/>
      <component glyphName="compB" x="768" y="0" flags="0x4"/>
      <component glyphName="compB" x="768" y="1280" flags="0x4"/>
      <component glyphName="compB" x="512" y="1280" flags="0x4"/>
      <component glyphName="compB" x="256" y="1280" flags="0x4"/>
      <component glyphName="compB" x="512" y="256" flags="0x4"/>
      <component glyphName="compB" x="512" y="512" flags="0x4"/>
      <component glyphName="compB" x="512" y="1024" flags="0x4"/>
      <component glyphName="compB" x="512" y="768" flags="0x4"/>
    </TTGlyph>
    <TTGlyph name="I.5" xMin="383" yMin="127" xMax="897" yMax="1409">
      <component glyphName="compI" x="256" y="0" flags="0x4"/>
      <component glyphName="compI" x="512" y="0" flags="0x4"/>
      <component glyphName="compI" x="768" y="0" flags="0x4"/>
      <component glyphName="compI" x="768" y="1280" flags="0x4"/>
      <component glyphName="compI" x="512" y="1280" flags="0x4"/>
      <component glyphName="compI" x="256" y="1280" flags="0x4"/>
      <component glyphName="compI" x="512" y="256" flags="0x4"/>
      <component glyphName="compI" x="512" y="512" flags="0x4"/>
      <component glyphName="compI" x="512" y="1024" flags="0x4"/>
      <component glyphName="compI" x="512" y="768" flags="0x4"/>
    </TTGlyph>
    <TTGlyph name="I.6" xMin="383" yMin="127" xMax="897" yMax="1409">
      <component glyphName="compV" x="256" y="0" flags="0x4"/>
      <component glyphName="compV" x="512" y="0" flags="0x4"/>
      <component glyphName="compV" x="768" y="0" flags="0x4"/>
      <component glyphName="compV" x="768" y="1280" flags="0x4"/>
      <component glyphName="compV" x="512" y="1280" flags="0x4"/>
      <component glyphName="compV" x="256" y="1280" flags="0x4"/>
      <component glyphName="compV" x="512" y="256" flags="0x4"/>
      <component glyphName="compV" x="512" y="512" flags="0x4"/>
      <component glyphName="compV" x="512" y="1024" flags="0x4"/>
      <component glyphName="compV" x="512" y="768" flags="0x4"/>
    </TTGlyph>
    <TTGlyph name="J" xMin="256" yMin="0" xMax="1024" yMax="1536">
      <component glyphName="comp0" x="256" y="0" flags="0x4"/>
      <component glyphName="comp0" x="256" y="256" flags="0x4"/>
      <component glyphName="comp0" x="512" y="0" flags="0x4"/>
      <component glyphName="comp0" x="768" y="0" flags="0x4"/>
      <component glyphName="comp0" x="768" y="1280" flags="0x4"/>
      <component glyphName="comp0" x="768" y="256" flags="0x4"/>
      <component glyphName="comp0" x="768" y="512" flags="0x4"/>
      <component glyphName="comp0" x="768" y="1024" flags="0x4"/>
      <component glyphName="comp0" x="768" y="768" flags="0x4"/>
    </TTGlyph>
    <TTGlyph name="J.0" xMin="383" yMin="127" xMax="897" yMax="1409">
      <component glyphName="compR" x="256" y="0" flags="0x4"/>
      <component glyphName="compR" x="256" y="256" flags="0x4"/>
      <component glyphName="compR" x="512" y="0" flags="0x4"/>
      <component glyphName="compR" x="768" y="0" flags="0x4"/>
      <component glyphName="compR" x="768" y="1280" flags="0x4"/>
      <component glyphName="compR" x="768" y="256" flags="0x4"/>
      <component glyphName="compR" x="768" y="512" flags="0x4"/>
      <component glyphName="compR" x="768" y="1024" flags="0x4"/>
      <component glyphName="compR" x="768" y="768" flags="0x4"/>
    </TTGlyph>
    <TTGlyph name="J.1" xMin="383" yMin="127" xMax="897" yMax="1409">
      <component glyphName="compO" x="256" y="0" flags="0x4"/>
      <component glyphName="compO" x="256" y="256" flags="0x4"/>
      <component glyphName="compO" x="512" y="0" flags="0x4"/>
      <component glyphName="compO" x="768" y="0" flags="0x4"/>
      <component glyphName="compO" x="768" y="1280" flags="0x4"/>
      <component glyphName="compO" x="768" y="256" flags="0x4"/>
      <component glyphName="compO" x="768" y="512" flags="0x4"/>
      <component glyphName="compO" x="768" y="1024" flags="0x4"/>
      <component glyphName="compO" x="768" y="768" flags="0x4"/>
    </TTGlyph>
    <TTGlyph name="J.2" xMin="383" yMin="127" xMax="897" yMax="1409">
      <component glyphName="compY" x="256" y="0" flags="0x4"/>
      <component glyphName="compY" x="256" y="256" flags="0x4"/>
      <component glyphName="compY" x="512" y="0" flags="0x4"/>
      <component glyphName="compY" x="768" y="0" flags="0x4"/>
      <component glyphName="compY" x="768" y="1280" flags="0x4"/>
      <component glyphName="compY" x="768" y="256" flags="0x4"/>
      <component glyphName="compY" x="768" y="512" flags="0x4"/>
      <component glyphName="compY" x="768" y="1024" flags="0x4"/>
      <component glyphName="compY" x="768" y="768" flags="0x4"/>
    </TTGlyph>
    <TTGlyph name="J.3" xMin="383" yMin="127" xMax="897" yMax="1409">
      <component glyphName="compG" x="256" y="0" flags="0x4"/>
      <component glyphName="compG" x="256" y="256" flags="0x4"/>
      <component glyphName="compG" x="512" y="0" flags="0x4"/>
      <component glyphName="compG" x="768" y="0" flags="0x4"/>
      <component glyphName="compG" x="768" y="1280" flags="0x4"/>
      <component glyphName="compG" x="768" y="256" flags="0x4"/>
      <component glyphName="compG" x="768" y="512" flags="0x4"/>
      <component glyphName="compG" x="768" y="1024" flags="0x4"/>
      <component glyphName="compG" x="768" y="768" flags="0x4"/>
    </TTGlyph>
    <TTGlyph name="J.4" xMin="383" yMin="127" xMax="897" yMax="1409">
      <component glyphName="compB" x="256" y="0" flags="0x4"/>
      <component glyphName="compB" x="256" y="256" flags="0x4"/>
      <component glyphName="compB" x="512" y="0" flags="0x4"/>
      <component glyphName="compB" x="768" y="0" flags="0x4"/>
      <component glyphName="compB" x="768" y="1280" flags="0x4"/>
      <component glyphName="compB" x="768" y="256" flags="0x4"/>
      <component glyphName="compB" x="768" y="512" flags="0x4"/>
      <component glyphName="compB" x="768" y="1024" flags="0x4"/>
      <component glyphName="compB" x="768" y="768" flags="0x4"/>
    </TTGlyph>
    <TTGlyph name="J.5" xMin="383" yMin="127" xMax="897" yMax="1409">
      <component glyphName="compI" x="256" y="0" flags="0x4"/>
      <component glyphName="compI" x="256" y="256" flags="0x4"/>
      <component glyphName="compI" x="512" y="0" flags="0x4"/>
      <component glyphName="compI" x="768" y="0" flags="0x4"/>
      <component glyphName="compI" x="768" y="1280" flags="0x4"/>
      <component glyphName="compI" x="768" y="256" flags="0x4"/>
      <component glyphName="compI" x="768" y="512" flags="0x4"/>
      <component glyphName="compI" x="768" y="1024" flags="0x4"/>
      <component glyphName="compI" x="768" y="768" flags="0x4"/>
    </TTGlyph>
    <TTGlyph name="J.6" xMin="383" yMin="127" xMax="897" yMax="1409">
      <component glyphName="compV" x="256" y="0" flags="0x4"/>
      <component glyphName="compV" x="256" y="256" flags="0x4"/>
      <component glyphName="compV" x="512" y="0" flags="0x4"/>
      <component glyphName="compV" x="768" y="0" flags="0x4"/>
      <component glyphName="compV" x="768" y="1280" flags="0x4"/>
      <component glyphName="compV" x="768" y="256" flags="0x4"/>
      <component glyphName="compV" x="768" y="512" flags="0x4"/>
      <component glyphName="compV" x="768" y="1024" flags="0x4"/>
      <component glyphName="compV" x="768" y="768" flags="0x4"/>
    </TTGlyph>
    <TTGlyph name="K" xMin="256" yMin="-4" xMax="1280" yMax="1536">
      <component glyphName="comp0" x="256" y="0" flags="0x4"/>
      <component glyphName="comp0" x="256" y="256" flags="0x4"/>
      <component glyphName="comp0" x="256" y="512" flags="0x4"/>
      <component glyphName="comp0" x="256" y="768" flags="0x4"/>
      <component glyphName="comp0" x="256" y="1024" flags="0x4"/>
      <component glyphName="comp0" x="256" y="1280" flags="0x4"/>
      <component glyphName="comp0" x="1024" y="-4" flags="0x4"/>
      <component glyphName="comp0" x="1024" y="1280" flags="0x4"/>
      <component glyphName="comp0" x="768" y="512" flags="0x4"/>
      <component glyphName="comp0" x="768" y="256" flags="0x4"/>
      <component glyphName="comp0" x="512" y="768" flags="0x4"/>
      <component glyphName="comp0" x="768" y="1024" flags="0x4"/>
    </TTGlyph>
    <TTGlyph name="K.0" xMin="383" yMin="123" xMax="1153" yMax="1409">
      <component glyphName="compR" x="256" y="0" flags="0x4"/>
      <component glyphName="compR" x="256" y="256" flags="0x4"/>
      <component glyphName="compR" x="256" y="512" flags="0x4"/>
      <component glyphName="compR" x="256" y="768" flags="0x4"/>
      <component glyphName="compR" x="256" y="1024" flags="0x4"/>
      <component glyphName="compR" x="256" y="1280" flags="0x4"/>
      <component glyphName="compR" x="1024" y="-4" flags="0x4"/>
      <component glyphName="compR" x="1024" y="1280" flags="0x4"/>
      <component glyphName="compR" x="768" y="512" flags="0x4"/>
      <component glyphName="compR" x="768" y="256" flags="0x4"/>
      <component glyphName="compR" x="512" y="768" flags="0x4"/>
      <component glyphName="compR" x="768" y="1024" flags="0x4"/>
    </TTGlyph>
    <TTGlyph name="K.1" xMin="383" yMin="123" xMax="1153" yMax="1409">
      <component glyphName="compO" x="256" y="0" flags="0x4"/>
      <component glyphName="compO" x="256" y="256" flags="0x4"/>
      <component glyphName="compO" x="256" y="512" flags="0x4"/>
      <component glyphName="compO" x="256" y="768" flags="0x4"/>
      <component glyphName="compO" x="256" y="1024" flags="0x4"/>
      <component glyphName="compO" x="256" y="1280" flags="0x4"/>
      <component glyphName="compO" x="1024" y="-4" flags="0x4"/>
      <component glyphName="compO" x="1024" y="1280" flags="0x4"/>
      <component glyphName="compO" x="768" y="512" flags="0x4"/>
      <component glyphName="compO" x="768" y="256" flags="0x4"/>
      <component glyphName="compO" x="512" y="768" flags="0x4"/>
      <component glyphName="compO" x="768" y="1024" flags="0x4"/>
    </TTGlyph>
    <TTGlyph name="K.2" xMin="383" yMin="123" xMax="1153" yMax="1409">
      <component glyphName="compY" x="256" y="0" flags="0x4"/>
      <component glyphName="compY" x="256" y="256" flags="0x4"/>
      <component glyphName="compY" x="256" y="512" flags="0x4"/>
      <component glyphName="compY" x="256" y="768" flags="0x4"/>
      <component glyphName="compY" x="256" y="1024" flags="0x4"/>
      <component glyphName="compY" x="256" y="1280" flags="0x4"/>
      <component glyphName="compY" x="1024" y="-4" flags="0x4"/>
      <component glyphName="compY" x="1024" y="1280" flags="0x4"/>
      <component glyphName="compY" x="768" y="512" flags="0x4"/>
      <component glyphName="compY" x="768" y="256" flags="0x4"/>
      <component glyphName="compY" x="512" y="768" flags="0x4"/>
      <component glyphName="compY" x="768" y="1024" flags="0x4"/>
    </TTGlyph>
    <TTGlyph name="K.3" xMin="383" yMin="123" xMax="1153" yMax="1409">
      <component glyphName="compG" x="256" y="0" flags="0x4"/>
      <component glyphName="compG" x="256" y="256" flags="0x4"/>
      <component glyphName="compG" x="256" y="512" flags="0x4"/>
      <component glyphName="compG" x="256" y="768" flags="0x4"/>
      <component glyphName="compG" x="256" y="1024" flags="0x4"/>
      <component glyphName="compG" x="256" y="1280" flags="0x4"/>
      <component glyphName="compG" x="1024" y="-4" flags="0x4"/>
      <component glyphName="compG" x="1024" y="1280" flags="0x4"/>
      <component glyphName="compG" x="768" y="512" flags="0x4"/>
      <component glyphName="compG" x="768" y="256" flags="0x4"/>
      <component glyphName="compG" x="512" y="768" flags="0x4"/>
      <component glyphName="compG" x="768" y="1024" flags="0x4"/>
    </TTGlyph>
    <TTGlyph name="K.4" xMin="383" yMin="123" xMax="1153" yMax="1409">
      <component glyphName="compB" x="256" y="0" flags="0x4"/>
      <component glyphName="compB" x="256" y="256" flags="0x4"/>
      <component glyphName="compB" x="256" y="512" flags="0x4"/>
      <component glyphName="compB" x="256" y="768" flags="0x4"/>
      <component glyphName="compB" x="256" y="1024" flags="0x4"/>
      <component glyphName="compB" x="256" y="1280" flags="0x4"/>
      <component glyphName="compB" x="1024" y="-4" flags="0x4"/>
      <component glyphName="compB" x="1024" y="1280" flags="0x4"/>
      <component glyphName="compB" x="768" y="512" flags="0x4"/>
      <component glyphName="compB" x="768" y="256" flags="0x4"/>
      <component glyphName="compB" x="512" y="768" flags="0x4"/>
      <component glyphName="compB" x="768" y="1024" flags="0x4"/>
    </TTGlyph>
    <TTGlyph name="K.5" xMin="383" yMin="123" xMax="1153" yMax="1409">
      <component glyphName="compI" x="256" y="0" flags="0x4"/>
      <component glyphName="compI" x="256" y="256" flags="0x4"/>
      <component glyphName="compI" x="256" y="512" flags="0x4"/>
      <component glyphName="compI" x="256" y="768" flags="0x4"/>
      <component glyphName="compI" x="256" y="1024" flags="0x4"/>
      <component glyphName="compI" x="256" y="1280" flags="0x4"/>
      <component glyphName="compI" x="1024" y="-4" flags="0x4"/>
      <component glyphName="compI" x="1024" y="1280" flags="0x4"/>
      <component glyphName="compI" x="768" y="512" flags="0x4"/>
      <component glyphName="compI" x="768" y="256" flags="0x4"/>
      <component glyphName="compI" x="512" y="768" flags="0x4"/>
      <component glyphName="compI" x="768" y="1024" flags="0x4"/>
    </TTGlyph>
    <TTGlyph name="K.6" xMin="383" yMin="123" xMax="1153" yMax="1409">
      <component glyphName="compV" x="256" y="0" flags="0x4"/>
      <component glyphName="compV" x="256" y="256" flags="0x4"/>
      <component glyphName="compV" x="256" y="512" flags="0x4"/>
      <component glyphName="compV" x="256" y="768" flags="0x4"/>
      <component glyphName="compV" x="256" y="1024" flags="0x4"/>
      <component glyphName="compV" x="256" y="1280" flags="0x4"/>
      <component glyphName="compV" x="1024" y="-4" flags="0x4"/>
      <component glyphName="compV" x="1024" y="1280" flags="0x4"/>
      <component glyphName="compV" x="768" y="512" flags="0x4"/>
      <component glyphName="compV" x="768" y="256" flags="0x4"/>
      <component glyphName="compV" x="512" y="768" flags="0x4"/>
      <component glyphName="compV" x="768" y="1024" flags="0x4"/>
    </TTGlyph>
    <TTGlyph name="L" xMin="256" yMin="-4" xMax="1280" yMax="1536">
      <component glyphName="comp0" x="256" y="0" flags="0x4"/>
      <component glyphName="comp0" x="256" y="256" flags="0x4"/>
      <component glyphName="comp0" x="256" y="512" flags="0x4"/>
      <component glyphName="comp0" x="256" y="768" flags="0x4"/>
      <component glyphName="comp0" x="256" y="1024" flags="0x4"/>
      <component glyphName="comp0" x="256" y="1280" flags="0x4"/>
      <component glyphName="comp0" x="512" y="0" flags="0x4"/>
      <component glyphName="comp0" x="768" y="0" flags="0x4"/>
      <component glyphName="comp0" x="1024" y="-4" flags="0x4"/>
    </TTGlyph>
    <TTGlyph name="L.0" xMin="383" yMin="123" xMax="1153" yMax="1409">
      <component glyphName="compR" x="256" y="0" flags="0x4"/>
      <component glyphName="compR" x="256" y="256" flags="0x4"/>
      <component glyphName="compR" x="256" y="512" flags="0x4"/>
      <component glyphName="compR" x="256" y="768" flags="0x4"/>
      <component glyphName="compR" x="256" y="1024" flags="0x4"/>
      <component glyphName="compR" x="256" y="1280" flags="0x4"/>
      <component glyphName="compR" x="512" y="0" flags="0x4"/>
      <component glyphName="compR" x="768" y="0" flags="0x4"/>
      <component glyphName="compR" x="1024" y="-4" flags="0x4"/>
    </TTGlyph>
    <TTGlyph name="L.1" xMin="383" yMin="123" xMax="1153" yMax="1409">
      <component glyphName="compO" x="256" y="0" flags="0x4"/>
      <component glyphName="compO" x="256" y="256" flags="0x4"/>
      <component glyphName="compO" x="256" y="512" flags="0x4"/>
      <component glyphName="compO" x="256" y="768" flags="0x4"/>
      <component glyphName="compO" x="256" y="1024" flags="0x4"/>
      <component glyphName="compO" x="256" y="1280" flags="0x4"/>
      <component glyphName="compO" x="512" y="0" flags="0x4"/>
      <component glyphName="compO" x="768" y="0" flags="0x4"/>
      <component glyphName="compO" x="1024" y="-4" flags="0x4"/>
    </TTGlyph>
    <TTGlyph name="L.2" xMin="383" yMin="123" xMax="1153" yMax="1409">
      <component glyphName="compY" x="256" y="0" flags="0x4"/>
      <component glyphName="compY" x="256" y="256" flags="0x4"/>
      <component glyphName="compY" x="256" y="512" flags="0x4"/>
      <component glyphName="compY" x="256" y="768" flags="0x4"/>
      <component glyphName="compY" x="256" y="1024" flags="0x4"/>
      <component glyphName="compY" x="256" y="1280" flags="0x4"/>
      <component glyphName="compY" x="512" y="0" flags="0x4"/>
      <component glyphName="compY" x="768" y="0" flags="0x4"/>
      <component glyphName="compY" x="1024" y="-4" flags="0x4"/>
    </TTGlyph>
    <TTGlyph name="L.3" xMin="383" yMin="123" xMax="1153" yMax="1409">
      <component glyphName="compG" x="256" y="0" flags="0x4"/>
      <component glyphName="compG" x="256" y="256" flags="0x4"/>
      <component glyphName="compG" x="256" y="512" flags="0x4"/>
      <component glyphName="compG" x="256" y="768" flags="0x4"/>
      <component glyphName="compG" x="256" y="1024" flags="0x4"/>
      <component glyphName="compG" x="256" y="1280" flags="0x4"/>
      <component glyphName="compG" x="512" y="0" flags="0x4"/>
      <component glyphName="compG" x="768" y="0" flags="0x4"/>
      <component glyphName="compG" x="1024" y="-4" flags="0x4"/>
    </TTGlyph>
    <TTGlyph name="L.4" xMin="383" yMin="123" xMax="1153" yMax="1409">
      <component glyphName="compB" x="256" y="0" flags="0x4"/>
      <component glyphName="compB" x="256" y="256" flags="0x4"/>
      <component glyphName="compB" x="256" y="512" flags="0x4"/>
      <component glyphName="compB" x="256" y="768" flags="0x4"/>
      <component glyphName="compB" x="256" y="1024" flags="0x4"/>
      <component glyphName="compB" x="256" y="1280" flags="0x4"/>
      <component glyphName="compB" x="512" y="0" flags="0x4"/>
      <component glyphName="compB" x="768" y="0" flags="0x4"/>
      <component glyphName="compB" x="1024" y="-4" flags="0x4"/>
    </TTGlyph>
    <TTGlyph name="L.5" xMin="383" yMin="123" xMax="1153" yMax="1409">
      <component glyphName="compI" x="256" y="0" flags="0x4"/>
      <component glyphName="compI" x="256" y="256" flags="0x4"/>
      <component glyphName="compI" x="256" y="512" flags="0x4"/>
      <component glyphName="compI" x="256" y="768" flags="0x4"/>
      <component glyphName="compI" x="256" y="1024" flags="0x4"/>
      <component glyphName="compI" x="256" y="1280" flags="0x4"/>
      <component glyphName="compI" x="512" y="0" flags="0x4"/>
      <component glyphName="compI" x="768" y="0" flags="0x4"/>
      <component glyphName="compI" x="1024" y="-4" flags="0x4"/>
    </TTGlyph>
    <TTGlyph name="L.6" xMin="383" yMin="123" xMax="1153" yMax="1409">
      <component glyphName="compV" x="256" y="0" flags="0x4"/>
      <component glyphName="compV" x="256" y="256" flags="0x4"/>
      <component glyphName="compV" x="256" y="512" flags="0x4"/>
      <component glyphName="compV" x="256" y="768" flags="0x4"/>
      <component glyphName="compV" x="256" y="1024" flags="0x4"/>
      <component glyphName="compV" x="256" y="1280" flags="0x4"/>
      <component glyphName="compV" x="512" y="0" flags="0x4"/>
      <component glyphName="compV" x="768" y="0" flags="0x4"/>
      <component glyphName="compV" x="1024" y="-4" flags="0x4"/>
    </TTGlyph>
    <TTGlyph name="M" xMin="256" yMin="0" xMax="1550" yMax="1536">
      <component glyphName="comp0" x="256" y="0" flags="0x4"/>
      <component glyphName="comp0" x="256" y="256" flags="0x4"/>
      <component glyphName="comp0" x="256" y="512" flags="0x4"/>
      <component glyphName="comp0" x="256" y="768" flags="0x4"/>
      <component glyphName="comp0" x="256" y="1024" flags="0x4"/>
      <component glyphName="comp0" x="256" y="1280" flags="0x4"/>
      <component glyphName="comp0" x="1294" y="0" flags="0x4"/>
      <component glyphName="comp0" x="1294" y="256" flags="0x4"/>
      <component glyphName="comp0" x="1294" y="512" flags="0x4"/>
      <component glyphName="comp0" x="1294" y="768" flags="0x4"/>
      <component glyphName="comp0" x="1294" y="1024" flags="0x4"/>
      <component glyphName="comp0" x="1294" y="1280" flags="0x4"/>
      <component glyphName="comp0" x="1038" y="1024" flags="0x4"/>
      <component glyphName="comp0" x="512" y="1024" flags="0x4"/>
      <component glyphName="comp0" x="768" y="768" flags="0x4"/>
    </TTGlyph>
    <TTGlyph name="M.0" xMin="383" yMin="127" xMax="1423" yMax="1409">
      <component glyphName="compR" x="256" y="0" flags="0x4"/>
      <component glyphName="compR" x="256" y="256" flags="0x4"/>
      <component glyphName="compR" x="256" y="512" flags="0x4"/>
      <component glyphName="compR" x="256" y="768" flags="0x4"/>
      <component glyphName="compR" x="256" y="1024" flags="0x4"/>
      <component glyphName="compR" x="256" y="1280" flags="0x4"/>
      <component glyphName="compR" x="1294" y="0" flags="0x4"/>
      <component glyphName="compR" x="1294" y="256" flags="0x4"/>
      <component glyphName="compR" x="1294" y="512" flags="0x4"/>
      <component glyphName="compR" x="1294" y="768" flags="0x4"/>
      <component glyphName="compR" x="1294" y="1024" flags="0x4"/>
      <component glyphName="compR" x="1294" y="1280" flags="0x4"/>
      <component glyphName="compR" x="1038" y="1024" flags="0x4"/>
      <component glyphName="compR" x="512" y="1024" flags="0x4"/>
      <component glyphName="compR" x="768" y="768" flags="0x4"/>
    </TTGlyph>
    <TTGlyph name="M.1" xMin="383" yMin="127" xMax="1423" yMax="1409">
      <component glyphName="compO" x="256" y="0" flags="0x4"/>
      <component glyphName="compO" x="256" y="256" flags="0x4"/>
      <component glyphName="compO" x="256" y="512" flags="0x4"/>
      <component glyphName="compO" x="256" y="768" flags="0x4"/>
      <component glyphName="compO" x="256" y="1024" flags="0x4"/>
      <component glyphName="compO" x="256" y="1280" flags="0x4"/>
      <component glyphName="compO" x="1294" y="0" flags="0x4"/>
      <component glyphName="compO" x="1294" y="256" flags="0x4"/>
      <component glyphName="compO" x="1294" y="512" flags="0x4"/>
      <component glyphName="compO" x="1294" y="768" flags="0x4"/>
      <component glyphName="compO" x="1294" y="1024" flags="0x4"/>
      <component glyphName="compO" x="1294" y="1280" flags="0x4"/>
      <component glyphName="compO" x="1038" y="1024" flags="0x4"/>
      <component glyphName="compO" x="512" y="1024" flags="0x4"/>
      <component glyphName="compO" x="768" y="768" flags="0x4"/>
    </TTGlyph>
    <TTGlyph name="M.2" xMin="383" yMin="127" xMax="1423" yMax="1409">
      <component glyphName="compY" x="256" y="0" flags="0x4"/>
      <component glyphName="compY" x="256" y="256" flags="0x4"/>
      <component glyphName="compY" x="256" y="512" flags="0x4"/>
      <component glyphName="compY" x="256" y="768" flags="0x4"/>
      <component glyphName="compY" x="256" y="1024" flags="0x4"/>
      <component glyphName="compY" x="256" y="1280" flags="0x4"/>
      <component glyphName="compY" x="1294" y="0" flags="0x4"/>
      <component glyphName="compY" x="1294" y="256" flags="0x4"/>
      <component glyphName="compY" x="1294" y="512" flags="0x4"/>
      <component glyphName="compY" x="1294" y="768" flags="0x4"/>
      <component glyphName="compY" x="1294" y="1024" flags="0x4"/>
      <component glyphName="compY" x="1294" y="1280" flags="0x4"/>
      <component glyphName="compY" x="1038" y="1024" flags="0x4"/>
      <component glyphName="compY" x="512" y="1024" flags="0x4"/>
      <component glyphName="compY" x="768" y="768" flags="0x4"/>
    </TTGlyph>
    <TTGlyph name="M.3" xMin="383" yMin="127" xMax="1423" yMax="1409">
      <component glyphName="compG" x="256" y="0" flags="0x4"/>
      <component glyphName="compG" x="256" y="256" flags="0x4"/>
      <component glyphName="compG" x="256" y="512" flags="0x4"/>
      <component glyphName="compG" x="256" y="768" flags="0x4"/>
      <component glyphName="compG" x="256" y="1024" flags="0x4"/>
      <component glyphName="compG" x="256" y="1280" flags="0x4"/>
      <component glyphName="compG" x="1294" y="0" flags="0x4"/>
      <component glyphName="compG" x="1294" y="256" flags="0x4"/>
      <component glyphName="compG" x="1294" y="512" flags="0x4"/>
      <component glyphName="compG" x="1294" y="768" flags="0x4"/>
      <component glyphName="compG" x="1294" y="1024" flags="0x4"/>
      <component glyphName="compG" x="1294" y="1280" flags="0x4"/>
      <component glyphName="compG" x="1038" y="1024" flags="0x4"/>
      <component glyphName="compG" x="512" y="1024" flags="0x4"/>
      <component glyphName="compG" x="768" y="768" flags="0x4"/>
    </TTGlyph>
    <TTGlyph name="M.4" xMin="383" yMin="127" xMax="1423" yMax="1409">
      <component glyphName="compB" x="256" y="0" flags="0x4"/>
      <component glyphName="compB" x="256" y="256" flags="0x4"/>
      <component glyphName="compB" x="256" y="512" flags="0x4"/>
      <component glyphName="compB" x="256" y="768" flags="0x4"/>
      <component glyphName="compB" x="256" y="1024" flags="0x4"/>
      <component glyphName="compB" x="256" y="1280" flags="0x4"/>
      <component glyphName="compB" x="1294" y="0" flags="0x4"/>
      <component glyphName="compB" x="1294" y="256" flags="0x4"/>
      <component glyphName="compB" x="1294" y="512" flags="0x4"/>
      <component glyphName="compB" x="1294" y="768" flags="0x4"/>
      <component glyphName="compB" x="1294" y="1024" flags="0x4"/>
      <component glyphName="compB" x="1294" y="1280" flags="0x4"/>
      <component glyphName="compB" x="1038" y="1024" flags="0x4"/>
      <component glyphName="compB" x="512" y="1024" flags="0x4"/>
      <component glyphName="compB" x="768" y="768" flags="0x4"/>
    </TTGlyph>
    <TTGlyph name="M.5" xMin="383" yMin="127" xMax="1423" yMax="1409">
      <component glyphName="compI" x="256" y="0" flags="0x4"/>
      <component glyphName="compI" x="256" y="256" flags="0x4"/>
      <component glyphName="compI" x="256" y="512" flags="0x4"/>
      <component glyphName="compI" x="256" y="768" flags="0x4"/>
      <component glyphName="compI" x="256" y="1024" flags="0x4"/>
      <component glyphName="compI" x="256" y="1280" flags="0x4"/>
      <component glyphName="compI" x="1294" y="0" flags="0x4"/>
      <component glyphName="compI" x="1294" y="256" flags="0x4"/>
      <component glyphName="compI" x="1294" y="512" flags="0x4"/>
      <component glyphName="compI" x="1294" y="768" flags="0x4"/>
      <component glyphName="compI" x="1294" y="1024" flags="0x4"/>
      <component glyphName="compI" x="1294" y="1280" flags="0x4"/>
      <component glyphName="compI" x="1038" y="1024" flags="0x4"/>
      <component glyphName="compI" x="512" y="1024" flags="0x4"/>
      <component glyphName="compI" x="768" y="768" flags="0x4"/>
    </TTGlyph>
    <TTGlyph name="M.6" xMin="383" yMin="127" xMax="1423" yMax="1409">
      <component glyphName="compV" x="256" y="0" flags="0x4"/>
      <component glyphName="compV" x="256" y="256" flags="0x4"/>
      <component glyphName="compV" x="256" y="512" flags="0x4"/>
      <component glyphName="compV" x="256" y="768" flags="0x4"/>
      <component glyphName="compV" x="256" y="1024" flags="0x4"/>
      <component glyphName="compV" x="256" y="1280" flags="0x4"/>
      <component glyphName="compV" x="1294" y="0" flags="0x4"/>
      <component glyphName="compV" x="1294" y="256" flags="0x4"/>
      <component glyphName="compV" x="1294" y="512" flags="0x4"/>
      <component glyphName="compV" x="1294" y="768" flags="0x4"/>
      <component glyphName="compV" x="1294" y="1024" flags="0x4"/>
      <component glyphName="compV" x="1294" y="1280" flags="0x4"/>
      <component glyphName="compV" x="1038" y="1024" flags="0x4"/>
      <component glyphName="compV" x="512" y="1024" flags="0x4"/>
      <component glyphName="compV" x="768" y="768" flags="0x4"/>
    </TTGlyph>
    <TTGlyph name="N" xMin="256" yMin="0" xMax="1536" yMax="1536">
      <component glyphName="comp0" x="256" y="0" flags="0x4"/>
      <component glyphName="comp0" x="256" y="512" flags="0x4"/>
      <component glyphName="comp0" x="256" y="768" flags="0x4"/>
      <component glyphName="comp0" x="256" y="1024" flags="0x4"/>
      <component glyphName="comp0" x="256" y="1280" flags="0x4"/>
      <component glyphName="comp0" x="1280" y="0" flags="0x4"/>
      <component glyphName="comp0" x="1280" y="256" flags="0x4"/>
      <component glyphName="comp0" x="1280" y="512" flags="0x4"/>
      <component glyphName="comp0" x="1280" y="768" flags="0x4"/>
      <component glyphName="comp0" x="1280" y="1024" flags="0x4"/>
      <component glyphName="comp0" x="1280" y="1280" flags="0x4"/>
      <component glyphName="comp0" x="512" y="1024" flags="0x4"/>
      <component glyphName="comp0" x="768" y="768" flags="0x4"/>
      <component glyphName="comp0" x="258" y="255" flags="0x4"/>
      <component glyphName="comp0" x="1024" y="512" flags="0x4"/>
    </TTGlyph>
    <TTGlyph name="N.0" xMin="383" yMin="127" xMax="1409" yMax="1409">
      <component glyphName="compR" x="256" y="0" flags="0x4"/>
      <component glyphName="compR" x="256" y="512" flags="0x4"/>
      <component glyphName="compR" x="256" y="768" flags="0x4"/>
      <component glyphName="compR" x="256" y="1024" flags="0x4"/>
      <component glyphName="compR" x="256" y="1280" flags="0x4"/>
      <component glyphName="compR" x="1280" y="0" flags="0x4"/>
      <component glyphName="compR" x="1280" y="256" flags="0x4"/>
      <component glyphName="compR" x="1280" y="512" flags="0x4"/>
      <component glyphName="compR" x="1280" y="768" flags="0x4"/>
      <component glyphName="compR" x="1280" y="1024" flags="0x4"/>
      <component glyphName="compR" x="1280" y="1280" flags="0x4"/>
      <component glyphName="compR" x="512" y="1024" flags="0x4"/>
      <component glyphName="compR" x="768" y="768" flags="0x4"/>
      <component glyphName="compR" x="258" y="255" flags="0x4"/>
      <component glyphName="compR" x="1024" y="512" flags="0x4"/>
    </TTGlyph>
    <TTGlyph name="N.1" xMin="383" yMin="127" xMax="1409" yMax="1409">
      <component glyphName="compO" x="256" y="0" flags="0x4"/>
      <component glyphName="compO" x="256" y="512" flags="0x4"/>
      <component glyphName="compO" x="256" y="768" flags="0x4"/>
      <component glyphName="compO" x="256" y="1024" flags="0x4"/>
      <component glyphName="compO" x="256" y="1280" flags="0x4"/>
      <component glyphName="compO" x="1280" y="0" flags="0x4"/>
      <component glyphName="compO" x="1280" y="256" flags="0x4"/>
      <component glyphName="compO" x="1280" y="512" flags="0x4"/>
      <component glyphName="compO" x="1280" y="768" flags="0x4"/>
      <component glyphName="compO" x="1280" y="1024" flags="0x4"/>
      <component glyphName="compO" x="1280" y="1280" flags="0x4"/>
      <component glyphName="compO" x="512" y="1024" flags="0x4"/>
      <component glyphName="compO" x="768" y="768" flags="0x4"/>
      <component glyphName="compO" x="258" y="255" flags="0x4"/>
      <component glyphName="compO" x="1024" y="512" flags="0x4"/>
    </TTGlyph>
    <TTGlyph name="N.2" xMin="383" yMin="127" xMax="1409" yMax="1409">
      <component glyphName="compY" x="256" y="0" flags="0x4"/>
      <component glyphName="compY" x="256" y="512" flags="0x4"/>
      <component glyphName="compY" x="256" y="768" flags="0x4"/>
      <component glyphName="compY" x="256" y="1024" flags="0x4"/>
      <component glyphName="compY" x="256" y="1280" flags="0x4"/>
      <component glyphName="compY" x="1280" y="0" flags="0x4"/>
      <component glyphName="compY" x="1280" y="256" flags="0x4"/>
      <component glyphName="compY" x="1280" y="512" flags="0x4"/>
      <component glyphName="compY" x="1280" y="768" flags="0x4"/>
      <component glyphName="compY" x="1280" y="1024" flags="0x4"/>
      <component glyphName="compY" x="1280" y="1280" flags="0x4"/>
      <component glyphName="compY" x="512" y="1024" flags="0x4"/>
      <component glyphName="compY" x="768" y="768" flags="0x4"/>
      <component glyphName="compY" x="258" y="255" flags="0x4"/>
      <component glyphName="compY" x="1024" y="512" flags="0x4"/>
    </TTGlyph>
    <TTGlyph name="N.3" xMin="383" yMin="127" xMax="1409" yMax="1409">
      <component glyphName="compG" x="256" y="0" flags="0x4"/>
      <component glyphName="compG" x="256" y="512" flags="0x4"/>
      <component glyphName="compG" x="256" y="768" flags="0x4"/>
      <component glyphName="compG" x="256" y="1024" flags="0x4"/>
      <component glyphName="compG" x="256" y="1280" flags="0x4"/>
      <component glyphName="compG" x="1280" y="0" flags="0x4"/>
      <component glyphName="compG" x="1280" y="256" flags="0x4"/>
      <component glyphName="compG" x="1280" y="512" flags="0x4"/>
      <component glyphName="compG" x="1280" y="768" flags="0x4"/>
      <component glyphName="compG" x="1280" y="1024" flags="0x4"/>
      <component glyphName="compG" x="1280" y="1280" flags="0x4"/>
      <component glyphName="compG" x="512" y="1024" flags="0x4"/>
      <component glyphName="compG" x="768" y="768" flags="0x4"/>
      <component glyphName="compG" x="258" y="255" flags="0x4"/>
      <component glyphName="compG" x="1024" y="512" flags="0x4"/>
    </TTGlyph>
    <TTGlyph name="N.4" xMin="383" yMin="127" xMax="1409" yMax="1409">
      <component glyphName="compB" x="256" y="0" flags="0x4"/>
      <component glyphName="compB" x="256" y="512" flags="0x4"/>
      <component glyphName="compB" x="256" y="768" flags="0x4"/>
      <component glyphName="compB" x="256" y="1024" flags="0x4"/>
      <component glyphName="compB" x="256" y="1280" flags="0x4"/>
      <component glyphName="compB" x="1280" y="0" flags="0x4"/>
      <component glyphName="compB" x="1280" y="256" flags="0x4"/>
      <component glyphName="compB" x="1280" y="512" flags="0x4"/>
      <component glyphName="compB" x="1280" y="768" flags="0x4"/>
      <component glyphName="compB" x="1280" y="1024" flags="0x4"/>
      <component glyphName="compB" x="1280" y="1280" flags="0x4"/>
      <component glyphName="compB" x="512" y="1024" flags="0x4"/>
      <component glyphName="compB" x="768" y="768" flags="0x4"/>
      <component glyphName="compB" x="258" y="255" flags="0x4"/>
      <component glyphName="compB" x="1024" y="512" flags="0x4"/>
    </TTGlyph>
    <TTGlyph name="N.5" xMin="383" yMin="127" xMax="1409" yMax="1409">
      <component glyphName="compI" x="256" y="0" flags="0x4"/>
      <component glyphName="compI" x="256" y="512" flags="0x4"/>
      <component glyphName="compI" x="256" y="768" flags="0x4"/>
      <component glyphName="compI" x="256" y="1024" flags="0x4"/>
      <component glyphName="compI" x="256" y="1280" flags="0x4"/>
      <component glyphName="compI" x="1280" y="0" flags="0x4"/>
      <component glyphName="compI" x="1280" y="256" flags="0x4"/>
      <component glyphName="compI" x="1280" y="512" flags="0x4"/>
      <component glyphName="compI" x="1280" y="768" flags="0x4"/>
      <component glyphName="compI" x="1280" y="1024" flags="0x4"/>
      <component glyphName="compI" x="1280" y="1280" flags="0x4"/>
      <component glyphName="compI" x="512" y="1024" flags="0x4"/>
      <component glyphName="compI" x="768" y="768" flags="0x4"/>
      <component glyphName="compI" x="258" y="255" flags="0x4"/>
      <component glyphName="compI" x="1024" y="512" flags="0x4"/>
    </TTGlyph>
    <TTGlyph name="N.6" xMin="383" yMin="127" xMax="1409" yMax="1409">
      <component glyphName="compV" x="256" y="0" flags="0x4"/>
      <component glyphName="compV" x="256" y="512" flags="0x4"/>
      <component glyphName="compV" x="256" y="768" flags="0x4"/>
      <component glyphName="compV" x="256" y="1024" flags="0x4"/>
      <component glyphName="compV" x="256" y="1280" flags="0x4"/>
      <component glyphName="compV" x="1280" y="0" flags="0x4"/>
      <component glyphName="compV" x="1280" y="256" flags="0x4"/>
      <component glyphName="compV" x="1280" y="512" flags="0x4"/>
      <component glyphName="compV" x="1280" y="768" flags="0x4"/>
      <component glyphName="compV" x="1280" y="1024" flags="0x4"/>
      <component glyphName="compV" x="1280" y="1280" flags="0x4"/>
      <component glyphName="compV" x="512" y="1024" flags="0x4"/>
      <component glyphName="compV" x="768" y="768" flags="0x4"/>
      <component glyphName="compV" x="258" y="255" flags="0x4"/>
      <component glyphName="compV" x="1024" y="512" flags="0x4"/>
    </TTGlyph>
    <TTGlyph name="O" xMin="256" yMin="-4" xMax="1280" yMax="1536">
      <component glyphName="comp0" x="256" y="0" flags="0x4"/>
      <component glyphName="comp0" x="256" y="256" flags="0x4"/>
      <component glyphName="comp0" x="256" y="512" flags="0x4"/>
      <component glyphName="comp0" x="256" y="768" flags="0x4"/>
      <component glyphName="comp0" x="256" y="1024" flags="0x4"/>
      <component glyphName="comp0" x="256" y="1280" flags="0x4"/>
      <component glyphName="comp0" x="512" y="0" flags="0x4"/>
      <component glyphName="comp0" x="768" y="0" flags="0x4"/>
      <component glyphName="comp0" x="1024" y="-4" flags="0x4"/>
      <component glyphName="comp0" x="1024" y="1280" flags="0x4"/>
      <component glyphName="comp0" x="768" y="1280" flags="0x4"/>
      <component glyphName="comp0" x="512" y="1280" flags="0x4"/>
      <component glyphName="comp0" x="1024" y="768" flags="0x4"/>
      <component glyphName="comp0" x="1024" y="1024" flags="0x4"/>
      <component glyphName="comp0" x="1024" y="512" flags="0x4"/>
      <component glyphName="comp0" x="1024" y="256" flags="0x4"/>
    </TTGlyph>
    <TTGlyph name="O.0" xMin="383" yMin="123" xMax="1153" yMax="1409">
      <component glyphName="compR" x="256" y="0" flags="0x4"/>
      <component glyphName="compR" x="256" y="256" flags="0x4"/>
      <component glyphName="compR" x="256" y="512" flags="0x4"/>
      <component glyphName="compR" x="256" y="768" flags="0x4"/>
      <component glyphName="compR" x="256" y="1024" flags="0x4"/>
      <component glyphName="compR" x="256" y="1280" flags="0x4"/>
      <component glyphName="compR" x="512" y="0" flags="0x4"/>
      <component glyphName="compR" x="768" y="0" flags="0x4"/>
      <component glyphName="compR" x="1024" y="-4" flags="0x4"/>
      <component glyphName="compR" x="1024" y="1280" flags="0x4"/>
      <component glyphName="compR" x="768" y="1280" flags="0x4"/>
      <component glyphName="compR" x="512" y="1280" flags="0x4"/>
      <component glyphName="compR" x="1024" y="768" flags="0x4"/>
      <component glyphName="compR" x="1024" y="1024" flags="0x4"/>
      <component glyphName="compR" x="1024" y="512" flags="0x4"/>
      <component glyphName="compR" x="1024" y="256" flags="0x4"/>
    </TTGlyph>
    <TTGlyph name="O.1" xMin="383" yMin="123" xMax="1153" yMax="1409">
      <component glyphName="compO" x="256" y="0" flags="0x4"/>
      <component glyphName="compO" x="256" y="256" flags="0x4"/>
      <component glyphName="compO" x="256" y="512" flags="0x4"/>
      <component glyphName="compO" x="256" y="768" flags="0x4"/>
      <component glyphName="compO" x="256" y="1024" flags="0x4"/>
      <component glyphName="compO" x="256" y="1280" flags="0x4"/>
      <component glyphName="compO" x="512" y="0" flags="0x4"/>
      <component glyphName="compO" x="768" y="0" flags="0x4"/>
      <component glyphName="compO" x="1024" y="-4" flags="0x4"/>
      <component glyphName="compO" x="1024" y="1280" flags="0x4"/>
      <component glyphName="compO" x="768" y="1280" flags="0x4"/>
      <component glyphName="compO" x="512" y="1280" flags="0x4"/>
      <component glyphName="compO" x="1024" y="768" flags="0x4"/>
      <component glyphName="compO" x="1024" y="1024" flags="0x4"/>
      <component glyphName="compO" x="1024" y="512" flags="0x4"/>
      <component glyphName="compO" x="1024" y="256" flags="0x4"/>
    </TTGlyph>
    <TTGlyph name="O.2" xMin="383" yMin="123" xMax="1153" yMax="1409">
      <component glyphName="compY" x="256" y="0" flags="0x4"/>
      <component glyphName="compY" x="256" y="256" flags="0x4"/>
      <component glyphName="compY" x="256" y="512" flags="0x4"/>
      <component glyphName="compY" x="256" y="768" flags="0x4"/>
      <component glyphName="compY" x="256" y="1024" flags="0x4"/>
      <component glyphName="compY" x="256" y="1280" flags="0x4"/>
      <component glyphName="compY" x="512" y="0" flags="0x4"/>
      <component glyphName="compY" x="768" y="0" flags="0x4"/>
      <component glyphName="compY" x="1024" y="-4" flags="0x4"/>
      <component glyphName="compY" x="1024" y="1280" flags="0x4"/>
      <component glyphName="compY" x="768" y="1280" flags="0x4"/>
      <component glyphName="compY" x="512" y="1280" flags="0x4"/>
      <component glyphName="compY" x="1024" y="768" flags="0x4"/>
      <component glyphName="compY" x="1024" y="1024" flags="0x4"/>
      <component glyphName="compY" x="1024" y="512" flags="0x4"/>
      <component glyphName="compY" x="1024" y="256" flags="0x4"/>
    </TTGlyph>
    <TTGlyph name="O.3" xMin="383" yMin="123" xMax="1153" yMax="1409">
      <component glyphName="compG" x="256" y="0" flags="0x4"/>
      <component glyphName="compG" x="256" y="256" flags="0x4"/>
      <component glyphName="compG" x="256" y="512" flags="0x4"/>
      <component glyphName="compG" x="256" y="768" flags="0x4"/>
      <component glyphName="compG" x="256" y="1024" flags="0x4"/>
      <component glyphName="compG" x="256" y="1280" flags="0x4"/>
      <component glyphName="compG" x="512" y="0" flags="0x4"/>
      <component glyphName="compG" x="768" y="0" flags="0x4"/>
      <component glyphName="compG" x="1024" y="-4" flags="0x4"/>
      <component glyphName="compG" x="1024" y="1280" flags="0x4"/>
      <component glyphName="compG" x="768" y="1280" flags="0x4"/>
      <component glyphName="compG" x="512" y="1280" flags="0x4"/>
      <component glyphName="compG" x="1024" y="768" flags="0x4"/>
      <component glyphName="compG" x="1024" y="1024" flags="0x4"/>
      <component glyphName="compG" x="1024" y="512" flags="0x4"/>
      <component glyphName="compG" x="1024" y="256" flags="0x4"/>
    </TTGlyph>
    <TTGlyph name="O.4" xMin="383" yMin="123" xMax="1153" yMax="1409">
      <component glyphName="compB" x="256" y="0" flags="0x4"/>
      <component glyphName="compB" x="256" y="256" flags="0x4"/>
      <component glyphName="compB" x="256" y="512" flags="0x4"/>
      <component glyphName="compB" x="256" y="768" flags="0x4"/>
      <component glyphName="compB" x="256" y="1024" flags="0x4"/>
      <component glyphName="compB" x="256" y="1280" flags="0x4"/>
      <component glyphName="compB" x="512" y="0" flags="0x4"/>
      <component glyphName="compB" x="768" y="0" flags="0x4"/>
      <component glyphName="compB" x="1024" y="-4" flags="0x4"/>
      <component glyphName="compB" x="1024" y="1280" flags="0x4"/>
      <component glyphName="compB" x="768" y="1280" flags="0x4"/>
      <component glyphName="compB" x="512" y="1280" flags="0x4"/>
      <component glyphName="compB" x="1024" y="768" flags="0x4"/>
      <component glyphName="compB" x="1024" y="1024" flags="0x4"/>
      <component glyphName="compB" x="1024" y="512" flags="0x4"/>
      <component glyphName="compB" x="1024" y="256" flags="0x4"/>
    </TTGlyph>
    <TTGlyph name="O.5" xMin="383" yMin="123" xMax="1153" yMax="1409">
      <component glyphName="compI" x="256" y="0" flags="0x4"/>
      <component glyphName="compI" x="256" y="256" flags="0x4"/>
      <component glyphName="compI" x="256" y="512" flags="0x4"/>
      <component glyphName="compI" x="256" y="768" flags="0x4"/>
      <component glyphName="compI" x="256" y="1024" flags="0x4"/>
      <component glyphName="compI" x="256" y="1280" flags="0x4"/>
      <component glyphName="compI" x="512" y="0" flags="0x4"/>
      <component glyphName="compI" x="768" y="0" flags="0x4"/>
      <component glyphName="compI" x="1024" y="-4" flags="0x4"/>
      <component glyphName="compI" x="1024" y="1280" flags="0x4"/>
      <component glyphName="compI" x="768" y="1280" flags="0x4"/>
      <component glyphName="compI" x="512" y="1280" flags="0x4"/>
      <component glyphName="compI" x="1024" y="768" flags="0x4"/>
      <component glyphName="compI" x="1024" y="1024" flags="0x4"/>
      <component glyphName="compI" x="1024" y="512" flags="0x4"/>
      <component glyphName="compI" x="1024" y="256" flags="0x4"/>
    </TTGlyph>
    <TTGlyph name="O.6" xMin="383" yMin="123" xMax="1153" yMax="1409">
      <component glyphName="compV" x="256" y="0" flags="0x4"/>
      <component glyphName="compV" x="256" y="256" flags="0x4"/>
      <component glyphName="compV" x="256" y="512" flags="0x4"/>
      <component glyphName="compV" x="256" y="768" flags="0x4"/>
      <component glyphName="compV" x="256" y="1024" flags="0x4"/>
      <component glyphName="compV" x="256" y="1280" flags="0x4"/>
      <component glyphName="compV" x="512" y="0" flags="0x4"/>
      <component glyphName="compV" x="768" y="0" flags="0x4"/>
      <component glyphName="compV" x="1024" y="-4" flags="0x4"/>
      <component glyphName="compV" x="1024" y="1280" flags="0x4"/>
      <component glyphName="compV" x="768" y="1280" flags="0x4"/>
      <component glyphName="compV" x="512" y="1280" flags="0x4"/>
      <component glyphName="compV" x="1024" y="768" flags="0x4"/>
      <component glyphName="compV" x="1024" y="1024" flags="0x4"/>
      <component glyphName="compV" x="1024" y="512" flags="0x4"/>
      <component glyphName="compV" x="1024" y="256" flags="0x4"/>
    </TTGlyph>
    <TTGlyph name="P" xMin="256" yMin="0" xMax="1280" yMax="1536">
      <component glyphName="comp0" x="256" y="0" flags="0x4"/>
      <component glyphName="comp0" x="256" y="256" flags="0x4"/>
      <component glyphName="comp0" x="256" y="512" flags="0x4"/>
      <component glyphName="comp0" x="256" y="768" flags="0x4"/>
      <component glyphName="comp0" x="256" y="1024" flags="0x4"/>
      <component glyphName="comp0" x="256" y="1280" flags="0x4"/>
      <component glyphName="comp0" x="1024" y="1280" flags="0x4"/>
      <component glyphName="comp0" x="768" y="1280" flags="0x4"/>
      <component glyphName="comp0" x="512" y="1280" flags="0x4"/>
      <component glyphName="comp0" x="512" y="768" flags="0x4"/>
      <component glyphName="comp0" x="1024" y="768" flags="0x4"/>
      <component glyphName="comp0" x="1024" y="1024" flags="0x4"/>
      <component glyphName="comp0" x="768" y="768" flags="0x4"/>
    </TTGlyph>
    <TTGlyph name="P.0" xMin="383" yMin="127" xMax="1153" yMax="1409">
      <component glyphName="compR" x="256" y="0" flags="0x4"/>
      <component glyphName="compR" x="256" y="256" flags="0x4"/>
      <component glyphName="compR" x="256" y="512" flags="0x4"/>
      <component glyphName="compR" x="256" y="768" flags="0x4"/>
      <component glyphName="compR" x="256" y="1024" flags="0x4"/>
      <component glyphName="compR" x="256" y="1280" flags="0x4"/>
      <component glyphName="compR" x="1024" y="1280" flags="0x4"/>
      <component glyphName="compR" x="768" y="1280" flags="0x4"/>
      <component glyphName="compR" x="512" y="1280" flags="0x4"/>
      <component glyphName="compR" x="512" y="768" flags="0x4"/>
      <component glyphName="compR" x="1024" y="768" flags="0x4"/>
      <component glyphName="compR" x="1024" y="1024" flags="0x4"/>
      <component glyphName="compR" x="768" y="768" flags="0x4"/>
    </TTGlyph>
    <TTGlyph name="P.1" xMin="383" yMin="127" xMax="1153" yMax="1409">
      <component glyphName="compO" x="256" y="0" flags="0x4"/>
      <component glyphName="compO" x="256" y="256" flags="0x4"/>
      <component glyphName="compO" x="256" y="512" flags="0x4"/>
      <component glyphName="compO" x="256" y="768" flags="0x4"/>
      <component glyphName="compO" x="256" y="1024" flags="0x4"/>
      <component glyphName="compO" x="256" y="1280" flags="0x4"/>
      <component glyphName="compO" x="1024" y="1280" flags="0x4"/>
      <component glyphName="compO" x="768" y="1280" flags="0x4"/>
      <component glyphName="compO" x="512" y="1280" flags="0x4"/>
      <component glyphName="compO" x="512" y="768" flags="0x4"/>
      <component glyphName="compO" x="1024" y="768" flags="0x4"/>
      <component glyphName="compO" x="1024" y="1024" flags="0x4"/>
      <component glyphName="compO" x="768" y="768" flags="0x4"/>
    </TTGlyph>
    <TTGlyph name="P.2" xMin="383" yMin="127" xMax="1153" yMax="1409">
      <component glyphName="compY" x="256" y="0" flags="0x4"/>
      <component glyphName="compY" x="256" y="256" flags="0x4"/>
      <component glyphName="compY" x="256" y="512" flags="0x4"/>
      <component glyphName="compY" x="256" y="768" flags="0x4"/>
      <component glyphName="compY" x="256" y="1024" flags="0x4"/>
      <component glyphName="compY" x="256" y="1280" flags="0x4"/>
      <component glyphName="compY" x="1024" y="1280" flags="0x4"/>
      <component glyphName="compY" x="768" y="1280" flags="0x4"/>
      <component glyphName="compY" x="512" y="1280" flags="0x4"/>
      <component glyphName="compY" x="512" y="768" flags="0x4"/>
      <component glyphName="compY" x="1024" y="768" flags="0x4"/>
      <component glyphName="compY" x="1024" y="1024" flags="0x4"/>
      <component glyphName="compY" x="768" y="768" flags="0x4"/>
    </TTGlyph>
    <TTGlyph name="P.3" xMin="383" yMin="127" xMax="1153" yMax="1409">
      <component glyphName="compG" x="256" y="0" flags="0x4"/>
      <component glyphName="compG" x="256" y="256" flags="0x4"/>
      <component glyphName="compG" x="256" y="512" flags="0x4"/>
      <component glyphName="compG" x="256" y="768" flags="0x4"/>
      <component glyphName="compG" x="256" y="1024" flags="0x4"/>
      <component glyphName="compG" x="256" y="1280" flags="0x4"/>
      <component glyphName="compG" x="1024" y="1280" flags="0x4"/>
      <component glyphName="compG" x="768" y="1280" flags="0x4"/>
      <component glyphName="compG" x="512" y="1280" flags="0x4"/>
      <component glyphName="compG" x="512" y="768" flags="0x4"/>
      <component glyphName="compG" x="1024" y="768" flags="0x4"/>
      <component glyphName="compG" x="1024" y="1024" flags="0x4"/>
      <component glyphName="compG" x="768" y="768" flags="0x4"/>
    </TTGlyph>
    <TTGlyph name="P.4" xMin="383" yMin="127" xMax="1153" yMax="1409">
      <component glyphName="compB" x="256" y="0" flags="0x4"/>
      <component glyphName="compB" x="256" y="256" flags="0x4"/>
      <component glyphName="compB" x="256" y="512" flags="0x4"/>
      <component glyphName="compB" x="256" y="768" flags="0x4"/>
      <component glyphName="compB" x="256" y="1024" flags="0x4"/>
      <component glyphName="compB" x="256" y="1280" flags="0x4"/>
      <component glyphName="compB" x="1024" y="1280" flags="0x4"/>
      <component glyphName="compB" x="768" y="1280" flags="0x4"/>
      <component glyphName="compB" x="512" y="1280" flags="0x4"/>
      <component glyphName="compB" x="512" y="768" flags="0x4"/>
      <component glyphName="compB" x="1024" y="768" flags="0x4"/>
      <component glyphName="compB" x="1024" y="1024" flags="0x4"/>
      <component glyphName="compB" x="768" y="768" flags="0x4"/>
    </TTGlyph>
    <TTGlyph name="P.5" xMin="383" yMin="127" xMax="1153" yMax="1409">
      <component glyphName="compI" x="256" y="0" flags="0x4"/>
      <component glyphName="compI" x="256" y="256" flags="0x4"/>
      <component glyphName="compI" x="256" y="512" flags="0x4"/>
      <component glyphName="compI" x="256" y="768" flags="0x4"/>
      <component glyphName="compI" x="256" y="1024" flags="0x4"/>
      <component glyphName="compI" x="256" y="1280" flags="0x4"/>
      <component glyphName="compI" x="1024" y="1280" flags="0x4"/>
      <component glyphName="compI" x="768" y="1280" flags="0x4"/>
      <component glyphName="compI" x="512" y="1280" flags="0x4"/>
      <component glyphName="compI" x="512" y="768" flags="0x4"/>
      <component glyphName="compI" x="1024" y="768" flags="0x4"/>
      <component glyphName="compI" x="1024" y="1024" flags="0x4"/>
      <component glyphName="compI" x="768" y="768" flags="0x4"/>
    </TTGlyph>
    <TTGlyph name="P.6" xMin="383" yMin="127" xMax="1153" yMax="1409">
      <component glyphName="compV" x="256" y="0" flags="0x4"/>
      <component glyphName="compV" x="256" y="256" flags="0x4"/>
      <component glyphName="compV" x="256" y="512" flags="0x4"/>
      <component glyphName="compV" x="256" y="768" flags="0x4"/>
      <component glyphName="compV" x="256" y="1024" flags="0x4"/>
      <component glyphName="compV" x="256" y="1280" flags="0x4"/>
      <component glyphName="compV" x="1024" y="1280" flags="0x4"/>
      <component glyphName="compV" x="768" y="1280" flags="0x4"/>
      <component glyphName="compV" x="512" y="1280" flags="0x4"/>
      <component glyphName="compV" x="512" y="768" flags="0x4"/>
      <component glyphName="compV" x="1024" y="768" flags="0x4"/>
      <component glyphName="compV" x="1024" y="1024" flags="0x4"/>
      <component glyphName="compV" x="768" y="768" flags="0x4"/>
    </TTGlyph>
    <TTGlyph name="Q" xMin="256" yMin="-512" xMax="1280" yMax="1536">
      <component glyphName="comp0" x="256" y="0" flags="0x4"/>
      <component glyphName="comp0" x="256" y="256" flags="0x4"/>
      <component glyphName="comp0" x="256" y="512" flags="0x4"/>
      <component glyphName="comp0" x="256" y="768" flags="0x4"/>
      <component glyphName="comp0" x="256" y="1024" flags="0x4"/>
      <component glyphName="comp0" x="256" y="1280" flags="0x4"/>
      <component glyphName="comp0" x="512" y="0" flags="0x4"/>
      <component glyphName="comp0" x="768" y="0" flags="0x4"/>
      <component glyphName="comp0" x="1024" y="-4" flags="0x4"/>
      <component glyphName="comp0" x="768" y="-256" flags="0x4"/>
      <component glyphName="comp0" x="1024" y="-512" flags="0x4"/>
      <component glyphName="comp0" x="1024" y="1280" flags="0x4"/>
      <component glyphName="comp0" x="768" y="1280" flags="0x4"/>
      <component glyphName="comp0" x="512" y="1280" flags="0x4"/>
      <component glyphName="comp0" x="1024" y="768" flags="0x4"/>
      <component glyphName="comp0" x="1024" y="1024" flags="0x4"/>
      <component glyphName="comp0" x="1024" y="512" flags="0x4"/>
      <component glyphName="comp0" x="1024" y="256" flags="0x4"/>
    </TTGlyph>
    <TTGlyph name="Q.0" xMin="383" yMin="-385" xMax="1153" yMax="1409">
      <component glyphName="compR" x="256" y="0" flags="0x4"/>
      <component glyphName="compR" x="256" y="256" flags="0x4"/>
      <component glyphName="compR" x="256" y="512" flags="0x4"/>
      <component glyphName="compR" x="256" y="768" flags="0x4"/>
      <component glyphName="compR" x="256" y="1024" flags="0x4"/>
      <component glyphName="compR" x="256" y="1280" flags="0x4"/>
      <component glyphName="compR" x="512" y="0" flags="0x4"/>
      <component glyphName="compR" x="768" y="0" flags="0x4"/>
      <component glyphName="compR" x="1024" y="-4" flags="0x4"/>
      <component glyphName="compR" x="768" y="-256" flags="0x4"/>
      <component glyphName="compR" x="1024" y="-512" flags="0x4"/>
      <component glyphName="compR" x="1024" y="1280" flags="0x4"/>
      <component glyphName="compR" x="768" y="1280" flags="0x4"/>
      <component glyphName="compR" x="512" y="1280" flags="0x4"/>
      <component glyphName="compR" x="1024" y="768" flags="0x4"/>
      <component glyphName="compR" x="1024" y="1024" flags="0x4"/>
      <component glyphName="compR" x="1024" y="512" flags="0x4"/>
      <component glyphName="compR" x="1024" y="256" flags="0x4"/>
    </TTGlyph>
    <TTGlyph name="Q.1" xMin="383" yMin="-385" xMax="1153" yMax="1409">
      <component glyphName="compO" x="256" y="0" flags="0x4"/>
      <component glyphName="compO" x="256" y="256" flags="0x4"/>
      <component glyphName="compO" x="256" y="512" flags="0x4"/>
      <component glyphName="compO" x="256" y="768" flags="0x4"/>
      <component glyphName="compO" x="256" y="1024" flags="0x4"/>
      <component glyphName="compO" x="256" y="1280" flags="0x4"/>
      <component glyphName="compO" x="512" y="0" flags="0x4"/>
      <component glyphName="compO" x="768" y="0" flags="0x4"/>
      <component glyphName="compO" x="1024" y="-4" flags="0x4"/>
      <component glyphName="compO" x="768" y="-256" flags="0x4"/>
      <component glyphName="compO" x="1024" y="-512" flags="0x4"/>
      <component glyphName="compO" x="1024" y="1280" flags="0x4"/>
      <component glyphName="compO" x="768" y="1280" flags="0x4"/>
      <component glyphName="compO" x="512" y="1280" flags="0x4"/>
      <component glyphName="compO" x="1024" y="768" flags="0x4"/>
      <component glyphName="compO" x="1024" y="1024" flags="0x4"/>
      <component glyphName="compO" x="1024" y="512" flags="0x4"/>
      <component glyphName="compO" x="1024" y="256" flags="0x4"/>
    </TTGlyph>
    <TTGlyph name="Q.2" xMin="383" yMin="-385" xMax="1153" yMax="1409">
      <component glyphName="compY" x="256" y="0" flags="0x4"/>
      <component glyphName="compY" x="256" y="256" flags="0x4"/>
      <component glyphName="compY" x="256" y="512" flags="0x4"/>
      <component glyphName="compY" x="256" y="768" flags="0x4"/>
      <component glyphName="compY" x="256" y="1024" flags="0x4"/>
      <component glyphName="compY" x="256" y="1280" flags="0x4"/>
      <component glyphName="compY" x="512" y="0" flags="0x4"/>
      <component glyphName="compY" x="768" y="0" flags="0x4"/>
      <component glyphName="compY" x="1024" y="-4" flags="0x4"/>
      <component glyphName="compY" x="768" y="-256" flags="0x4"/>
      <component glyphName="compY" x="1024" y="-512" flags="0x4"/>
      <component glyphName="compY" x="1024" y="1280" flags="0x4"/>
      <component glyphName="compY" x="768" y="1280" flags="0x4"/>
      <component glyphName="compY" x="512" y="1280" flags="0x4"/>
      <component glyphName="compY" x="1024" y="768" flags="0x4"/>
      <component glyphName="compY" x="1024" y="1024" flags="0x4"/>
      <component glyphName="compY" x="1024" y="512" flags="0x4"/>
      <component glyphName="compY" x="1024" y="256" flags="0x4"/>
    </TTGlyph>
    <TTGlyph name="Q.3" xMin="383" yMin="-385" xMax="1153" yMax="1409">
      <component glyphName="compG" x="256" y="0" flags="0x4"/>
      <component glyphName="compG" x="256" y="256" flags="0x4"/>
      <component glyphName="compG" x="256" y="512" flags="0x4"/>
      <component glyphName="compG" x="256" y="768" flags="0x4"/>
      <component glyphName="compG" x="256" y="1024" flags="0x4"/>
      <component glyphName="compG" x="256" y="1280" flags="0x4"/>
      <component glyphName="compG" x="512" y="0" flags="0x4"/>
      <component glyphName="compG" x="768" y="0" flags="0x4"/>
      <component glyphName="compG" x="1024" y="-4" flags="0x4"/>
      <component glyphName="compG" x="768" y="-256" flags="0x4"/>
      <component glyphName="compG" x="1024" y="-512" flags="0x4"/>
      <component glyphName="compG" x="1024" y="1280" flags="0x4"/>
      <component glyphName="compG" x="768" y="1280" flags="0x4"/>
      <component glyphName="compG" x="512" y="1280" flags="0x4"/>
      <component glyphName="compG" x="1024" y="768" flags="0x4"/>
      <component glyphName="compG" x="1024" y="1024" flags="0x4"/>
      <component glyphName="compG" x="1024" y="512" flags="0x4"/>
      <component glyphName="compG" x="1024" y="256" flags="0x4"/>
    </TTGlyph>
    <TTGlyph name="Q.4" xMin="383" yMin="-385" xMax="1153" yMax="1409">
      <component glyphName="compB" x="256" y="0" flags="0x4"/>
      <component glyphName="compB" x="256" y="256" flags="0x4"/>
      <component glyphName="compB" x="256" y="512" flags="0x4"/>
      <component glyphName="compB" x="256" y="768" flags="0x4"/>
      <component glyphName="compB" x="256" y="1024" flags="0x4"/>
      <component glyphName="compB" x="256" y="1280" flags="0x4"/>
      <component glyphName="compB" x="512" y="0" flags="0x4"/>
      <component glyphName="compB" x="768" y="0" flags="0x4"/>
      <component glyphName="compB" x="1024" y="-4" flags="0x4"/>
      <component glyphName="compB" x="768" y="-256" flags="0x4"/>
      <component glyphName="compB" x="1024" y="-512" flags="0x4"/>
      <component glyphName="compB" x="1024" y="1280" flags="0x4"/>
      <component glyphName="compB" x="768" y="1280" flags="0x4"/>
      <component glyphName="compB" x="512" y="1280" flags="0x4"/>
      <component glyphName="compB" x="1024" y="768" flags="0x4"/>
      <component glyphName="compB" x="1024" y="1024" flags="0x4"/>
      <component glyphName="compB" x="1024" y="512" flags="0x4"/>
      <component glyphName="compB" x="1024" y="256" flags="0x4"/>
    </TTGlyph>
    <TTGlyph name="Q.5" xMin="383" yMin="-385" xMax="1153" yMax="1409">
      <component glyphName="compI" x="256" y="0" flags="0x4"/>
      <component glyphName="compI" x="256" y="256" flags="0x4"/>
      <component glyphName="compI" x="256" y="512" flags="0x4"/>
      <component glyphName="compI" x="256" y="768" flags="0x4"/>
      <component glyphName="compI" x="256" y="1024" flags="0x4"/>
      <component glyphName="compI" x="256" y="1280" flags="0x4"/>
      <component glyphName="compI" x="512" y="0" flags="0x4"/>
      <component glyphName="compI" x="768" y="0" flags="0x4"/>
      <component glyphName="compI" x="1024" y="-4" flags="0x4"/>
      <component glyphName="compI" x="768" y="-256" flags="0x4"/>
      <component glyphName="compI" x="1024" y="-512" flags="0x4"/>
      <component glyphName="compI" x="1024" y="1280" flags="0x4"/>
      <component glyphName="compI" x="768" y="1280" flags="0x4"/>
      <component glyphName="compI" x="512" y="1280" flags="0x4"/>
      <component glyphName="compI" x="1024" y="768" flags="0x4"/>
      <component glyphName="compI" x="1024" y="1024" flags="0x4"/>
      <component glyphName="compI" x="1024" y="512" flags="0x4"/>
      <component glyphName="compI" x="1024" y="256" flags="0x4"/>
    </TTGlyph>
    <TTGlyph name="Q.6" xMin="383" yMin="-385" xMax="1153" yMax="1409">
      <component glyphName="compV" x="256" y="0" flags="0x4"/>
      <component glyphName="compV" x="256" y="256" flags="0x4"/>
      <component glyphName="compV" x="256" y="512" flags="0x4"/>
      <component glyphName="compV" x="256" y="768" flags="0x4"/>
      <component glyphName="compV" x="256" y="1024" flags="0x4"/>
      <component glyphName="compV" x="256" y="1280" flags="0x4"/>
      <component glyphName="compV" x="512" y="0" flags="0x4"/>
      <component glyphName="compV" x="768" y="0" flags="0x4"/>
      <component glyphName="compV" x="1024" y="-4" flags="0x4"/>
      <component glyphName="compV" x="768" y="-256" flags="0x4"/>
      <component glyphName="compV" x="1024" y="-512" flags="0x4"/>
      <component glyphName="compV" x="1024" y="1280" flags="0x4"/>
      <component glyphName="compV" x="768" y="1280" flags="0x4"/>
      <component glyphName="compV" x="512" y="1280" flags="0x4"/>
      <component glyphName="compV" x="1024" y="768" flags="0x4"/>
      <component glyphName="compV" x="1024" y="1024" flags="0x4"/>
      <component glyphName="compV" x="1024" y="512" flags="0x4"/>
      <component glyphName="compV" x="1024" y="256" flags="0x4"/>
    </TTGlyph>
    <TTGlyph name="R" xMin="256" yMin="0" xMax="1280" yMax="1536">
      <component glyphName="comp0" x="256" y="0" flags="0x4"/>
      <component glyphName="comp0" x="256" y="256" flags="0x4"/>
      <component glyphName="comp0" x="256" y="512" flags="0x4"/>
      <component glyphName="comp0" x="256" y="768" flags="0x4"/>
      <component glyphName="comp0" x="256" y="1024" flags="0x4"/>
      <component glyphName="comp0" x="256" y="1280" flags="0x4"/>
      <component glyphName="comp0" x="1024" y="0" flags="0x4"/>
      <component glyphName="comp0" x="1024" y="1280" flags="0x4"/>
      <component glyphName="comp0" x="768" y="1280" flags="0x4"/>
      <component glyphName="comp0" x="512" y="1280" flags="0x4"/>
      <component glyphName="comp0" x="512" y="768" flags="0x4"/>
      <component glyphName="comp0" x="1024" y="768" flags="0x4"/>
      <component glyphName="comp0" x="1024" y="1024" flags="0x4"/>
      <component glyphName="comp0" x="768" y="768" flags="0x4"/>
      <component glyphName="comp0" x="512" y="512" flags="0x4"/>
      <component glyphName="comp0" x="768" y="256" flags="0x4"/>
    </TTGlyph>
    <TTGlyph name="R.0" xMin="383" yMin="127" xMax="1153" yMax="1409">
      <component glyphName="compR" x="256" y="0" flags="0x4"/>
      <component glyphName="compR" x="256" y="256" flags="0x4"/>
      <component glyphName="compR" x="256" y="512" flags="0x4"/>
      <component glyphName="compR" x="256" y="768" flags="0x4"/>
      <component glyphName="compR" x="256" y="1024" flags="0x4"/>
      <component glyphName="compR" x="256" y="1280" flags="0x4"/>
      <component glyphName="compR" x="1024" y="0" flags="0x4"/>
      <component glyphName="compR" x="1024" y="1280" flags="0x4"/>
      <component glyphName="compR" x="768" y="1280" flags="0x4"/>
      <component glyphName="compR" x="512" y="1280" flags="0x4"/>
      <component glyphName="compR" x="512" y="768" flags="0x4"/>
      <component glyphName="compR" x="1024" y="768" flags="0x4"/>
      <component glyphName="compR" x="1024" y="1024" flags="0x4"/>
      <component glyphName="compR" x="768" y="768" flags="0x4"/>
      <component glyphName="compR" x="512" y="512" flags="0x4"/>
      <component glyphName="compR" x="768" y="256" flags="0x4"/>
    </TTGlyph>
    <TTGlyph name="R.1" xMin="383" yMin="127" xMax="1153" yMax="1409">
      <component glyphName="compO" x="256" y="0" flags="0x4"/>
      <component glyphName="compO" x="256" y="256" flags="0x4"/>
      <component glyphName="compO" x="256" y="512" flags="0x4"/>
      <component glyphName="compO" x="256" y="768" flags="0x4"/>
      <component glyphName="compO" x="256" y="1024" flags="0x4"/>
      <component glyphName="compO" x="256" y="1280" flags="0x4"/>
      <component glyphName="compO" x="1024" y="0" flags="0x4"/>
      <component glyphName="compO" x="1024" y="1280" flags="0x4"/>
      <component glyphName="compO" x="768" y="1280" flags="0x4"/>
      <component glyphName="compO" x="512" y="1280" flags="0x4"/>
      <component glyphName="compO" x="512" y="768" flags="0x4"/>
      <component glyphName="compO" x="1024" y="768" flags="0x4"/>
      <component glyphName="compO" x="1024" y="1024" flags="0x4"/>
      <component glyphName="compO" x="768" y="768" flags="0x4"/>
      <component glyphName="compO" x="512" y="512" flags="0x4"/>
      <component glyphName="compO" x="768" y="256" flags="0x4"/>
    </TTGlyph>
    <TTGlyph name="R.2" xMin="383" yMin="127" xMax="1153" yMax="1409">
      <component glyphName="compY" x="256" y="0" flags="0x4"/>
      <component glyphName="compY" x="256" y="256" flags="0x4"/>
      <component glyphName="compY" x="256" y="512" flags="0x4"/>
      <component glyphName="compY" x="256" y="768" flags="0x4"/>
      <component glyphName="compY" x="256" y="1024" flags="0x4"/>
      <component glyphName="compY" x="256" y="1280" flags="0x4"/>
      <component glyphName="compY" x="1024" y="0" flags="0x4"/>
      <component glyphName="compY" x="1024" y="1280" flags="0x4"/>
      <component glyphName="compY" x="768" y="1280" flags="0x4"/>
      <component glyphName="compY" x="512" y="1280" flags="0x4"/>
      <component glyphName="compY" x="512" y="768" flags="0x4"/>
      <component glyphName="compY" x="1024" y="768" flags="0x4"/>
      <component glyphName="compY" x="1024" y="1024" flags="0x4"/>
      <component glyphName="compY" x="768" y="768" flags="0x4"/>
      <component glyphName="compY" x="512" y="512" flags="0x4"/>
      <component glyphName="compY" x="768" y="256" flags="0x4"/>
    </TTGlyph>
    <TTGlyph name="R.3" xMin="383" yMin="127" xMax="1153" yMax="1409">
      <component glyphName="compG" x="256" y="0" flags="0x4"/>
      <component glyphName="compG" x="256" y="256" flags="0x4"/>
      <component glyphName="compG" x="256" y="512" flags="0x4"/>
      <component glyphName="compG" x="256" y="768" flags="0x4"/>
      <component glyphName="compG" x="256" y="1024" flags="0x4"/>
      <component glyphName="compG" x="256" y="1280" flags="0x4"/>
      <component glyphName="compG" x="1024" y="0" flags="0x4"/>
      <component glyphName="compG" x="1024" y="1280" flags="0x4"/>
      <component glyphName="compG" x="768" y="1280" flags="0x4"/>
      <component glyphName="compG" x="512" y="1280" flags="0x4"/>
      <component glyphName="compG" x="512" y="768" flags="0x4"/>
      <component glyphName="compG" x="1024" y="768" flags="0x4"/>
      <component glyphName="compG" x="1024" y="1024" flags="0x4"/>
      <component glyphName="compG" x="768" y="768" flags="0x4"/>
      <component glyphName="compG" x="512" y="512" flags="0x4"/>
      <component glyphName="compG" x="768" y="256" flags="0x4"/>
    </TTGlyph>
    <TTGlyph name="R.4" xMin="383" yMin="127" xMax="1153" yMax="1409">
      <component glyphName="compB" x="256" y="0" flags="0x4"/>
      <component glyphName="compB" x="256" y="256" flags="0x4"/>
      <component glyphName="compB" x="256" y="512" flags="0x4"/>
      <component glyphName="compB" x="256" y="768" flags="0x4"/>
      <component glyphName="compB" x="256" y="1024" flags="0x4"/>
      <component glyphName="compB" x="256" y="1280" flags="0x4"/>
      <component glyphName="compB" x="1024" y="0" flags="0x4"/>
      <component glyphName="compB" x="1024" y="1280" flags="0x4"/>
      <component glyphName="compB" x="768" y="1280" flags="0x4"/>
      <component glyphName="compB" x="512" y="1280" flags="0x4"/>
      <component glyphName="compB" x="512" y="768" flags="0x4"/>
      <component glyphName="compB" x="1024" y="768" flags="0x4"/>
      <component glyphName="compB" x="1024" y="1024" flags="0x4"/>
      <component glyphName="compB" x="768" y="768" flags="0x4"/>
      <component glyphName="compB" x="512" y="512" flags="0x4"/>
      <component glyphName="compB" x="768" y="256" flags="0x4"/>
    </TTGlyph>
    <TTGlyph name="R.5" xMin="383" yMin="127" xMax="1153" yMax="1409">
      <component glyphName="compI" x="256" y="0" flags="0x4"/>
      <component glyphName="compI" x="256" y="256" flags="0x4"/>
      <component glyphName="compI" x="256" y="512" flags="0x4"/>
      <component glyphName="compI" x="256" y="768" flags="0x4"/>
      <component glyphName="compI" x="256" y="1024" flags="0x4"/>
      <component glyphName="compI" x="256" y="1280" flags="0x4"/>
      <component glyphName="compI" x="1024" y="0" flags="0x4"/>
      <component glyphName="compI" x="1024" y="1280" flags="0x4"/>
      <component glyphName="compI" x="768" y="1280" flags="0x4"/>
      <component glyphName="compI" x="512" y="1280" flags="0x4"/>
      <component glyphName="compI" x="512" y="768" flags="0x4"/>
      <component glyphName="compI" x="1024" y="768" flags="0x4"/>
      <component glyphName="compI" x="1024" y="1024" flags="0x4"/>
      <component glyphName="compI" x="768" y="768" flags="0x4"/>
      <component glyphName="compI" x="512" y="512" flags="0x4"/>
      <component glyphName="compI" x="768" y="256" flags="0x4"/>
    </TTGlyph>
    <TTGlyph name="R.6" xMin="383" yMin="127" xMax="1153" yMax="1409">
      <component glyphName="compV" x="256" y="0" flags="0x4"/>
      <component glyphName="compV" x="256" y="256" flags="0x4"/>
      <component glyphName="compV" x="256" y="512" flags="0x4"/>
      <component glyphName="compV" x="256" y="768" flags="0x4"/>
      <component glyphName="compV" x="256" y="1024" flags="0x4"/>
      <component glyphName="compV" x="256" y="1280" flags="0x4"/>
      <component glyphName="compV" x="1024" y="0" flags="0x4"/>
      <component glyphName="compV" x="1024" y="1280" flags="0x4"/>
      <component glyphName="compV" x="768" y="1280" flags="0x4"/>
      <component glyphName="compV" x="512" y="1280" flags="0x4"/>
      <component glyphName="compV" x="512" y="768" flags="0x4"/>
      <component glyphName="compV" x="1024" y="768" flags="0x4"/>
      <component glyphName="compV" x="1024" y="1024" flags="0x4"/>
      <component glyphName="compV" x="768" y="768" flags="0x4"/>
      <component glyphName="compV" x="512" y="512" flags="0x4"/>
      <component glyphName="compV" x="768" y="256" flags="0x4"/>
    </TTGlyph>
    <TTGlyph name="S" xMin="256" yMin="0" xMax="1280" yMax="1536">
      <component glyphName="comp0" x="256" y="0" flags="0x4"/>
      <component glyphName="comp0" x="512" y="0" flags="0x4"/>
      <component glyphName="comp0" x="768" y="0" flags="0x4"/>
      <component glyphName="comp0" x="1024" y="0" flags="0x4"/>
      <component glyphName="comp0" x="768" y="1280" flags="0x4"/>
      <component glyphName="comp0" x="512" y="1280" flags="0x4"/>
      <component glyphName="comp0" x="256" y="1280" flags="0x4"/>
      <component glyphName="comp0" x="256" y="1024" flags="0x4"/>
      <component glyphName="comp0" x="512" y="768" flags="0x4"/>
      <component glyphName="comp0" x="768" y="512" flags="0x4"/>
      <component glyphName="comp0" x="1024" y="256" flags="0x4"/>
      <component glyphName="comp0" x="1024" y="1280" flags="0x4"/>
    </TTGlyph>
    <TTGlyph name="S.0" xMin="383" yMin="127" xMax="1153" yMax="1409">
      <component glyphName="compR" x="256" y="0" flags="0x4"/>
      <component glyphName="compR" x="512" y="0" flags="0x4"/>
      <component glyphName="compR" x="768" y="0" flags="0x4"/>
      <component glyphName="compR" x="1024" y="0" flags="0x4"/>
      <component glyphName="compR" x="768" y="1280" flags="0x4"/>
      <component glyphName="compR" x="512" y="1280" flags="0x4"/>
      <component glyphName="compR" x="256" y="1280" flags="0x4"/>
      <component glyphName="compR" x="256" y="1024" flags="0x4"/>
      <component glyphName="compR" x="512" y="768" flags="0x4"/>
      <component glyphName="compR" x="768" y="512" flags="0x4"/>
      <component glyphName="compR" x="1024" y="256" flags="0x4"/>
      <component glyphName="compR" x="1024" y="1280" flags="0x4"/>
    </TTGlyph>
    <TTGlyph name="S.1" xMin="383" yMin="127" xMax="1153" yMax="1409">
      <component glyphName="compO" x="256" y="0" flags="0x4"/>
      <component glyphName="compO" x="512" y="0" flags="0x4"/>
      <component glyphName="compO" x="768" y="0" flags="0x4"/>
      <component glyphName="compO" x="1024" y="0" flags="0x4"/>
      <component glyphName="compO" x="768" y="1280" flags="0x4"/>
      <component glyphName="compO" x="512" y="1280" flags="0x4"/>
      <component glyphName="compO" x="256" y="1280" flags="0x4"/>
      <component glyphName="compO" x="256" y="1024" flags="0x4"/>
      <component glyphName="compO" x="512" y="768" flags="0x4"/>
      <component glyphName="compO" x="768" y="512" flags="0x4"/>
      <component glyphName="compO" x="1024" y="256" flags="0x4"/>
      <component glyphName="compO" x="1024" y="1280" flags="0x4"/>
    </TTGlyph>
    <TTGlyph name="S.2" xMin="383" yMin="127" xMax="1153" yMax="1409">
      <component glyphName="compY" x="256" y="0" flags="0x4"/>
      <component glyphName="compY" x="512" y="0" flags="0x4"/>
      <component glyphName="compY" x="768" y="0" flags="0x4"/>
      <component glyphName="compY" x="1024" y="0" flags="0x4"/>
      <component glyphName="compY" x="768" y="1280" flags="0x4"/>
      <component glyphName="compY" x="512" y="1280" flags="0x4"/>
      <component glyphName="compY" x="256" y="1280" flags="0x4"/>
      <component glyphName="compY" x="256" y="1024" flags="0x4"/>
      <component glyphName="compY" x="512" y="768" flags="0x4"/>
      <component glyphName="compY" x="768" y="512" flags="0x4"/>
      <component glyphName="compY" x="1024" y="256" flags="0x4"/>
      <component glyphName="compY" x="1024" y="1280" flags="0x4"/>
    </TTGlyph>
    <TTGlyph name="S.3" xMin="383" yMin="127" xMax="1153" yMax="1409">
      <component glyphName="compG" x="256" y="0" flags="0x4"/>
      <component glyphName="compG" x="512" y="0" flags="0x4"/>
      <component glyphName="compG" x="768" y="0" flags="0x4"/>
      <component glyphName="compG" x="1024" y="0" flags="0x4"/>
      <component glyphName="compG" x="768" y="1280" flags="0x4"/>
      <component glyphName="compG" x="512" y="1280" flags="0x4"/>
      <component glyphName="compG" x="256" y="1280" flags="0x4"/>
      <component glyphName="compG" x="256" y="1024" flags="0x4"/>
      <component glyphName="compG" x="512" y="768" flags="0x4"/>
      <component glyphName="compG" x="768" y="512" flags="0x4"/>
      <component glyphName="compG" x="1024" y="256" flags="0x4"/>
      <component glyphName="compG" x="1024" y="1280" flags="0x4"/>
    </TTGlyph>
    <TTGlyph name="S.4" xMin="383" yMin="127" xMax="1153" yMax="1409">
      <component glyphName="compB" x="256" y="0" flags="0x4"/>
      <component glyphName="compB" x="512" y="0" flags="0x4"/>
      <component glyphName="compB" x="768" y="0" flags="0x4"/>
      <component glyphName="compB" x="1024" y="0" flags="0x4"/>
      <component glyphName="compB" x="768" y="1280" flags="0x4"/>
      <component glyphName="compB" x="512" y="1280" flags="0x4"/>
      <component glyphName="compB" x="256" y="1280" flags="0x4"/>
      <component glyphName="compB" x="256" y="1024" flags="0x4"/>
      <component glyphName="compB" x="512" y="768" flags="0x4"/>
      <component glyphName="compB" x="768" y="512" flags="0x4"/>
      <component glyphName="compB" x="1024" y="256" flags="0x4"/>
      <component glyphName="compB" x="1024" y="1280" flags="0x4"/>
    </TTGlyph>
    <TTGlyph name="S.5" xMin="383" yMin="127" xMax="1153" yMax="1409">
      <component glyphName="compI" x="256" y="0" flags="0x4"/>
      <component glyphName="compI" x="512" y="0" flags="0x4"/>
      <component glyphName="compI" x="768" y="0" flags="0x4"/>
      <component glyphName="compI" x="1024" y="0" flags="0x4"/>
      <component glyphName="compI" x="768" y="1280" flags="0x4"/>
      <component glyphName="compI" x="512" y="1280" flags="0x4"/>
      <component glyphName="compI" x="256" y="1280" flags="0x4"/>
      <component glyphName="compI" x="256" y="1024" flags="0x4"/>
      <component glyphName="compI" x="512" y="768" flags="0x4"/>
      <component glyphName="compI" x="768" y="512" flags="0x4"/>
      <component glyphName="compI" x="1024" y="256" flags="0x4"/>
      <component glyphName="compI" x="1024" y="1280" flags="0x4"/>
    </TTGlyph>
    <TTGlyph name="S.6" xMin="383" yMin="127" xMax="1153" yMax="1409">
      <component glyphName="compV" x="256" y="0" flags="0x4"/>
      <component glyphName="compV" x="512" y="0" flags="0x4"/>
      <component glyphName="compV" x="768" y="0" flags="0x4"/>
      <component glyphName="compV" x="1024" y="0" flags="0x4"/>
      <component glyphName="compV" x="768" y="1280" flags="0x4"/>
      <component glyphName="compV" x="512" y="1280" flags="0x4"/>
      <component glyphName="compV" x="256" y="1280" flags="0x4"/>
      <component glyphName="compV" x="256" y="1024" flags="0x4"/>
      <component glyphName="compV" x="512" y="768" flags="0x4"/>
      <component glyphName="compV" x="768" y="512" flags="0x4"/>
      <component glyphName="compV" x="1024" y="256" flags="0x4"/>
      <component glyphName="compV" x="1024" y="1280" flags="0x4"/>
    </TTGlyph>
    <TTGlyph name="T" xMin="256" yMin="0" xMax="1536" yMax="1536">
      <component glyphName="comp0" x="256" y="1280" flags="0x4"/>
      <component glyphName="comp0" x="768" y="0" flags="0x4"/>
      <component glyphName="comp0" x="1024" y="1280" flags="0x4"/>
      <component glyphName="comp0" x="768" y="1280" flags="0x4"/>
      <component glyphName="comp0" x="512" y="1280" flags="0x4"/>
      <component glyphName="comp0" x="768" y="256" flags="0x4"/>
      <component glyphName="comp0" x="768" y="512" flags="0x4"/>
      <component glyphName="comp0" x="768" y="1024" flags="0x4"/>
      <component glyphName="comp0" x="768" y="768" flags="0x4"/>
      <component glyphName="comp0" x="1280" y="1280" flags="0x4"/>
    </TTGlyph>
    <TTGlyph name="T.0" xMin="383" yMin="127" xMax="1409" yMax="1409">
      <component glyphName="compR" x="256" y="1280" flags="0x4"/>
      <component glyphName="compR" x="768" y="0" flags="0x4"/>
      <component glyphName="compR" x="1024" y="1280" flags="0x4"/>
      <component glyphName="compR" x="768" y="1280" flags="0x4"/>
      <component glyphName="compR" x="512" y="1280" flags="0x4"/>
      <component glyphName="compR" x="768" y="256" flags="0x4"/>
      <component glyphName="compR" x="768" y="512" flags="0x4"/>
      <component glyphName="compR" x="768" y="1024" flags="0x4"/>
      <component glyphName="compR" x="768" y="768" flags="0x4"/>
      <component glyphName="compR" x="1280" y="1280" flags="0x4"/>
    </TTGlyph>
    <TTGlyph name="T.1" xMin="383" yMin="127" xMax="1409" yMax="1409">
      <component glyphName="compO" x="256" y="1280" flags="0x4"/>
      <component glyphName="compO" x="768" y="0" flags="0x4"/>
      <component glyphName="compO" x="1024" y="1280" flags="0x4"/>
      <component glyphName="compO" x="768" y="1280" flags="0x4"/>
      <component glyphName="compO" x="512" y="1280" flags="0x4"/>
      <component glyphName="compO" x="768" y="256" flags="0x4"/>
      <component glyphName="compO" x="768" y="512" flags="0x4"/>
      <component glyphName="compO" x="768" y="1024" flags="0x4"/>
      <component glyphName="compO" x="768" y="768" flags="0x4"/>
      <component glyphName="compO" x="1280" y="1280" flags="0x4"/>
    </TTGlyph>
    <TTGlyph name="T.2" xMin="383" yMin="127" xMax="1409" yMax="1409">
      <component glyphName="compY" x="256" y="1280" flags="0x4"/>
      <component glyphName="compY" x="768" y="0" flags="0x4"/>
      <component glyphName="compY" x="1024" y="1280" flags="0x4"/>
      <component glyphName="compY" x="768" y="1280" flags="0x4"/>
      <component glyphName="compY" x="512" y="1280" flags="0x4"/>
      <component glyphName="compY" x="768" y="256" flags="0x4"/>
      <component glyphName="compY" x="768" y="512" flags="0x4"/>
      <component glyphName="compY" x="768" y="1024" flags="0x4"/>
      <component glyphName="compY" x="768" y="768" flags="0x4"/>
      <component glyphName="compY" x="1280" y="1280" flags="0x4"/>
    </TTGlyph>
    <TTGlyph name="T.3" xMin="383" yMin="127" xMax="1409" yMax="1409">
      <component glyphName="compG" x="256" y="1280" flags="0x4"/>
      <component glyphName="compG" x="768" y="0" flags="0x4"/>
      <component glyphName="compG" x="1024" y="1280" flags="0x4"/>
      <component glyphName="compG" x="768" y="1280" flags="0x4"/>
      <component glyphName="compG" x="512" y="1280" flags="0x4"/>
      <component glyphName="compG" x="768" y="256" flags="0x4"/>
      <component glyphName="compG" x="768" y="512" flags="0x4"/>
      <component glyphName="compG" x="768" y="1024" flags="0x4"/>
      <component glyphName="compG" x="768" y="768" flags="0x4"/>
      <component glyphName="compG" x="1280" y="1280" flags="0x4"/>
    </TTGlyph>
    <TTGlyph name="T.4" xMin="383" yMin="127" xMax="1409" yMax="1409">
      <component glyphName="compB" x="256" y="1280" flags="0x4"/>
      <component glyphName="compB" x="768" y="0" flags="0x4"/>
      <component glyphName="compB" x="1024" y="1280" flags="0x4"/>
      <component glyphName="compB" x="768" y="1280" flags="0x4"/>
      <component glyphName="compB" x="512" y="1280" flags="0x4"/>
      <component glyphName="compB" x="768" y="256" flags="0x4"/>
      <component glyphName="compB" x="768" y="512" flags="0x4"/>
      <component glyphName="compB" x="768" y="1024" flags="0x4"/>
      <component glyphName="compB" x="768" y="768" flags="0x4"/>
      <component glyphName="compB" x="1280" y="1280" flags="0x4"/>
    </TTGlyph>
    <TTGlyph name="T.5" xMin="383" yMin="127" xMax="1409" yMax="1409">
      <component glyphName="compI" x="256" y="1280" flags="0x4"/>
      <component glyphName="compI" x="768" y="0" flags="0x4"/>
      <component glyphName="compI" x="1024" y="1280" flags="0x4"/>
      <component glyphName="compI" x="768" y="1280" flags="0x4"/>
      <component glyphName="compI" x="512" y="1280" flags="0x4"/>
      <component glyphName="compI" x="768" y="256" flags="0x4"/>
      <component glyphName="compI" x="768" y="512" flags="0x4"/>
      <component glyphName="compI" x="768" y="1024" flags="0x4"/>
      <component glyphName="compI" x="768" y="768" flags="0x4"/>
      <component glyphName="compI" x="1280" y="1280" flags="0x4"/>
    </TTGlyph>
    <TTGlyph name="T.6" xMin="383" yMin="127" xMax="1409" yMax="1409">
      <component glyphName="compV" x="256" y="1280" flags="0x4"/>
      <component glyphName="compV" x="768" y="0" flags="0x4"/>
      <component glyphName="compV" x="1024" y="1280" flags="0x4"/>
      <component glyphName="compV" x="768" y="1280" flags="0x4"/>
      <component glyphName="compV" x="512" y="1280" flags="0x4"/>
      <component glyphName="compV" x="768" y="256" flags="0x4"/>
      <component glyphName="compV" x="768" y="512" flags="0x4"/>
      <component glyphName="compV" x="768" y="1024" flags="0x4"/>
      <component glyphName="compV" x="768" y="768" flags="0x4"/>
      <component glyphName="compV" x="1280" y="1280" flags="0x4"/>
    </TTGlyph>
    <TTGlyph name="U" xMin="256" yMin="0" xMax="1280" yMax="1536">
      <component glyphName="comp0" x="256" y="0" flags="0x4"/>
      <component glyphName="comp0" x="256" y="256" flags="0x4"/>
      <component glyphName="comp0" x="256" y="512" flags="0x4"/>
      <component glyphName="comp0" x="256" y="768" flags="0x4"/>
      <component glyphName="comp0" x="256" y="1280" flags="0x4"/>
      <component glyphName="comp0" x="512" y="0" flags="0x4"/>
      <component glyphName="comp0" x="768" y="0" flags="0x4"/>
      <component glyphName="comp0" x="1024" y="0" flags="0x4"/>
      <component glyphName="comp0" x="1024" y="1280" flags="0x4"/>
      <component glyphName="comp0" x="1024" y="768" flags="0x4"/>
      <component glyphName="comp0" x="1024" y="1024" flags="0x4"/>
      <component glyphName="comp0" x="1024" y="512" flags="0x4"/>
      <component glyphName="comp0" x="1024" y="256" flags="0x4"/>
      <component glyphName="comp0" x="256" y="1024" flags="0x4"/>
    </TTGlyph>
    <TTGlyph name="U.0" xMin="383" yMin="127" xMax="1153" yMax="1409">
      <component glyphName="compR" x="256" y="0" flags="0x4"/>
      <component glyphName="compR" x="256" y="256" flags="0x4"/>
      <component glyphName="compR" x="256" y="512" flags="0x4"/>
      <component glyphName="compR" x="256" y="768" flags="0x4"/>
      <component glyphName="compR" x="256" y="1280" flags="0x4"/>
      <component glyphName="compR" x="512" y="0" flags="0x4"/>
      <component glyphName="compR" x="768" y="0" flags="0x4"/>
      <component glyphName="compR" x="1024" y="0" flags="0x4"/>
      <component glyphName="compR" x="1024" y="1280" flags="0x4"/>
      <component glyphName="compR" x="1024" y="768" flags="0x4"/>
      <component glyphName="compR" x="1024" y="1024" flags="0x4"/>
      <component glyphName="compR" x="1024" y="512" flags="0x4"/>
      <component glyphName="compR" x="1024" y="256" flags="0x4"/>
      <component glyphName="compR" x="256" y="1024" flags="0x4"/>
    </TTGlyph>
    <TTGlyph name="U.1" xMin="383" yMin="127" xMax="1153" yMax="1409">
      <component glyphName="compO" x="256" y="0" flags="0x4"/>
      <component glyphName="compO" x="256" y="256" flags="0x4"/>
      <component glyphName="compO" x="256" y="512" flags="0x4"/>
      <component glyphName="compO" x="256" y="768" flags="0x4"/>
      <component glyphName="compO" x="256" y="1280" flags="0x4"/>
      <component glyphName="compO" x="512" y="0" flags="0x4"/>
      <component glyphName="compO" x="768" y="0" flags="0x4"/>
      <component glyphName="compO" x="1024" y="0" flags="0x4"/>
      <component glyphName="compO" x="1024" y="1280" flags="0x4"/>
      <component glyphName="compO" x="1024" y="768" flags="0x4"/>
      <component glyphName="compO" x="1024" y="1024" flags="0x4"/>
      <component glyphName="compO" x="1024" y="512" flags="0x4"/>
      <component glyphName="compO" x="1024" y="256" flags="0x4"/>
      <component glyphName="compO" x="256" y="1024" flags="0x4"/>
    </TTGlyph>
    <TTGlyph name="U.2" xMin="383" yMin="127" xMax="1153" yMax="1409">
      <component glyphName="compY" x="256" y="0" flags="0x4"/>
      <component glyphName="compY" x="256" y="256" flags="0x4"/>
      <component glyphName="compY" x="256" y="512" flags="0x4"/>
      <component glyphName="compY" x="256" y="768" flags="0x4"/>
      <component glyphName="compY" x="256" y="1280" flags="0x4"/>
      <component glyphName="compY" x="512" y="0" flags="0x4"/>
      <component glyphName="compY" x="768" y="0" flags="0x4"/>
      <component glyphName="compY" x="1024" y="0" flags="0x4"/>
      <component glyphName="compY" x="1024" y="1280" flags="0x4"/>
      <component glyphName="compY" x="1024" y="768" flags="0x4"/>
      <component glyphName="compY" x="1024" y="1024" flags="0x4"/>
      <component glyphName="compY" x="1024" y="512" flags="0x4"/>
      <component glyphName="compY" x="1024" y="256" flags="0x4"/>
      <component glyphName="compY" x="256" y="1024" flags="0x4"/>
    </TTGlyph>
    <TTGlyph name="U.3" xMin="383" yMin="127" xMax="1153" yMax="1409">
      <component glyphName="compG" x="256" y="0" flags="0x4"/>
      <component glyphName="compG" x="256" y="256" flags="0x4"/>
      <component glyphName="compG" x="256" y="512" flags="0x4"/>
      <component glyphName="compG" x="256" y="768" flags="0x4"/>
      <component glyphName="compG" x="256" y="1280" flags="0x4"/>
      <component glyphName="compG" x="512" y="0" flags="0x4"/>
      <component glyphName="compG" x="768" y="0" flags="0x4"/>
      <component glyphName="compG" x="1024" y="0" flags="0x4"/>
      <component glyphName="compG" x="1024" y="1280" flags="0x4"/>
      <component glyphName="compG" x="1024" y="768" flags="0x4"/>
      <component glyphName="compG" x="1024" y="1024" flags="0x4"/>
      <component glyphName="compG" x="1024" y="512" flags="0x4"/>
      <component glyphName="compG" x="1024" y="256" flags="0x4"/>
      <component glyphName="compG" x="256" y="1024" flags="0x4"/>
    </TTGlyph>
    <TTGlyph name="U.4" xMin="383" yMin="127" xMax="1153" yMax="1409">
      <component glyphName="compB" x="256" y="0" flags="0x4"/>
      <component glyphName="compB" x="256" y="256" flags="0x4"/>
      <component glyphName="compB" x="256" y="512" flags="0x4"/>
      <component glyphName="compB" x="256" y="768" flags="0x4"/>
      <component glyphName="compB" x="256" y="1280" flags="0x4"/>
      <component glyphName="compB" x="512" y="0" flags="0x4"/>
      <component glyphName="compB" x="768" y="0" flags="0x4"/>
      <component glyphName="compB" x="1024" y="0" flags="0x4"/>
      <component glyphName="compB" x="1024" y="1280" flags="0x4"/>
      <component glyphName="compB" x="1024" y="768" flags="0x4"/>
      <component glyphName="compB" x="1024" y="1024" flags="0x4"/>
      <component glyphName="compB" x="1024" y="512" flags="0x4"/>
      <component glyphName="compB" x="1024" y="256" flags="0x4"/>
      <component glyphName="compB" x="256" y="1024" flags="0x4"/>
    </TTGlyph>
    <TTGlyph name="U.5" xMin="383" yMin="127" xMax="1153" yMax="1409">
      <component glyphName="compI" x="256" y="0" flags="0x4"/>
      <component glyphName="compI" x="256" y="256" flags="0x4"/>
      <component glyphName="compI" x="256" y="512" flags="0x4"/>
      <component glyphName="compI" x="256" y="768" flags="0x4"/>
      <component glyphName="compI" x="256" y="1280" flags="0x4"/>
      <component glyphName="compI" x="512" y="0" flags="0x4"/>
      <component glyphName="compI" x="768" y="0" flags="0x4"/>
      <component glyphName="compI" x="1024" y="0" flags="0x4"/>
      <component glyphName="compI" x="1024" y="1280" flags="0x4"/>
      <component glyphName="compI" x="1024" y="768" flags="0x4"/>
      <component glyphName="compI" x="1024" y="1024" flags="0x4"/>
      <component glyphName="compI" x="1024" y="512" flags="0x4"/>
      <component glyphName="compI" x="1024" y="256" flags="0x4"/>
      <component glyphName="compI" x="256" y="1024" flags="0x4"/>
    </TTGlyph>
    <TTGlyph name="U.6" xMin="383" yMin="127" xMax="1153" yMax="1409">
      <component glyphName="compV" x="256" y="0" flags="0x4"/>
      <component glyphName="compV" x="256" y="256" flags="0x4"/>
      <component glyphName="compV" x="256" y="512" flags="0x4"/>
      <component glyphName="compV" x="256" y="768" flags="0x4"/>
      <component glyphName="compV" x="256" y="1280" flags="0x4"/>
      <component glyphName="compV" x="512" y="0" flags="0x4"/>
      <component glyphName="compV" x="768" y="0" flags="0x4"/>
      <component glyphName="compV" x="1024" y="0" flags="0x4"/>
      <component glyphName="compV" x="1024" y="1280" flags="0x4"/>
      <component glyphName="compV" x="1024" y="768" flags="0x4"/>
      <component glyphName="compV" x="1024" y="1024" flags="0x4"/>
      <component glyphName="compV" x="1024" y="512" flags="0x4"/>
      <component glyphName="compV" x="1024" y="256" flags="0x4"/>
      <component glyphName="compV" x="256" y="1024" flags="0x4"/>
    </TTGlyph>
    <TTGlyph name="V" xMin="256" yMin="-4" xMax="1536" yMax="1536">
      <component glyphName="comp0" x="256" y="1024" flags="0x4"/>
      <component glyphName="comp0" x="256" y="1280" flags="0x4"/>
      <component glyphName="comp0" x="752" y="-4" flags="0x4"/>
      <component glyphName="comp0" x="1280" y="512" flags="0x4"/>
      <component glyphName="comp0" x="1280" y="768" flags="0x4"/>
      <component glyphName="comp0" x="1280" y="1024" flags="0x4"/>
      <component glyphName="comp0" x="1280" y="1280" flags="0x4"/>
      <component glyphName="comp0" x="256" y="512" flags="0x4"/>
      <component glyphName="comp0" x="256" y="768" flags="0x4"/>
      <component glyphName="comp0" x="519" y="249" flags="0x4"/>
      <component glyphName="comp0" x="1024" y="256" flags="0x4"/>
    </TTGlyph>
    <TTGlyph name="V.0" xMin="383" yMin="123" xMax="1409" yMax="1409">
      <component glyphName="compR" x="256" y="1024" flags="0x4"/>
      <component glyphName="compR" x="256" y="1280" flags="0x4"/>
      <component glyphName="compR" x="752" y="-4" flags="0x4"/>
      <component glyphName="compR" x="1280" y="512" flags="0x4"/>
      <component glyphName="compR" x="1280" y="768" flags="0x4"/>
      <component glyphName="compR" x="1280" y="1024" flags="0x4"/>
      <component glyphName="compR" x="1280" y="1280" flags="0x4"/>
      <component glyphName="compR" x="256" y="512" flags="0x4"/>
      <component glyphName="compR" x="256" y="768" flags="0x4"/>
      <component glyphName="compR" x="519" y="249" flags="0x4"/>
      <component glyphName="compR" x="1024" y="256" flags="0x4"/>
    </TTGlyph>
    <TTGlyph name="V.1" xMin="383" yMin="123" xMax="1409" yMax="1409">
      <component glyphName="compO" x="256" y="1024" flags="0x4"/>
      <component glyphName="compO" x="256" y="1280" flags="0x4"/>
      <component glyphName="compO" x="752" y="-4" flags="0x4"/>
      <component glyphName="compO" x="1280" y="512" flags="0x4"/>
      <component glyphName="compO" x="1280" y="768" flags="0x4"/>
      <component glyphName="compO" x="1280" y="1024" flags="0x4"/>
      <component glyphName="compO" x="1280" y="1280" flags="0x4"/>
      <component glyphName="compO" x="256" y="512" flags="0x4"/>
      <component glyphName="compO" x="256" y="768" flags="0x4"/>
      <component glyphName="compO" x="519" y="249" flags="0x4"/>
      <component glyphName="compO" x="1024" y="256" flags="0x4"/>
    </TTGlyph>
    <TTGlyph name="V.2" xMin="383" yMin="123" xMax="1409" yMax="1409">
      <component glyphName="compY" x="256" y="1024" flags="0x4"/>
      <component glyphName="compY" x="256" y="1280" flags="0x4"/>
      <component glyphName="compY" x="752" y="-4" flags="0x4"/>
      <component glyphName="compY" x="1280" y="512" flags="0x4"/>
      <component glyphName="compY" x="1280" y="768" flags="0x4"/>
      <component glyphName="compY" x="1280" y="1024" flags="0x4"/>
      <component glyphName="compY" x="1280" y="1280" flags="0x4"/>
      <component glyphName="compY" x="256" y="512" flags="0x4"/>
      <component glyphName="compY" x="256" y="768" flags="0x4"/>
      <component glyphName="compY" x="519" y="249" flags="0x4"/>
      <component glyphName="compY" x="1024" y="256" flags="0x4"/>
    </TTGlyph>
    <TTGlyph name="V.3" xMin="383" yMin="123" xMax="1409" yMax="1409">
      <component glyphName="compG" x="256" y="1024" flags="0x4"/>
      <component glyphName="compG" x="256" y="1280" flags="0x4"/>
      <component glyphName="compG" x="752" y="-4" flags="0x4"/>
      <component glyphName="compG" x="1280" y="512" flags="0x4"/>
      <component glyphName="compG" x="1280" y="768" flags="0x4"/>
      <component glyphName="compG" x="1280" y="1024" flags="0x4"/>
      <component glyphName="compG" x="1280" y="1280" flags="0x4"/>
      <component glyphName="compG" x="256" y="512" flags="0x4"/>
      <component glyphName="compG" x="256" y="768" flags="0x4"/>
      <component glyphName="compG" x="519" y="249" flags="0x4"/>
      <component glyphName="compG" x="1024" y="256" flags="0x4"/>
    </TTGlyph>
    <TTGlyph name="V.4" xMin="383" yMin="123" xMax="1409" yMax="1409">
      <component glyphName="compB" x="256" y="1024" flags="0x4"/>
      <component glyphName="compB" x="256" y="1280" flags="0x4"/>
      <component glyphName="compB" x="752" y="-4" flags="0x4"/>
      <component glyphName="compB" x="1280" y="512" flags="0x4"/>
      <component glyphName="compB" x="1280" y="768" flags="0x4"/>
      <component glyphName="compB" x="1280" y="1024" flags="0x4"/>
      <component glyphName="compB" x="1280" y="1280" flags="0x4"/>
      <component glyphName="compB" x="256" y="512" flags="0x4"/>
      <component glyphName="compB" x="256" y="768" flags="0x4"/>
      <component glyphName="compB" x="519" y="249" flags="0x4"/>
      <component glyphName="compB" x="1024" y="256" flags="0x4"/>
    </TTGlyph>
    <TTGlyph name="V.5" xMin="383" yMin="123" xMax="1409" yMax="1409">
      <component glyphName="compI" x="256" y="1024" flags="0x4"/>
      <component glyphName="compI" x="256" y="1280" flags="0x4"/>
      <component glyphName="compI" x="752" y="-4" flags="0x4"/>
      <component glyphName="compI" x="1280" y="512" flags="0x4"/>
      <component glyphName="compI" x="1280" y="768" flags="0x4"/>
      <component glyphName="compI" x="1280" y="1024" flags="0x4"/>
      <component glyphName="compI" x="1280" y="1280" flags="0x4"/>
      <component glyphName="compI" x="256" y="512" flags="0x4"/>
      <component glyphName="compI" x="256" y="768" flags="0x4"/>
      <component glyphName="compI" x="519" y="249" flags="0x4"/>
      <component glyphName="compI" x="1024" y="256" flags="0x4"/>
    </TTGlyph>
    <TTGlyph name="V.6" xMin="383" yMin="123" xMax="1409" yMax="1409">
      <component glyphName="compV" x="256" y="1024" flags="0x4"/>
      <component glyphName="compV" x="256" y="1280" flags="0x4"/>
      <component glyphName="compV" x="752" y="-4" flags="0x4"/>
      <component glyphName="compV" x="1280" y="512" flags="0x4"/>
      <component glyphName="compV" x="1280" y="768" flags="0x4"/>
      <component glyphName="compV" x="1280" y="1024" flags="0x4"/>
      <component glyphName="compV" x="1280" y="1280" flags="0x4"/>
      <component glyphName="compV" x="256" y="512" flags="0x4"/>
      <component glyphName="compV" x="256" y="768" flags="0x4"/>
      <component glyphName="compV" x="519" y="249" flags="0x4"/>
      <component glyphName="compV" x="1024" y="256" flags="0x4"/>
    </TTGlyph>
    <TTGlyph name="W" xMin="256" yMin="0" xMax="1536" yMax="1536">
      <component glyphName="comp0" x="256" y="0" flags="0x4"/>
      <component glyphName="comp0" x="256" y="256" flags="0x4"/>
      <component glyphName="comp0" x="256" y="512" flags="0x4"/>
      <component glyphName="comp0" x="256" y="768" flags="0x4"/>
      <component glyphName="comp0" x="256" y="1024" flags="0x4"/>
      <component glyphName="comp0" x="256" y="1280" flags="0x4"/>
      <component glyphName="comp0" x="1280" y="0" flags="0x4"/>
      <component glyphName="comp0" x="1280" y="256" flags="0x4"/>
      <component glyphName="comp0" x="1280" y="512" flags="0x4"/>
      <component glyphName="comp0" x="1280" y="768" flags="0x4"/>
      <component glyphName="comp0" x="1280" y="1024" flags="0x4"/>
      <component glyphName="comp0" x="1280" y="1280" flags="0x4"/>
      <component glyphName="comp0" x="512" y="256" flags="0x4"/>
      <component glyphName="comp0" x="768" y="512" flags="0x4"/>
      <component glyphName="comp0" x="1024" y="256" flags="0x4"/>
      <component glyphName="comp0" x="256" y="0" flags="0x4"/>
    </TTGlyph>
    <TTGlyph name="W.0" xMin="383" yMin="127" xMax="1409" yMax="1409">
      <component glyphName="compR" x="256" y="0" flags="0x4"/>
      <component glyphName="compR" x="256" y="256" flags="0x4"/>
      <component glyphName="compR" x="256" y="512" flags="0x4"/>
      <component glyphName="compR" x="256" y="768" flags="0x4"/>
      <component glyphName="compR" x="256" y="1024" flags="0x4"/>
      <component glyphName="compR" x="256" y="1280" flags="0x4"/>
      <component glyphName="compR" x="1280" y="0" flags="0x4"/>
      <component glyphName="compR" x="1280" y="256" flags="0x4"/>
      <component glyphName="compR" x="1280" y="512" flags="0x4"/>
      <component glyphName="compR" x="1280" y="768" flags="0x4"/>
      <component glyphName="compR" x="1280" y="1024" flags="0x4"/>
      <component glyphName="compR" x="1280" y="1280" flags="0x4"/>
      <component glyphName="compR" x="512" y="256" flags="0x4"/>
      <component glyphName="compR" x="768" y="512" flags="0x4"/>
      <component glyphName="compR" x="1024" y="256" flags="0x4"/>
      <component glyphName="compR" x="256" y="0" flags="0x4"/>
    </TTGlyph>
    <TTGlyph name="W.1" xMin="383" yMin="127" xMax="1409" yMax="1409">
      <component glyphName="compO" x="256" y="0" flags="0x4"/>
      <component glyphName="compO" x="256" y="256" flags="0x4"/>
      <component glyphName="compO" x="256" y="512" flags="0x4"/>
      <component glyphName="compO" x="256" y="768" flags="0x4"/>
      <component glyphName="compO" x="256" y="1024" flags="0x4"/>
      <component glyphName="compO" x="256" y="1280" flags="0x4"/>
      <component glyphName="compO" x="1280" y="0" flags="0x4"/>
      <component glyphName="compO" x="1280" y="256" flags="0x4"/>
      <component glyphName="compO" x="1280" y="512" flags="0x4"/>
      <component glyphName="compO" x="1280" y="768" flags="0x4"/>
      <component glyphName="compO" x="1280" y="1024" flags="0x4"/>
      <component glyphName="compO" x="1280" y="1280" flags="0x4"/>
      <component glyphName="compO" x="512" y="256" flags="0x4"/>
      <component glyphName="compO" x="768" y="512" flags="0x4"/>
      <component glyphName="compO" x="1024" y="256" flags="0x4"/>
      <component glyphName="compO" x="256" y="0" flags="0x4"/>
    </TTGlyph>
    <TTGlyph name="W.2" xMin="383" yMin="127" xMax="1409" yMax="1409">
      <component glyphName="compY" x="256" y="0" flags="0x4"/>
      <component glyphName="compY" x="256" y="256" flags="0x4"/>
      <component glyphName="compY" x="256" y="512" flags="0x4"/>
      <component glyphName="compY" x="256" y="768" flags="0x4"/>
      <component glyphName="compY" x="256" y="1024" flags="0x4"/>
      <component glyphName="compY" x="256" y="1280" flags="0x4"/>
      <component glyphName="compY" x="1280" y="0" flags="0x4"/>
      <component glyphName="compY" x="1280" y="256" flags="0x4"/>
      <component glyphName="compY" x="1280" y="512" flags="0x4"/>
      <component glyphName="compY" x="1280" y="768" flags="0x4"/>
      <component glyphName="compY" x="1280" y="1024" flags="0x4"/>
      <component glyphName="compY" x="1280" y="1280" flags="0x4"/>
      <component glyphName="compY" x="512" y="256" flags="0x4"/>
      <component glyphName="compY" x="768" y="512" flags="0x4"/>
      <component glyphName="compY" x="1024" y="256" flags="0x4"/>
      <component glyphName="compY" x="256" y="0" flags="0x4"/>
    </TTGlyph>
    <TTGlyph name="W.3" xMin="383" yMin="127" xMax="1409" yMax="1409">
      <component glyphName="compG" x="256" y="0" flags="0x4"/>
      <component glyphName="compG" x="256" y="256" flags="0x4"/>
      <component glyphName="compG" x="256" y="512" flags="0x4"/>
      <component glyphName="compG" x="256" y="768" flags="0x4"/>
      <component glyphName="compG" x="256" y="1024" flags="0x4"/>
      <component glyphName="compG" x="256" y="1280" flags="0x4"/>
      <component glyphName="compG" x="1280" y="0" flags="0x4"/>
      <component glyphName="compG" x="1280" y="256" flags="0x4"/>
      <component glyphName="compG" x="1280" y="512" flags="0x4"/>
      <component glyphName="compG" x="1280" y="768" flags="0x4"/>
      <component glyphName="compG" x="1280" y="1024" flags="0x4"/>
      <component glyphName="compG" x="1280" y="1280" flags="0x4"/>
      <component glyphName="compG" x="512" y="256" flags="0x4"/>
      <component glyphName="compG" x="768" y="512" flags="0x4"/>
      <component glyphName="compG" x="1024" y="256" flags="0x4"/>
      <component glyphName="compG" x="256" y="0" flags="0x4"/>
    </TTGlyph>
    <TTGlyph name="W.4" xMin="383" yMin="127" xMax="1409" yMax="1409">
      <component glyphName="compB" x="256" y="0" flags="0x4"/>
      <component glyphName="compB" x="256" y="256" flags="0x4"/>
      <component glyphName="compB" x="256" y="512" flags="0x4"/>
      <component glyphName="compB" x="256" y="768" flags="0x4"/>
      <component glyphName="compB" x="256" y="1024" flags="0x4"/>
      <component glyphName="compB" x="256" y="1280" flags="0x4"/>
      <component glyphName="compB" x="1280" y="0" flags="0x4"/>
      <component glyphName="compB" x="1280" y="256" flags="0x4"/>
      <component glyphName="compB" x="1280" y="512" flags="0x4"/>
      <component glyphName="compB" x="1280" y="768" flags="0x4"/>
      <component glyphName="compB" x="1280" y="1024" flags="0x4"/>
      <component glyphName="compB" x="1280" y="1280" flags="0x4"/>
      <component glyphName="compB" x="512" y="256" flags="0x4"/>
      <component glyphName="compB" x="768" y="512" flags="0x4"/>
      <component glyphName="compB" x="1024" y="256" flags="0x4"/>
      <component glyphName="compB" x="256" y="0" flags="0x4"/>
    </TTGlyph>
    <TTGlyph name="W.5" xMin="383" yMin="127" xMax="1409" yMax="1409">
      <component glyphName="compI" x="256" y="0" flags="0x4"/>
      <component glyphName="compI" x="256" y="256" flags="0x4"/>
      <component glyphName="compI" x="256" y="512" flags="0x4"/>
      <component glyphName="compI" x="256" y="768" flags="0x4"/>
      <component glyphName="compI" x="256" y="1024" flags="0x4"/>
      <component glyphName="compI" x="256" y="1280" flags="0x4"/>
      <component glyphName="compI" x="1280" y="0" flags="0x4"/>
      <component glyphName="compI" x="1280" y="256" flags="0x4"/>
      <component glyphName="compI" x="1280" y="512" flags="0x4"/>
      <component glyphName="compI" x="1280" y="768" flags="0x4"/>
      <component glyphName="compI" x="1280" y="1024" flags="0x4"/>
      <component glyphName="compI" x="1280" y="1280" flags="0x4"/>
      <component glyphName="compI" x="512" y="256" flags="0x4"/>
      <component glyphName="compI" x="768" y="512" flags="0x4"/>
      <component glyphName="compI" x="1024" y="256" flags="0x4"/>
      <component glyphName="compI" x="256" y="0" flags="0x4"/>
    </TTGlyph>
    <TTGlyph name="W.6" xMin="383" yMin="127" xMax="1409" yMax="1409">
      <component glyphName="compV" x="256" y="0" flags="0x4"/>
      <component glyphName="compV" x="256" y="256" flags="0x4"/>
      <component glyphName="compV" x="256" y="512" flags="0x4"/>
      <component glyphName="compV" x="256" y="768" flags="0x4"/>
      <component glyphName="compV" x="256" y="1024" flags="0x4"/>
      <component glyphName="compV" x="256" y="1280" flags="0x4"/>
      <component glyphName="compV" x="1280" y="0" flags="0x4"/>
      <component glyphName="compV" x="1280" y="256" flags="0x4"/>
      <component glyphName="compV" x="1280" y="512" flags="0x4"/>
      <component glyphName="compV" x="1280" y="768" flags="0x4"/>
      <component glyphName="compV" x="1280" y="1024" flags="0x4"/>
      <component glyphName="compV" x="1280" y="1280" flags="0x4"/>
      <component glyphName="compV" x="512" y="256" flags="0x4"/>
      <component glyphName="compV" x="768" y="512" flags="0x4"/>
      <component glyphName="compV" x="1024" y="256" flags="0x4"/>
      <component glyphName="compV" x="256" y="0" flags="0x4"/>
    </TTGlyph>
    <TTGlyph name="X" xMin="256" yMin="0" xMax="1536" yMax="1536">
      <component glyphName="comp0" x="256" y="0" flags="0x4"/>
      <component glyphName="comp0" x="256" y="1280" flags="0x4"/>
      <component glyphName="comp0" x="1280" y="0" flags="0x4"/>
      <component glyphName="comp0" x="1280" y="1280" flags="0x4"/>
      <component glyphName="comp0" x="512" y="256" flags="0x4"/>
      <component glyphName="comp0" x="768" y="512" flags="0x4"/>
      <component glyphName="comp0" x="1024" y="1024" flags="0x4"/>
      <component glyphName="comp0" x="512" y="1024" flags="0x4"/>
      <component glyphName="comp0" x="768" y="768" flags="0x4"/>
      <component glyphName="comp0" x="1024" y="256" flags="0x4"/>
    </TTGlyph>
    <TTGlyph name="X.0" xMin="383" yMin="127" xMax="1409" yMax="1409">
      <component glyphName="compR" x="256" y="0" flags="0x4"/>
      <component glyphName="compR" x="256" y="1280" flags="0x4"/>
      <component glyphName="compR" x="1280" y="0" flags="0x4"/>
      <component glyphName="compR" x="1280" y="1280" flags="0x4"/>
      <component glyphName="compR" x="512" y="256" flags="0x4"/>
      <component glyphName="compR" x="768" y="512" flags="0x4"/>
      <component glyphName="compR" x="1024" y="1024" flags="0x4"/>
      <component glyphName="compR" x="512" y="1024" flags="0x4"/>
      <component glyphName="compR" x="768" y="768" flags="0x4"/>
      <component glyphName="compR" x="1024" y="256" flags="0x4"/>
    </TTGlyph>
    <TTGlyph name="X.1" xMin="383" yMin="127" xMax="1409" yMax="1409">
      <component glyphName="compO" x="256" y="0" flags="0x4"/>
      <component glyphName="compO" x="256" y="1280" flags="0x4"/>
      <component glyphName="compO" x="1280" y="0" flags="0x4"/>
      <component glyphName="compO" x="1280" y="1280" flags="0x4"/>
      <component glyphName="compO" x="512" y="256" flags="0x4"/>
      <component glyphName="compO" x="768" y="512" flags="0x4"/>
      <component glyphName="compO" x="1024" y="1024" flags="0x4"/>
      <component glyphName="compO" x="512" y="1024" flags="0x4"/>
      <component glyphName="compO" x="768" y="768" flags="0x4"/>
      <component glyphName="compO" x="1024" y="256" flags="0x4"/>
    </TTGlyph>
    <TTGlyph name="X.2" xMin="383" yMin="127" xMax="1409" yMax="1409">
      <component glyphName="compY" x="256" y="0" flags="0x4"/>
      <component glyphName="compY" x="256" y="1280" flags="0x4"/>
      <component glyphName="compY" x="1280" y="0" flags="0x4"/>
      <component glyphName="compY" x="1280" y="1280" flags="0x4"/>
      <component glyphName="compY" x="512" y="256" flags="0x4"/>
      <component glyphName="compY" x="768" y="512" flags="0x4"/>
      <component glyphName="compY" x="1024" y="1024" flags="0x4"/>
      <component glyphName="compY" x="512" y="1024" flags="0x4"/>
      <component glyphName="compY" x="768" y="768" flags="0x4"/>
      <component glyphName="compY" x="1024" y="256" flags="0x4"/>
    </TTGlyph>
    <TTGlyph name="X.3" xMin="383" yMin="127" xMax="1409" yMax="1409">
      <component glyphName="compG" x="256" y="0" flags="0x4"/>
      <component glyphName="compG" x="256" y="1280" flags="0x4"/>
      <component glyphName="compG" x="1280" y="0" flags="0x4"/>
      <component glyphName="compG" x="1280" y="1280" flags="0x4"/>
      <component glyphName="compG" x="512" y="256" flags="0x4"/>
      <component glyphName="compG" x="768" y="512" flags="0x4"/>
      <component glyphName="compG" x="1024" y="1024" flags="0x4"/>
      <component glyphName="compG" x="512" y="1024" flags="0x4"/>
      <component glyphName="compG" x="768" y="768" flags="0x4"/>
      <component glyphName="compG" x="1024" y="256" flags="0x4"/>
    </TTGlyph>
    <TTGlyph name="X.4" xMin="383" yMin="127" xMax="1409" yMax="1409">
      <component glyphName="compB" x="256" y="0" flags="0x4"/>
      <component glyphName="compB" x="256" y="1280" flags="0x4"/>
      <component glyphName="compB" x="1280" y="0" flags="0x4"/>
      <component glyphName="compB" x="1280" y="1280" flags="0x4"/>
      <component glyphName="compB" x="512" y="256" flags="0x4"/>
      <component glyphName="compB" x="768" y="512" flags="0x4"/>
      <component glyphName="compB" x="1024" y="1024" flags="0x4"/>
      <component glyphName="compB" x="512" y="1024" flags="0x4"/>
      <component glyphName="compB" x="768" y="768" flags="0x4"/>
      <component glyphName="compB" x="1024" y="256" flags="0x4"/>
    </TTGlyph>
    <TTGlyph name="X.5" xMin="383" yMin="127" xMax="1409" yMax="1409">
      <component glyphName="compI" x="256" y="0" flags="0x4"/>
      <component glyphName="compI" x="256" y="1280" flags="0x4"/>
      <component glyphName="compI" x="1280" y="0" flags="0x4"/>
      <component glyphName="compI" x="1280" y="1280" flags="0x4"/>
      <component glyphName="compI" x="512" y="256" flags="0x4"/>
      <component glyphName="compI" x="768" y="512" flags="0x4"/>
      <component glyphName="compI" x="1024" y="1024" flags="0x4"/>
      <component glyphName="compI" x="512" y="1024" flags="0x4"/>
      <component glyphName="compI" x="768" y="768" flags="0x4"/>
      <component glyphName="compI" x="1024" y="256" flags="0x4"/>
    </TTGlyph>
    <TTGlyph name="X.6" xMin="383" yMin="127" xMax="1409" yMax="1409">
      <component glyphName="compV" x="256" y="0" flags="0x4"/>
      <component glyphName="compV" x="256" y="1280" flags="0x4"/>
      <component glyphName="compV" x="1280" y="0" flags="0x4"/>
      <component glyphName="compV" x="1280" y="1280" flags="0x4"/>
      <component glyphName="compV" x="512" y="256" flags="0x4"/>
      <component glyphName="compV" x="768" y="512" flags="0x4"/>
      <component glyphName="compV" x="1024" y="1024" flags="0x4"/>
      <component glyphName="compV" x="512" y="1024" flags="0x4"/>
      <component glyphName="compV" x="768" y="768" flags="0x4"/>
      <component glyphName="compV" x="1024" y="256" flags="0x4"/>
    </TTGlyph>
    <TTGlyph name="Y" xMin="256" yMin="0" xMax="1024" yMax="1536">
      <component glyphName="comp0" x="512" y="0" flags="0x4"/>
      <component glyphName="comp0" x="768" y="1280" flags="0x4"/>
      <component glyphName="comp0" x="256" y="1280" flags="0x4"/>
      <component glyphName="comp0" x="512" y="256" flags="0x4"/>
      <component glyphName="comp0" x="512" y="512" flags="0x4"/>
      <component glyphName="comp0" x="768" y="1024" flags="0x4"/>
      <component glyphName="comp0" x="256" y="1024" flags="0x4"/>
      <component glyphName="comp0" x="256" y="768" flags="0x4"/>
      <component glyphName="comp0" x="768" y="768" flags="0x4"/>
    </TTGlyph>
    <TTGlyph name="Y.0" xMin="383" yMin="127" xMax="897" yMax="1409">
      <component glyphName="compR" x="512" y="0" flags="0x4"/>
      <component glyphName="compR" x="768" y="1280" flags="0x4"/>
      <component glyphName="compR" x="256" y="1280" flags="0x4"/>
      <component glyphName="compR" x="512" y="256" flags="0x4"/>
      <component glyphName="compR" x="512" y="512" flags="0x4"/>
      <component glyphName="compR" x="768" y="1024" flags="0x4"/>
      <component glyphName="compR" x="256" y="1024" flags="0x4"/>
      <component glyphName="compR" x="256" y="768" flags="0x4"/>
      <component glyphName="compR" x="768" y="768" flags="0x4"/>
    </TTGlyph>
    <TTGlyph name="Y.1" xMin="383" yMin="127" xMax="897" yMax="1409">
      <component glyphName="compO" x="512" y="0" flags="0x4"/>
      <component glyphName="compO" x="768" y="1280" flags="0x4"/>
      <component glyphName="compO" x="256" y="1280" flags="0x4"/>
      <component glyphName="compO" x="512" y="256" flags="0x4"/>
      <component glyphName="compO" x="512" y="512" flags="0x4"/>
      <component glyphName="compO" x="768" y="1024" flags="0x4"/>
      <component glyphName="compO" x="256" y="1024" flags="0x4"/>
      <component glyphName="compO" x="256" y="768" flags="0x4"/>
      <component glyphName="compO" x="768" y="768" flags="0x4"/>
    </TTGlyph>
    <TTGlyph name="Y.2" xMin="383" yMin="127" xMax="897" yMax="1409">
      <component glyphName="compY" x="512" y="0" flags="0x4"/>
      <component glyphName="compY" x="768" y="1280" flags="0x4"/>
      <component glyphName="compY" x="256" y="1280" flags="0x4"/>
      <component glyphName="compY" x="512" y="256" flags="0x4"/>
      <component glyphName="compY" x="512" y="512" flags="0x4"/>
      <component glyphName="compY" x="768" y="1024" flags="0x4"/>
      <component glyphName="compY" x="256" y="1024" flags="0x4"/>
      <component glyphName="compY" x="256" y="768" flags="0x4"/>
      <component glyphName="compY" x="768" y="768" flags="0x4"/>
    </TTGlyph>
    <TTGlyph name="Y.3" xMin="383" yMin="127" xMax="897" yMax="1409">
      <component glyphName="compG" x="512" y="0" flags="0x4"/>
      <component glyphName="compG" x="768" y="1280" flags="0x4"/>
      <component glyphName="compG" x="256" y="1280" flags="0x4"/>
      <component glyphName="compG" x="512" y="256" flags="0x4"/>
      <component glyphName="compG" x="512" y="512" flags="0x4"/>
      <component glyphName="compG" x="768" y="1024" flags="0x4"/>
      <component glyphName="compG" x="256" y="1024" flags="0x4"/>
      <component glyphName="compG" x="256" y="768" flags="0x4"/>
      <component glyphName="compG" x="768" y="768" flags="0x4"/>
    </TTGlyph>
    <TTGlyph name="Y.4" xMin="383" yMin="127" xMax="897" yMax="1409">
      <component glyphName="compB" x="512" y="0" flags="0x4"/>
      <component glyphName="compB" x="768" y="1280" flags="0x4"/>
      <component glyphName="compB" x="256" y="1280" flags="0x4"/>
      <component glyphName="compB" x="512" y="256" flags="0x4"/>
      <component glyphName="compB" x="512" y="512" flags="0x4"/>
      <component glyphName="compB" x="768" y="1024" flags="0x4"/>
      <component glyphName="compB" x="256" y="1024" flags="0x4"/>
      <component glyphName="compB" x="256" y="768" flags="0x4"/>
      <component glyphName="compB" x="768" y="768" flags="0x4"/>
    </TTGlyph>
    <TTGlyph name="Y.5" xMin="383" yMin="127" xMax="897" yMax="1409">
      <component glyphName="compI" x="512" y="0" flags="0x4"/>
      <component glyphName="compI" x="768" y="1280" flags="0x4"/>
      <component glyphName="compI" x="256" y="1280" flags="0x4"/>
      <component glyphName="compI" x="512" y="256" flags="0x4"/>
      <component glyphName="compI" x="512" y="512" flags="0x4"/>
      <component glyphName="compI" x="768" y="1024" flags="0x4"/>
      <component glyphName="compI" x="256" y="1024" flags="0x4"/>
      <component glyphName="compI" x="256" y="768" flags="0x4"/>
      <component glyphName="compI" x="768" y="768" flags="0x4"/>
    </TTGlyph>
    <TTGlyph name="Y.6" xMin="383" yMin="127" xMax="897" yMax="1409">
      <component glyphName="compV" x="512" y="0" flags="0x4"/>
      <component glyphName="compV" x="768" y="1280" flags="0x4"/>
      <component glyphName="compV" x="256" y="1280" flags="0x4"/>
      <component glyphName="compV" x="512" y="256" flags="0x4"/>
      <component glyphName="compV" x="512" y="512" flags="0x4"/>
      <component glyphName="compV" x="768" y="1024" flags="0x4"/>
      <component glyphName="compV" x="256" y="1024" flags="0x4"/>
      <component glyphName="compV" x="256" y="768" flags="0x4"/>
      <component glyphName="compV" x="768" y="768" flags="0x4"/>
    </TTGlyph>
    <TTGlyph name="Z" xMin="256" yMin="0" xMax="1280" yMax="1536">
      <component glyphName="comp0" x="256" y="0" flags="0x4"/>
      <component glyphName="comp0" x="256" y="1280" flags="0x4"/>
      <component glyphName="comp0" x="512" y="0" flags="0x4"/>
      <component glyphName="comp0" x="768" y="0" flags="0x4"/>
      <component glyphName="comp0" x="1024" y="0" flags="0x4"/>
      <component glyphName="comp0" x="1024" y="1280" flags="0x4"/>
      <component glyphName="comp0" x="768" y="1280" flags="0x4"/>
      <component glyphName="comp0" x="512" y="1280" flags="0x4"/>
      <component glyphName="comp0" x="256" y="256" flags="0x4"/>
      <component glyphName="comp0" x="512" y="512" flags="0x4"/>
      <component glyphName="comp0" x="1024" y="1024" flags="0x4"/>
      <component glyphName="comp0" x="768" y="768" flags="0x4"/>
    </TTGlyph>
    <TTGlyph name="Z.0" xMin="383" yMin="127" xMax="1153" yMax="1409">
      <component glyphName="compR" x="256" y="0" flags="0x4"/>
      <component glyphName="compR" x="256" y="1280" flags="0x4"/>
      <component glyphName="compR" x="512" y="0" flags="0x4"/>
      <component glyphName="compR" x="768" y="0" flags="0x4"/>
      <component glyphName="compR" x="1024" y="0" flags="0x4"/>
      <component glyphName="compR" x="1024" y="1280" flags="0x4"/>
      <component glyphName="compR" x="768" y="1280" flags="0x4"/>
      <component glyphName="compR" x="512" y="1280" flags="0x4"/>
      <component glyphName="compR" x="256" y="256" flags="0x4"/>
      <component glyphName="compR" x="512" y="512" flags="0x4"/>
      <component glyphName="compR" x="1024" y="1024" flags="0x4"/>
      <component glyphName="compR" x="768" y="768" flags="0x4"/>
    </TTGlyph>
    <TTGlyph name="Z.1" xMin="383" yMin="127" xMax="1153" yMax="1409">
      <component glyphName="compO" x="256" y="0" flags="0x4"/>
      <component glyphName="compO" x="256" y="1280" flags="0x4"/>
      <component glyphName="compO" x="512" y="0" flags="0x4"/>
      <component glyphName="compO" x="768" y="0" flags="0x4"/>
      <component glyphName="compO" x="1024" y="0" flags="0x4"/>
      <component glyphName="compO" x="1024" y="1280" flags="0x4"/>
      <component glyphName="compO" x="768" y="1280" flags="0x4"/>
      <component glyphName="compO" x="512" y="1280" flags="0x4"/>
      <component glyphName="compO" x="256" y="256" flags="0x4"/>
      <component glyphName="compO" x="512" y="512" flags="0x4"/>
      <component glyphName="compO" x="1024" y="1024" flags="0x4"/>
      <component glyphName="compO" x="768" y="768" flags="0x4"/>
    </TTGlyph>
    <TTGlyph name="Z.2" xMin="383" yMin="127" xMax="1153" yMax="1409">
      <component glyphName="compY" x="256" y="0" flags="0x4"/>
      <component glyphName="compY" x="256" y="1280" flags="0x4"/>
      <component glyphName="compY" x="512" y="0" flags="0x4"/>
      <component glyphName="compY" x="768" y="0" flags="0x4"/>
      <component glyphName="compY" x="1024" y="0" flags="0x4"/>
      <component glyphName="compY" x="1024" y="1280" flags="0x4"/>
      <component glyphName="compY" x="768" y="1280" flags="0x4"/>
      <component glyphName="compY" x="512" y="1280" flags="0x4"/>
      <component glyphName="compY" x="256" y="256" flags="0x4"/>
      <component glyphName="compY" x="512" y="512" flags="0x4"/>
      <component glyphName="compY" x="1024" y="1024" flags="0x4"/>
      <component glyphName="compY" x="768" y="768" flags="0x4"/>
    </TTGlyph>
    <TTGlyph name="Z.3" xMin="383" yMin="127" xMax="1153" yMax="1409">
      <component glyphName="compG" x="256" y="0" flags="0x4"/>
      <component glyphName="compG" x="256" y="1280" flags="0x4"/>
      <component glyphName="compG" x="512" y="0" flags="0x4"/>
      <component glyphName="compG" x="768" y="0" flags="0x4"/>
      <component glyphName="compG" x="1024" y="0" flags="0x4"/>
      <component glyphName="compG" x="1024" y="1280" flags="0x4"/>
      <component glyphName="compG" x="768" y="1280" flags="0x4"/>
      <component glyphName="compG" x="512" y="1280" flags="0x4"/>
      <component glyphName="compG" x="256" y="256" flags="0x4"/>
      <component glyphName="compG" x="512" y="512" flags="0x4"/>
      <component glyphName="compG" x="1024" y="1024" flags="0x4"/>
      <component glyphName="compG" x="768" y="768" flags="0x4"/>
    </TTGlyph>
    <TTGlyph name="Z.4" xMin="383" yMin="127" xMax="1153" yMax="1409">
      <component glyphName="compB" x="256" y="0" flags="0x4"/>
      <component glyphName="compB" x="256" y="1280" flags="0x4"/>
      <component glyphName="compB" x="512" y="0" flags="0x4"/>
      <component glyphName="compB" x="768" y="0" flags="0x4"/>
      <component glyphName="compB" x="1024" y="0" flags="0x4"/>
      <component glyphName="compB" x="1024" y="1280" flags="0x4"/>
      <component glyphName="compB" x="768" y="1280" flags="0x4"/>
      <component glyphName="compB" x="512" y="1280" flags="0x4"/>
      <component glyphName="compB" x="256" y="256" flags="0x4"/>
      <component glyphName="compB" x="512" y="512" flags="0x4"/>
      <component glyphName="compB" x="1024" y="1024" flags="0x4"/>
      <component glyphName="compB" x="768" y="768" flags="0x4"/>
    </TTGlyph>
    <TTGlyph name="Z.5" xMin="383" yMin="127" xMax="1153" yMax="1409">
      <component glyphName="compI" x="256" y="0" flags="0x4"/>
      <component glyphName="compI" x="256" y="1280" flags="0x4"/>
      <component glyphName="compI" x="512" y="0" flags="0x4"/>
      <component glyphName="compI" x="768" y="0" flags="0x4"/>
      <component glyphName="compI" x="1024" y="0" flags="0x4"/>
      <component glyphName="compI" x="1024" y="1280" flags="0x4"/>
      <component glyphName="compI" x="768" y="1280" flags="0x4"/>
      <component glyphName="compI" x="512" y="1280" flags="0x4"/>
      <component glyphName="compI" x="256" y="256" flags="0x4"/>
      <component glyphName="compI" x="512" y="512" flags="0x4"/>
      <component glyphName="compI" x="1024" y="1024" flags="0x4"/>
      <component glyphName="compI" x="768" y="768" flags="0x4"/>
    </TTGlyph>
    <TTGlyph name="Z.6" xMin="383" yMin="127" xMax="1153" yMax="1409">
      <component glyphName="compV" x="256" y="0" flags="0x4"/>
      <component glyphName="compV" x="256" y="1280" flags="0x4"/>
      <component glyphName="compV" x="512" y="0" flags="0x4"/>
      <component glyphName="compV" x="768" y="0" flags="0x4"/>
      <component glyphName="compV" x="1024" y="0" flags="0x4"/>
      <component glyphName="compV" x="1024" y="1280" flags="0x4"/>
      <component glyphName="compV" x="768" y="1280" flags="0x4"/>
      <component glyphName="compV" x="512" y="1280" flags="0x4"/>
      <component glyphName="compV" x="256" y="256" flags="0x4"/>
      <component glyphName="compV" x="512" y="512" flags="0x4"/>
      <component glyphName="compV" x="1024" y="1024" flags="0x4"/>
      <component glyphName="compV" x="768" y="768" flags="0x4"/>
    </TTGlyph>
    <TTGlyph name="comma" xMin="256" yMin="-256" xMax="768" yMax="256">
      <component glyphName="comp0" x="256" y="-256" flags="0x4"/>
      <component glyphName="comp0" x="512" y="0" flags="0x4"/>
    </TTGlyph>
    <TTGlyph name="comp0" xMin="0" yMin="0" xMax="256" yMax="256">
      <contour>
        <pt x="0" y="256" on="1"/>
        <pt x="256" y="256" on="1"/>
        <pt x="256" y="0" on="1"/>
        <pt x="0" y="0" on="1"/>
      </contour>
    </TTGlyph>
    <TTGlyph name="compB" xMin="127" yMin="127" xMax="129" yMax="129">
      <contour>
        <pt x="127" y="129" on="1"/>
        <pt x="129" y="129" on="1"/>
        <pt x="129" y="127" on="1"/>
        <pt x="127" y="127" on="1"/>
      </contour>
    </TTGlyph>
    <TTGlyph name="compG" xMin="127" yMin="127" xMax="129" yMax="129">
      <contour>
        <pt x="127" y="129" on="1"/>
        <pt x="129" y="129" on="1"/>
        <pt x="129" y="127" on="1"/>
        <pt x="127" y="127" on="1"/>
      </contour>
    </TTGlyph>
    <TTGlyph name="compI" xMin="127" yMin="127" xMax="129" yMax="129">
      <contour>
        <pt x="127" y="129" on="1"/>
        <pt x="129" y="129" on="1"/>
        <pt x="129" y="127" on="1"/>
        <pt x="127" y="127" on="1"/>
      </contour>
    </TTGlyph>
    <TTGlyph name="compO" xMin="127" yMin="127" xMax="129" yMax="129">
      <contour>
        <pt x="127" y="129" on="1"/>
        <pt x="129" y="129" on="1"/>
        <pt x="129" y="127" on="1"/>
        <pt x="127" y="127" on="1"/>
      </contour>
    </TTGlyph>
    <TTGlyph name="compR" xMin="127" yMin="127" xMax="129" yMax="129">
      <contour>
        <pt x="127" y="129" on="1"/>
        <pt x="129" y="129" on="1"/>
        <pt x="129" y="127" on="1"/>
        <pt x="127" y="127" on="1"/>
      </contour>
    </TTGlyph>
    <TTGlyph name="compV" xMin="127" yMin="127" xMax="129" yMax="129">
      <contour>
        <pt x="127" y="129" on="1"/>
        <pt x="129" y="129" on="1"/>
        <pt x="129" y="127" on="1"/>
        <pt x="127" y="127" on="1"/>
      </contour>
    </TTGlyph>
    <TTGlyph name="compY" xMin="127" yMin="127" xMax="129" yMax="129">
      <contour>
        <pt x="127" y="129" on="1"/>
        <pt x="129" y="129" on="1"/>
        <pt x="129" y="127" on="1"/>
        <pt x="127" y="127" on="1"/>
      </contour>
    </TTGlyph>
    <TTGlyph name="exclam" xMin="256" yMin="0" xMax="512" yMax="1536">
      <component glyphName="comp0" x="256" y="0" flags="0x4"/>
      <component glyphName="comp0" x="256" y="512" flags="0x4"/>
      <component glyphName="comp0" x="256" y="768" flags="0x4"/>
      <component glyphName="comp0" x="256" y="1024" flags="0x4"/>
      <component glyphName="comp0" x="256" y="1280" flags="0x4"/>
    </TTGlyph>
    <TTGlyph name="hyphen" xMin="256" yMin="512" xMax="768" yMax="768">
      <component glyphName="comp0" x="256" y="512" flags="0x4"/>
      <component glyphName="comp0" x="512" y="512" flags="0x4"/>
    </TTGlyph>
    <TTGlyph name="period" xMin="256" yMin="0" xMax="512" yMax="256">
      <component glyphName="comp0" x="256" y="0" flags="0x4"/>
    </TTGlyph>
    <TTGlyph name="quotedbl" xMin="256" yMin="1024" xMax="1024" yMax="1536">
      <component glyphName="comp0" x="256" y="1024" flags="0x4"/>
      <component glyphName="comp0" x="256" y="1280" flags="0x4"/>
      <component glyphName="comp0" x="768" y="1280" flags="0x4"/>
      <component glyphName="comp0" x="768" y="1024" flags="0x4"/>
    </TTGlyph>
</ttFont>
